<?xml version="1.0" encoding="UTF-8"?>
<svg width="66px" height="66px" viewBox="0 0 66 66" version="1.1" xmlns="http://www.w3.org/2000/svg" xmlns:xlink="http://www.w3.org/1999/xlink">
    <!-- Generator: Sketch 64 (93537) - https://sketch.com -->
    <title>Bill icon big</title>
    <desc>Created with Sketch.</desc>
    <defs>
        <polygon id="path-1" points="4.27927928e-06 0.0318851351 37.9599074 0.0318851351 37.9599074 39 4.27927928e-06 39"></polygon>
    </defs>
    <g id="Page-1" stroke="none" stroke-width="1" fill="none" fill-rule="evenodd">
        <g id="iPhone-11---Facturar" transform="translate(-167.000000, -283.000000)">
            <g id="Bill-icon-big" transform="translate(167.000000, 283.000000)">
                <circle id="Oval" stroke="#003DA6" stroke-width="3" cx="33" cy="33" r="31.5"></circle>
                <g id="Group-8" transform="translate(14.000000, 14.000000)">
                    <path d="M13.0586623,15 C12.4723514,15 12,14.5516079 12,13.999594 C12,13.4483921 12.4723514,13 13.0586623,13 L26.9430579,13 C27.5276056,13 28,13.4483921 28,13.999594 C28,14.5516079 27.5276056,15 26.9430579,15 L13.0586623,15 Z" id="Fill-1" fill="#003DA6"></path>
                    <path d="M11.9495011,19 C11.4236461,19 11,18.5515764 11,17.9995737 C11,17.448383 11.4236461,17 11.9495011,17 L20.0497275,17 C20.5740397,17 21,17.448383 21,17.9995737 C21,18.5515764 20.5740397,19 20.0497275,19 L11.9495011,19 Z" id="Fill-3" fill="#003DA6"></path>
                    <g id="Group-7">
                        <mask id="mask-2" fill="white">
                            <use xlink:href="#path-1"></use>
                        </mask>
                        <g id="Clip-6"></g>
                        <path d="M35.8521056,18.1113014 L33.7326214,19.7546595 L33.7351034,12.6823081 L35.3345268,14.326325 C35.3821124,14.3767878 35.4321372,14.4255818 35.4887092,14.4691493 C35.6112678,14.5632676 35.703743,14.6778959 35.7620696,14.8009568 C35.821252,14.9225682 35.8521056,15.0653926 35.8521056,15.2253892 L35.8521056,18.1113014 Z M35.8521056,33.7018588 L27.5500043,27.2572845 L35.8521056,20.8170581 L35.8521056,33.7018588 Z M35.6203827,36.5246595 L35.5828962,36.5605412 C35.415448,36.7332304 35.1836822,36.8394264 34.9286372,36.8394264 L3.03127455,36.8394264 C2.7762295,36.8394264 2.54454932,36.7332304 2.37954032,36.5605412 C2.31120023,36.4929939 2.25449977,36.4125784 2.21200653,36.3253554 L12.7744232,28.1298216 L12.8102836,28.1033385 L18.421189,23.7483385 C18.5911619,23.6175919 18.7870245,23.5516257 18.9812182,23.5516257 C19.1745561,23.5516257 19.3687926,23.6175919 19.5388083,23.7483385 L25.1571597,28.1084331 L25.1805673,28.1272743 L35.75043,36.3279027 C35.715511,36.3980412 35.6704074,36.4639196 35.6203827,36.5246595 L35.6203827,36.5246595 Z M2.10780608,20.8170581 L4.60241194,22.75195 C4.63069797,22.7759297 4.66150878,22.8007 4.69488716,22.8220885 L10.4099074,27.2572845 L2.10780608,33.7018588 L2.10780608,20.8170581 Z M2.10780608,15.2253892 C2.10780608,15.0653926 2.13865968,14.9225682 2.19784212,14.8009568 C2.25616869,14.6778959 2.35116869,14.5632676 2.47120248,14.4666459 C2.51206959,14.4375277 2.54703131,14.4033149 2.58289167,14.3674331 L4.2273759,12.6771696 L4.2273759,19.7546595 L2.10780608,18.1113014 L2.10780608,15.2253892 Z M6.33427905,3.41923716 C6.33427905,3.08207162 6.4693759,2.77411216 6.68436689,2.55359527 C6.9010268,2.33114595 7.20108986,2.19245 7.52948176,2.19245 L7.52948176,2.18748716 L22.9052318,2.19003446 L22.9052318,8.5550277 C22.9052318,9.43520676 23.2552768,10.2358926 23.819457,10.8124162 L23.8220245,10.8124162 C24.3870606,11.3923655 25.1638782,11.7507439 26.0189637,11.7507439 L31.6398827,11.7507439 L31.6347903,21.3841831 L25.8064119,25.9066459 L20.8048759,22.0248284 C20.2589255,21.6022845 19.6213556,21.3893216 18.9812182,21.3893216 C18.3411236,21.3893216 17.7010291,21.6022845 17.1551214,22.0248284 L12.1535854,25.9066459 L6.33427905,21.3893216 L6.33427905,3.41923716 Z M25.010466,3.71779797 L30.728011,9.58830811 L26.0189637,9.58830811 C25.7405538,9.58830811 25.4880336,9.47455811 25.3055651,9.28724392 L25.3080043,9.2846527 C25.1238241,9.09817297 25.010466,8.83887568 25.010466,8.5550277 L25.010466,3.71779797 Z M37.6473917,13.8387811 C37.4515291,13.4358689 37.1706372,13.0816189 36.8089097,12.7883284 L33.4425718,9.33081149 L33.4325583,9.31890946 L33.4234863,9.30929122 L24.7671034,0.420233784 C24.5729097,0.182281081 24.2828601,0.0318587838 23.9586191,0.0318587838 C23.9261394,0.0318587838 23.8952858,0.0318587838 23.864475,0.0344060811 L7.52948176,0.0344060811 L7.52948176,0.0318587838 C6.6201777,0.0318587838 5.79337815,0.412547973 5.1957768,1.02671014 C4.59821824,1.63744662 4.2273759,2.48600405 4.2273759,3.41923716 L4.2273759,9.6293723 L1.15348401,12.7883284 C0.78927455,13.0816189 0.50842545,13.4358689 0.312562838,13.8387811 C0.106686712,14.2604466 4.27927928e-06,14.7284027 4.27927928e-06,15.2253892 L4.27927928e-06,35.8916561 C4.27927928e-06,36.7478993 0.340891667,37.5263182 0.888468243,38.0882608 C1.43938266,38.6511696 2.19531734,39.0000176 3.03127455,39.0000176 L34.9286372,39.0000176 C35.7645944,39.0000176 36.5230538,38.6511696 37.0714863,38.0882608 L37.1348196,38.0156189 C37.6457227,37.4578926 37.9599074,36.708548 37.9599074,35.8916561 L37.9599074,15.2253892 C37.9599074,14.7284027 37.8532678,14.2604466 37.6473917,13.8387811 L37.6473917,13.8387811 Z" id="Fill-5" fill="#003DA6" mask="url(#mask-2)"></path>
                    </g>
                </g>
            </g>
        </g>
    </g>
</svg>