<?xml version="1.0" encoding="UTF-8"?>
<svg width="38px" height="38px" viewBox="0 0 38 38" version="1.1" xmlns="http://www.w3.org/2000/svg" xmlns:xlink="http://www.w3.org/1999/xlink">
    <!-- Generator: Sketch 64 (93537) - https://sketch.com -->
    <title>view icon off</title>
    <desc>Created with Sketch.</desc>
    <defs>
        <polygon id="path-1" points="7 6.14035484 25.8355581 6.14035484 25.8355581 24.9751774 7 24.9751774"></polygon>
    </defs>
    <g id="Page-1" stroke="none" stroke-width="1" fill="none" fill-rule="evenodd">
        <g id="iPhone-11---Historial" transform="translate(-365.000000, -264.000000)">
            <g id="view-icon-off" transform="translate(365.000000, 264.000000)">
                <g id="Group-3">
                    <circle id="Oval-Copy" fill="#E6E6E6" cx="19" cy="19" r="19"></circle>
                    <mask id="mask-2" fill="white">
                        <use xlink:href="#path-1"></use>
                    </mask>
                    <g id="Clip-2"></g>
                    <path d="M16.4176871,7.97875806 C12.2389129,7.97875806 8.83852581,11.3785323 8.83852581,15.5573065 C8.83852581,19.7366935 12.2389129,23.1364677 16.4176871,23.1364677 C20.5964613,23.1364677 23.9968484,19.7366935 23.9968484,15.5573065 C23.9968484,11.3785323 20.5964613,7.97875806 16.4176871,7.97875806 M16.4176871,24.9751774 C11.2245581,24.9751774 6.99981613,20.7504355 6.99981613,15.5573065 C6.99981613,10.3647903 11.2245581,6.14004839 16.4176871,6.14004839 C21.6108161,6.14004839 25.8355581,10.3647903 25.8355581,15.5573065 C25.8355581,20.7504355 21.6108161,24.9751774 16.4176871,24.9751774" id="Fill-1" fill="#FFFFFF" mask="url(#mask-2)"></path>
                </g>
                <path d="M30.0462812,30 C29.8078277,30 29.5693741,29.9084841 29.3836983,29.7247986 L22.2911358,22.685919 C21.9121536,22.3093965 21.9019796,21.6883958 22.2676084,21.2987996 C22.6338731,20.909857 23.2373195,20.8993981 23.6163017,21.2746132 L30.7088642,28.3141465 C31.0878464,28.6900153 31.0980204,29.3110161 30.7323916,29.7006123 C30.545444,29.8999862 30.2961806,30 30.0462812,30" id="Fill-4" fill="#FFFFFF"></path>
            </g>
        </g>
    </g>
</svg>