<?xml version="1.0" encoding="UTF-8"?>
<svg width="308px" height="235px" viewBox="0 0 308 235" version="1.1" xmlns="http://www.w3.org/2000/svg" xmlns:xlink="http://www.w3.org/1999/xlink">
    <!-- Generator: Sketch 64 (93537) - https://sketch.com -->
    <title>Ilustracion tarjeta</title>
    <desc>Created with Sketch.</desc>
    <defs>
        <polygon id="path-1" points="0.10482572 0.235362132 256.979322 0.235362132 256.979322 200.792466 0.10482572 200.792466"></polygon>
        <polyline id="path-3" points="49.6126254 0.0521506849 234.650078 59.092274 185.045556 215.845397 0.00847178683 156.804904"></polyline>
        <polygon id="path-5" points="61.1888701 0.323471415 129.896073 22.2763243 69.0215537 214.909091 0.314717514 192.956238"></polygon>
        <polygon id="path-7" points="52.7208054 0.12036383 81.9202262 9.3247 29.5162896 172.92896 0.316868778 163.724623"></polygon>
    </defs>
    <g id="Page-1" stroke="none" stroke-width="1" fill="none" fill-rule="evenodd">
        <g id="iPhone-11---Registro" transform="translate(-63.000000, -39.000000)">
            <g id="Ilustracion-tarjeta" transform="translate(215.500000, 163.000000) rotate(10.000000) translate(-215.500000, -163.000000) translate(61.000000, 18.000000)">
                <g id="Group-3" transform="translate(51.820797, 0.941336)">
                    <mask id="mask-2" fill="white">
                        <use xlink:href="#path-1"></use>
                    </mask>
                    <g id="Clip-2"></g>
                    <path d="M248.217173,137.270327 L52.7210391,200.187022 C46.1069816,202.317474 38.9527072,198.643312 36.8269184,192.024352 L0.709925575,79.6623965 C-1.41918649,73.0430675 2.25229483,65.8868763 8.8670908,63.7582715 L204.363594,0.840098713 C210.977282,-1.28887555 218.131556,2.38454724 220.257714,9.00313732 L256.375076,121.365093 C258.502342,127.984053 254.831969,135.141722 248.217173,137.270327" id="Fill-1" fill="#E1F1FB" mask="url(#mask-2)"></path>
                </g>
                <path d="M270.286119,11.0640609 L306.421722,123.68298 C308.547107,130.303484 304.873771,137.476498 298.25231,139.610627 L102.668526,202.666498 C96.0466948,204.801738 88.890285,201.119689 86.7660086,194.499926 L50.6300365,81.8817477 C48.5002185,75.2434691 52.1735541,68.0711952 58.7950158,65.9359551 L254.379169,2.88008469 C261.00063,0.745214871 268.15704,4.42726354 270.286119,11.0640609" id="Fill-4" fill="#003DA6"></path>
                <polygon id="Fill-6" fill="#FFFFFF" points="267.093789 82.4562465 274.365393 105.109495 102.638468 160.456246 95.3653925 137.80226"></polygon>
                <polygon id="Fill-8" fill="#424242" points="278.138911 32.8529493 287.401006 61.605336 68.6627339 131.852949 59.4010064 103.098726"></polygon>
                <g id="Group-12" transform="translate(43.496873, 27.819177)">
                    <mask id="mask-4" fill="white">
                        <use xlink:href="#path-3"></use>
                    </mask>
                    <g id="Clip-11"></g>
                    <path d="M191.128042,50.7702452 L214.345158,123.255629 L59.3906513,173.300684 C52.7885509,175.434793 45.6553064,171.755766 43.5351497,165.144834 L20.312877,92.6405877 L175.267015,42.5955329 C181.869115,40.4632726 189.005306,44.1415603 191.128042,50.7702452" id="Fill-10" fill-opacity="0.398601399" fill="#000000" mask="url(#mask-4)"></path>
                </g>
                <path d="M251.093464,211.898022 L55.5029891,274.955246 C48.8864537,277.089283 41.7283303,273.407763 39.6000299,266.774215 L3.46584086,154.163116 C1.33680158,147.530679 5.01043798,140.357974 11.6284511,138.224307 L207.220035,75.1678239 C213.83657,73.0337868 220.994324,76.7160469 223.121516,83.3495955 L259.256075,195.959213 C261.385114,202.591651 257.712586,209.765096 251.093464,211.898022" id="Fill-13" fill="#E1F1FB"></path>
                <path d="M221.152954,83.6984201 L257.287311,196.309887 C259.414513,202.939405 255.742337,210.111417 249.120969,212.246949 L53.5273669,275.303475 C46.9152339,277.435675 39.7574467,273.75302 37.631353,267.126093 L1.49699579,154.513886 C-0.633531124,147.878072 3.03975293,140.70495 9.65336362,138.572751 L205.247335,75.5151136 C211.867226,73.3810625 219.025013,77.0633468 221.152954,83.6984201" id="Fill-15" fill="#003DA6"></path>
                <g id="Group-19" transform="translate(45.795410, 74.241834)">
                    <mask id="mask-6" fill="white">
                        <use xlink:href="#path-5"></use>
                    </mask>
                    <g id="Clip-18"></g>
                    <polygon id="Fill-17" fill="#0D58D8" mask="url(#mask-6)" points="113.036249 16.8893436 80.7543842 177.779816 17.1733672 198.342406 49.4567006 37.4523033"></polygon>
                </g>
                <g id="Group-22" transform="translate(119.529403, 78.341263)">
                    <mask id="mask-8" fill="white">
                        <use xlink:href="#path-7"></use>
                    </mask>
                    <g id="Clip-21"></g>
                    <polygon id="Fill-20" fill="#0D58D8" mask="url(#mask-8)" points="64.8863774 3.95514809 32.2696715 164.334246 17.3512371 169.094323 49.967943 8.71559277"></polygon>
                </g>
                <path d="M48.1476487,213.940859 L47.0515103,210.808828 L42.2391398,197.058467 C41.9420237,196.208854 42.8071561,195.94684 42.8071561,195.94684 L46.2228525,194.828599 C46.2228525,194.828599 50.620704,193.611506 51.8365247,197.084926 C51.8365247,197.084926 53.0607042,200.302947 50.159452,202.046271 C49.9436438,202.183341 49.6693243,202.333273 49.6693243,202.333273 C48.6389162,202.670252 48.9474307,203.363686 48.9474307,203.363686 L49.2662037,204.274669 L49.6446279,205.356529 L49.9637809,206.268247 C49.9637809,206.268247 50.1541328,206.999164 51.1853008,206.66145 C51.1853008,206.66145 54.8468209,205.780601 56.6857497,201.845627 C56.6857497,201.845627 59.1337288,197.870597 55.788702,193.188169 C55.788702,193.188169 52.2977767,188.181991 46.1145684,190.206438 C39.9313601,192.230884 38.4890928,192.703096 38.4890928,192.703096 L37.9590709,192.876546 L37.3409021,193.07866 L36.6315467,193.310908 C35.890276,193.553812 35.3621538,193.957672 35.6129169,194.674625 L36.602291,197.502015 L41.5951348,211.768685 L42.9070814,215.517347 L43.3538955,216.793605 C43.6042786,217.509823 44.40862,217.894207 45.1498907,217.65167 L47.5940703,216.851299 C48.3357209,216.608762 48.7783557,215.742612 48.5272127,215.025292 L48.1476487,213.940859" id="Fill-23" fill="#FFFFFF"></path>
                <path d="M109.615271,195.329016 L113.174153,194.100174 L107.049085,175.64234 L105.780558,171.819651 L105.348742,170.518967 C105.106099,169.788131 104.326176,169.397324 103.60673,169.645575 L101.234879,170.464427 C100.515432,170.713054 100.083986,171.597354 100.32626,172.328566 L100.693543,173.434411 L105.37308,187.536569 L87.963283,175.802951 C87.963283,175.802951 87.0594574,175.326384 86.1283438,175.647982 L83.9604162,176.388221 L82.174153,177.004711 L88.3110217,195.498278 L89.5795488,199.321719 L90.0113643,200.622779 C90.2543757,201.353991 91.0335611,201.744422 91.7530077,201.496171 L94.1255959,200.676943 C94.844305,200.429068 95.2761205,199.544768 95.0334778,198.813557 L94.666195,197.706583 L93.6060161,194.512045 L89.9442503,183.476538 L106.981971,195.072866 C106.981971,195.072866 108.100782,195.851848 108.558042,195.694246 L109.615271,195.329016 Z" id="Fill-25" fill="#FFFFFF"></path>
                <path d="M129.415643,186.7824 L128.318989,183.650174 L122.502353,167.036473 L124.420832,168.500237 C124.420832,168.500237 124.81844,168.821802 125.379501,168.736908 L128.677065,167.661595 L130.106706,167.193396 C130.847565,166.951212 131.106809,166.534464 130.855928,165.817833 L130.503554,164.762365 L130.019658,163.380554 C129.768777,162.663924 129.338098,162.413287 128.597239,162.656206 L126.060681,163.486028 L112.26603,168.000433 L109.730232,168.830254 C108.988232,169.073173 108.803493,169.524834 109.054754,170.241465 L109.53827,171.623276 L109.922194,172.668821 C110.173074,173.385452 110.640245,173.564058 111.381864,173.321139 L112.809985,172.854043 L118.153749,171.105464 L121.816231,181.566433 L122.860428,184.610091 L124.172992,188.359355 L124.619636,189.635693 C124.870517,190.351588 125.675236,190.735996 126.416476,190.493444 L128.861805,189.693023 C129.603044,189.450839 130.046647,188.584634 129.795386,187.867269 L129.415643,186.7824" id="Fill-27" fill="#FFFFFF"></path>
                <path d="M58.3681716,187.397404 L58.0062532,186.33527 C57.7669378,185.634246 58.192551,184.785928 58.9012926,184.547624 L61.2395878,183.762171 C61.947593,183.524232 62.7163476,183.898501 62.9552948,184.600255 L63.380908,185.848062 L64.6308705,189.513997 L65.524069,192.18176 L67.4043514,197.696379 C68.4323029,200.710998 71.737064,202.324667 74.7848371,201.300545 C77.8333466,200.276057 79.471,197.001569 78.4430485,193.98695 L76.5627661,188.472331 L74.3636421,182.022405 L74.0013554,180.960636 C73.7624083,180.259613 74.1872851,179.411294 74.8963949,179.17299 L77.2343219,178.387537 C77.9426953,178.149233 78.7103454,178.524233 78.9496607,179.225987 L79.3752739,180.473794 L80.6252364,184.139729 L82.4337242,189.49024 L83.4149172,192.367798 C85.2627999,197.787387 82.0707012,203.75705 76.2855285,205.700763 C70.5003558,207.644842 64.3112924,204.827225 62.4634097,199.407636 L61.4822167,196.530078 L59.4126911,190.461 L58.3681716,187.397404" id="Fill-29" fill="#FFFFFF"></path>
                <path d="M162.047765,156.550531 L165.833793,167.652227 L160.839021,169.329849 L155.305849,153.106532 L166.124067,149.472654 C172.976669,147.170471 180.488618,150.88401 182.652848,157.229655 C184.817078,163.576028 181.482588,171.124963 174.415213,173.499169 L165.97893,176.363712 L164.898831,176.726736 C164.18524,176.966448 163.26897,176.454286 162.991523,175.640938 L162.836857,175.188067 L162.672294,174.705005 L162.461186,174.086264 C162.218191,173.374038 162.760989,172.474481 163.574271,172.201303 L164.637144,171.844463 L172.443033,169.190532 C176.891341,167.696241 178.989233,162.946374 177.627656,158.953474 C176.265712,154.960937 171.539591,152.623834 167.227623,154.072656 L161.821996,155.888503 L162.047765,156.550531 Z" id="Fill-31" fill="#FFFFFF"></path>
                <path d="M140.097086,158.574128 L138.470544,159.120445 C137.739044,159.366067 137.797875,160.068788 137.797875,160.068788 L137.797875,160.705056 L137.589932,185.757772 C137.589932,185.757772 137.538872,186.496841 137.909247,186.431856 L142.327846,184.947844 C142.327846,184.947844 142.815883,184.694511 142.838083,183.965355 L142.885074,180.912519 C142.885074,180.912519 142.893214,180.281391 143.36238,179.641085 L145.920595,174.773436 L142.823653,175.813566 L142.775183,164.80096 L142.768152,163.753853 L144.09499,165.482754 L150.067241,173.380476 L153.141243,177.467569 L155.046399,179.864678 C155.510755,180.430454 156.053552,180.337565 156.053552,180.337565 L160.470672,178.854287 C160.805897,178.682094 160.31342,178.125498 160.31342,178.125498 L144.81206,158.349067 L144.423925,157.843504 C144.423925,157.843504 144.04023,157.249825 143.30836,157.495447 L141.682558,158.041764 L140.097086,158.574128 Z" id="Fill-33" fill="#FFFFFF"></path>
                <path d="M188.932437,141.839651 L187.306237,142.385607 C186.574724,142.631232 186.633556,143.333961 186.633556,143.333961 L186.634666,143.969869 L186.425979,169.023245 C186.425979,169.023245 186.374548,169.762323 186.745669,169.697337 L191.163236,168.213674 C191.163236,168.213674 191.650911,167.960339 191.674221,167.230807 L191.720103,164.178303 C191.720103,164.178303 191.728243,163.546801 192.199267,162.90612 L194.757156,158.038781 L191.660161,159.078923 L191.610949,148.066188 L191.603179,147.019437 L192.93004,148.748357 L198.903874,156.645805 L201.977189,160.732945 L203.882748,163.130083 C204.346742,163.695864 204.889549,163.603342 204.889549,163.603342 L209.307485,162.119312 C209.641236,161.947852 209.14912,161.391249 209.14912,161.391249 L193.648602,141.61422 L193.25935,141.108651 C193.25935,141.108651 192.876018,140.515333 192.143766,140.760958 L190.518306,141.306913 L188.932437,141.839651 Z" id="Fill-35" fill="#FFFFFF"></path>
                <path d="M135.634132,197.430627 L133.960731,197.999858 C133.910034,198.017108 133.874506,198.061635 133.869716,198.114186 C133.834188,198.495278 133.6318,199.424742 132.509679,199.806636 C131.409514,200.180508 130.330106,199.612881 129.941296,198.458372 C129.753677,197.901176 129.768846,197.310282 129.979219,196.840937 C130.241486,196.330675 130.601954,196.010557 131.11611,195.835656 L131.166807,195.820011 C131.962391,195.549636 132.756378,195.763048 133.288098,196.393655 C133.323226,196.435776 133.379512,196.45102 133.432604,196.432968 L135.106005,195.863737 C135.143529,195.8509 135.174665,195.820814 135.188637,195.782704 C135.20181,195.744194 135.197419,195.700469 135.175863,195.667173 C134.189866,194.087847 132.31208,193.442397 130.503354,194.057761 C128.409608,194.769801 127.327007,196.987758 128.040358,199.105026 C128.756503,201.231921 130.985575,202.329466 133.115249,201.604589 C134.868088,201.008481 135.949891,199.377005 135.808977,197.546158 C135.806183,197.505642 135.783828,197.468736 135.749099,197.44547 C135.71397,197.422203 135.671656,197.41779 135.634132,197.430627" id="Fill-37" fill="#FFFFFF"></path>
                <path d="M152.935829,189.605954 C152.493686,188.21617 152.187988,187.639541 151.3462,187.176412 C150.572262,186.754953 149.751351,186.948221 149.331203,187.099819 C148.68029,187.33436 148.15091,187.802251 147.841857,188.420154 C147.731135,188.641995 147.663285,188.857884 147.617057,189.045993 C147.482848,188.920984 147.31285,188.782085 147.167457,188.697555 C146.585886,188.363007 145.949512,188.318559 145.272875,188.562227 C144.400145,188.876536 143.966949,189.519043 143.780175,189.987728 L143.742894,189.870656 C143.741776,189.866688 143.739166,189.863116 143.738048,189.859544 L143.730592,189.835733 C143.729473,189.832955 143.727982,189.831765 143.727237,189.828987 C143.658268,189.656752 143.480814,189.440069 143.018912,189.606748 L142.960382,189.627781 C142.958518,189.628575 142.958145,189.630559 142.956281,189.630559 L142.557755,189.774618 C142.555891,189.775411 142.552909,189.774618 142.552536,189.775014 L142.493261,189.796048 C142.488414,189.797635 142.483941,189.801207 142.478721,189.802794 L142.464928,189.807953 C142.4612,189.809541 142.460081,189.811525 142.458963,189.811922 C141.999297,189.994475 142.014582,190.303228 142.069012,190.474272 L142.404906,191.530698 C142.406398,191.535857 142.410499,191.538635 142.413108,191.543794 L143.682128,195.534165 C143.682873,195.536149 143.682128,195.538134 143.683246,195.540515 L144.019141,196.597338 C144.074689,196.772351 144.242077,197.041418 144.741259,196.861643 L144.75468,196.856881 C144.75468,196.856881 144.757663,196.857278 144.758408,196.856881 L145.356756,196.641786 C145.358247,196.640992 145.358247,196.639008 145.359366,196.638611 C145.835807,196.465582 145.836926,196.165164 145.787343,195.986182 C145.786224,195.981023 145.788461,195.976261 145.786597,195.971499 L144.721501,192.621254 C144.57909,192.173205 144.536964,191.770001 144.595493,191.42196 C144.651041,191.11162 144.837815,190.698891 145.404102,190.494908 C145.853329,190.343707 146.222403,190.418712 146.529592,190.718734 C146.804721,191.006454 146.951605,191.389021 147.057853,191.723966 L148.126678,195.084529 C148.127424,195.087307 148.128542,195.087307 148.129288,195.090482 L148.136744,195.113896 C148.192291,195.287322 148.358934,195.550436 148.846559,195.380979 C148.851033,195.380186 148.854388,195.381376 148.859235,195.379392 L149.462429,195.162313 C149.46392,195.161519 149.464293,195.159535 149.466157,195.159138 L149.475477,195.155566 C149.975778,194.975394 149.956019,194.653148 149.900472,194.478136 L149.564577,193.421312 C149.563459,193.418138 149.560103,193.41655 149.558985,193.413772 L148.82009,191.088999 C148.703776,190.723893 148.607966,190.359978 148.683272,189.93455 C148.760442,189.506741 149.05421,189.179733 149.511266,189.015038 C149.954901,188.855106 150.300489,188.909872 150.575244,189.191242 C150.893245,189.455943 151.065107,189.901611 151.192978,190.303228 L152.241671,193.601484 C152.241671,193.602278 152.242417,193.603469 152.242789,193.604262 L152.251364,193.631248 C152.306911,193.805864 152.476537,194.074535 152.975346,193.89476 L152.994359,193.887616 C152.995478,193.887616 152.997714,193.88841 152.997714,193.88841 L153.601281,193.670537 C153.603146,193.67014 153.603891,193.666172 153.608365,193.665378 C154.087789,193.484412 154.069521,193.168913 154.014719,192.995885 L153.678452,191.939061 C153.678079,191.937474 153.67696,191.93668 153.676588,191.936283 L152.935829,189.605954 Z" id="Fill-39" fill="#FFFFFF"></path>
                <path d="M160.681317,181.542608 L159.379868,182.093388 C159.323987,182.1168 159.295412,182.191401 159.314145,182.260844 L161.801471,191.44435 C161.820521,191.514189 161.879577,191.552284 161.93514,191.528475 L163.236589,190.978091 C163.292152,190.954679 163.32168,190.878887 163.30263,190.809445 L160.815621,181.625542 C160.796571,181.556099 160.736563,181.519195 160.681317,181.542608" id="Fill-41" fill="#FFFFFF"></path>
                <path d="M140.595889,191.893666 C140.595157,191.890714 140.592232,191.889608 140.591135,191.887025 C140.524586,191.729842 140.354192,191.535763 139.920163,191.674866 C139.919066,191.675235 139.919066,191.674866 139.918335,191.675235 L139.91285,191.677079 C139.908462,191.678555 139.904074,191.678555 139.897492,191.680769 L139.841913,191.699956 C139.839719,191.700694 139.837891,191.702538 139.835697,191.703276 L139.354133,191.867838 C139.351573,191.868945 139.349379,191.868207 139.347551,191.868576 L139.29124,191.887763 C139.28539,191.889608 139.281368,191.892559 139.275883,191.894773 L139.258697,191.900677 C139.256138,191.901415 139.255041,191.902891 139.253212,191.904366 C138.807482,192.073356 138.821742,192.359678 138.874762,192.517968 L139.204215,193.500172 C139.206043,193.505338 139.208969,193.50829 139.211528,193.513086 L139.943199,195.694451 C140.27704,196.689201 139.999509,197.344865 139.120115,197.645577 L139.097079,197.654802 C138.255712,197.9426 137.699555,197.583959 137.345603,196.529436 L136.295083,193.397229 C136.293621,193.393539 136.291792,193.391325 136.29033,193.388742 C136.232557,193.228608 136.068013,193.000214 135.608022,193.147803 C135.607656,193.147803 135.607291,193.147434 135.606194,193.147803 L135.600343,193.149648 C135.594493,193.151862 135.590105,193.151862 135.58462,193.153707 L135.529041,193.172894 C135.526847,193.173632 135.525384,193.175845 135.523922,193.176214 L135.046014,193.3393 C135.044551,193.339669 135.042357,193.338931 135.040529,193.339669 L134.983487,193.359225 C134.497901,193.525262 134.513624,193.821178 134.567375,193.985371 C134.568106,193.989061 134.566643,193.991274 134.568106,193.994595 L135.744045,197.50094 C136.56201,199.939848 138.292643,199.765324 139.251019,199.444318 L139.287584,199.432142 C140.219632,199.113349 140.645252,198.557308 140.833929,198.04665 L140.883657,198.194977 C140.884754,198.198298 140.888411,198.199405 140.889508,198.202726 C140.950206,198.365811 141.122063,198.584612 141.589001,198.425216 L141.64458,198.406029 C141.646043,198.40566 141.646409,198.407136 141.648603,198.406029 L142.101646,198.25143 C142.105303,198.250323 142.106765,198.248109 142.108959,198.246264 C142.566756,198.083916 142.569316,197.809032 142.520684,197.643732 C142.518856,197.638936 142.521781,197.634508 142.519953,197.629711 L140.937043,192.910185 L140.936311,192.908709 L140.606858,191.926505 C140.606858,191.926136 140.606127,191.92466 140.605761,191.922815 L140.595889,191.893666 Z" id="Fill-43" fill="#FFFFFF"></path>
                <path d="M158.78678,185.640228 C158.786048,185.637276 158.783123,185.63617 158.781295,185.633587 C158.715479,185.476413 158.545453,185.281975 158.112163,185.42107 C158.111066,185.421439 158.110334,185.42107 158.109603,185.421439 L158.10485,185.423284 C158.098634,185.425498 158.094977,185.425129 158.088761,185.427343 L158.03172,185.446897 C158.029892,185.447635 158.02843,185.449111 158.026601,185.449849 L157.544314,185.61477 C157.542486,185.615508 157.540658,185.614401 157.538464,185.615139 L157.482154,185.634325 C157.475938,185.636538 157.472648,185.639121 157.466797,185.641335 L157.449612,185.647238 C157.447052,185.647976 157.446321,185.649452 157.444127,185.650559 C156.997308,185.820277 157.01303,186.106215 157.066049,186.264126 L157.395862,187.246646 C157.397324,187.251442 157.40025,187.254394 157.402078,187.259559 L158.133736,189.440805 C158.467571,190.4355 158.190411,191.091128 157.312495,191.391086 C157.311398,191.391824 157.287631,191.401048 157.287631,191.401048 C156.445913,191.68883 155.890131,191.330578 155.536186,190.275743 L154.485684,187.143708 C154.483856,187.139281 154.481662,187.137067 154.4802,187.13264 C154.422793,186.972514 154.257521,186.747085 153.797904,186.894666 C153.797904,186.894666 153.797538,186.894297 153.796076,186.894666 L153.790591,186.89651 C153.785472,186.898355 153.780719,186.898724 153.7756,186.9002 L153.719656,186.919385 C153.717828,186.920123 153.716365,186.922337 153.714902,186.922706 L153.2381,187.085414 C153.234809,187.086521 153.233346,187.085414 153.232249,187.086152 L153.174843,187.105706 C152.688899,187.271366 152.703891,187.568003 152.757641,187.731818 C152.758738,187.735508 152.757275,187.737721 152.758372,187.741042 L153.934656,191.247195 C154.752606,193.685969 156.482844,193.511454 157.441568,193.190835 L157.477401,193.178659 C158.409799,192.859885 158.837605,192.302767 159.024815,191.792875 L159.074543,191.941194 C159.075275,191.943776 159.078931,191.945621 159.079662,191.948204 C159.141091,192.110174 159.310751,192.331545 159.780606,192.171051 L159.834722,192.152603 C159.836184,192.151865 159.837647,192.152972 159.838012,192.152972 L160.292876,191.997643 C160.294704,191.996906 160.298361,191.993954 160.300555,191.992109 C160.756515,191.830508 160.760172,191.55527 160.71081,191.389979 C160.709713,191.385183 160.712638,191.380755 160.71081,191.375959 L159.127928,186.656691 L159.127196,186.655216 L158.797749,185.673065 C158.797749,185.672696 158.797018,185.67122 158.796652,185.669375 L158.78678,185.640228 Z" id="Fill-45" fill="#FFFFFF"></path>
                <path d="M168.874487,185.183995 C169.065185,185.75326 169.0244,186.30505 168.754336,186.8732 C168.483537,187.438747 168.09075,187.804251 167.556134,187.98719 C166.963464,188.190207 166.408271,188.151909 165.85712,187.867834 C165.306337,187.585618 164.937066,187.142401 164.726527,186.512529 C164.527377,185.917607 164.561916,185.36024 164.83198,184.808451 C165.103146,184.25629 165.515774,183.8919 166.091543,183.694833 C166.65188,183.502971 167.194212,183.550936 167.747567,183.842819 C168.293574,184.133215 168.673868,184.583868 168.874487,185.183995 L168.874487,185.183995 Z M169.249637,181.747209 C169.249637,181.747209 169.249269,181.745722 169.249269,181.74535 C169.186071,181.595132 169.023665,181.416284 168.628306,181.529319 C168.62206,181.530807 168.618018,181.528947 168.612139,181.531178 L168.581642,181.541218 C168.5776,181.542705 168.574293,181.543449 168.568414,181.545308 L168.513667,181.564271 C168.51183,181.565015 168.511095,181.565758 168.50889,181.566502 L168.353098,181.619673 C168.350894,181.620417 168.349791,181.620417 168.348321,181.620788 L168.292104,181.640123 C168.287327,181.641611 168.284755,181.64347 168.281081,181.644213 L168.274467,181.646444 C168.273365,181.646816 168.272998,181.647188 168.270058,181.647932 C167.814808,181.814882 167.829872,182.102675 167.88315,182.26256 L167.944879,182.44587 C167.614924,182.304204 167.276517,182.217197 166.937008,182.192657 C166.507846,182.160308 166.064353,182.223146 165.618656,182.375967 C165.12409,182.545147 164.703378,182.782744 164.369381,183.082064 C164.036486,183.381384 163.759808,183.76548 163.547432,184.223941 C163.355264,184.641129 163.245034,185.090667 163.221518,185.562886 C163.199104,186.03213 163.265242,186.50472 163.419565,186.964669 C163.75099,187.956328 164.35946,188.680645 165.226604,189.118284 C166.093013,189.558526 167.027397,189.611697 168.004403,189.277053 C168.422911,189.133529 168.796958,188.914151 169.112216,188.625243 C169.360602,188.398057 169.572611,188.12774 169.745305,187.822099 L169.809973,188.016192 L169.81328,188.025488 C169.814015,188.027347 169.81475,188.028462 169.815485,188.030321 C169.874641,188.191694 170.041089,188.419623 170.5092,188.259366 L170.549985,188.245237 L170.564315,188.240775 L170.569091,188.238916 L170.727088,188.184629 L170.763831,188.172359 L170.782203,188.166038 C171.262806,188.001319 171.244435,187.70423 171.190422,187.543602 L170.868182,186.579457 C170.867448,186.57797 170.86561,186.578714 170.86561,186.57797 L169.589513,182.763409 C169.588778,182.760063 169.589513,182.755973 169.588411,182.752254 L169.266171,181.788482 C169.262497,181.777327 169.258088,181.766544 169.252943,181.756133 L169.249637,181.747209 Z" id="Fill-47" fill="#FFFFFF"></path>
                <path d="M125.947087,200.876731 C126.137407,201.446018 126.098094,201.997457 125.826943,202.566001 C125.556526,203.13157 125.163762,203.496717 124.629543,203.679663 C124.03617,203.883059 123.481744,203.844388 122.929889,203.560674 C122.379504,203.278447 122.009886,202.835214 121.798991,202.205316 C121.600221,201.610372 121.635125,201.052611 121.905541,200.5008 C122.177059,199.948246 122.589664,199.584214 123.165034,199.387139 C123.724971,199.195269 124.266539,199.243608 124.820598,199.535131 C125.366574,199.82591 125.746112,200.27658 125.947087,200.876731 L125.947087,200.876731 Z M126.324053,197.439067 C126.324053,197.439067 126.322583,197.437952 126.322583,197.43758 C126.257918,197.2881 126.096257,197.108873 125.70092,197.221913 C125.696144,197.222656 125.691,197.221541 125.685489,197.2234 L125.653891,197.233811 C125.649482,197.235299 125.64691,197.236042 125.641399,197.237902 L125.587022,197.256494 C125.58445,197.257609 125.583715,197.258353 125.581878,197.258725 L125.426462,197.311898 C125.424625,197.312642 125.422788,197.312642 125.420584,197.313385 L125.366206,197.331977 C125.360328,197.334208 125.357756,197.335696 125.353347,197.336811 L125.347101,197.339042 C125.346734,197.339042 125.345264,197.339414 125.343427,197.340158 C124.888202,197.507114 124.903633,197.794918 124.957275,197.954438 L125.018633,198.138127 C124.687227,197.996828 124.349941,197.909817 124.010452,197.884904 C123.58168,197.852182 123.138212,197.915395 122.691438,198.068221 C122.198002,198.237408 121.776579,198.475386 121.443335,198.773974 C121.109724,199.073677 120.833062,199.457788 120.621799,199.916267 C120.42854,200.333472 120.317948,200.783399 120.294067,201.255636 C120.272389,201.724898 120.339626,202.196764 120.493572,202.657102 C120.825346,203.648428 121.43268,204.373517 122.299041,204.811173 C123.166871,205.25106 124.101203,205.304233 125.077052,204.969949 C125.495903,204.826418 125.868828,204.607032 126.185905,204.317741 C126.433174,204.09129 126.645539,203.82059 126.818958,203.514566 L126.883623,203.708666 L126.88693,203.717962 C126.887665,203.719822 126.888767,203.720937 126.889502,203.722796 C126.94792,203.884175 127.113624,204.112485 127.581341,203.952222 L127.622859,203.938092 L127.637188,203.933258 L127.641597,203.931771 L127.799584,203.877482 L127.837428,203.864467 L127.855064,203.858518 C128.33564,203.693793 128.31727,203.396692 128.26326,203.236057 L127.941038,202.271875 C127.940304,202.270388 127.939936,202.27076 127.939936,202.270388 L126.66391,198.455307 C126.662808,198.45196 126.663543,198.44787 126.662073,198.444152 L126.339852,197.480713 C126.336177,197.469186 126.331034,197.459147 126.326992,197.447991 L126.324053,197.439067 Z" id="Fill-49" fill="#FFFFFF"></path>
                <path d="M196.740069,176.208958 C196.93077,176.778252 196.890351,177.329697 196.619549,177.898247 C196.348747,178.463822 195.956322,178.828973 195.420964,179.012292 C194.828652,179.215319 194.273085,179.177019 193.721192,178.89293 C193.171504,178.6107 192.80186,178.167462 192.591318,177.537558 C192.392166,176.942607 192.427073,176.384841 192.696405,175.833396 C192.967943,175.281207 193.380944,174.916428 193.957088,174.71935 C194.517432,174.527479 195.059037,174.575819 195.611664,174.868088 C196.159148,175.158127 196.539447,175.60843 196.740069,176.208958 L196.740069,176.208958 Z M197.115591,172.77163 C197.115591,172.77163 197.114122,172.770515 197.113754,172.770143 C197.050187,172.62029 196.887044,172.441433 196.493517,172.554101 C196.487638,172.555217 196.482127,172.554101 196.47735,172.555589 L196.44575,172.566372 C196.442444,172.567488 196.438034,172.568603 196.433625,172.570091 L196.379244,172.588683 C196.378509,172.589055 196.376305,172.59017 196.37557,172.590542 L196.217938,172.64446 C196.216101,172.645203 196.215366,172.644831 196.213162,172.645575 L196.156944,172.664911 C196.152167,172.666398 196.149962,172.667886 196.146288,172.668629 L196.139674,172.671232 C196.137837,172.671976 196.137102,172.671976 196.135632,172.672348 C195.679641,172.839678 195.695808,173.127113 195.749087,173.287006 L195.810816,173.470326 C195.478652,173.329397 195.142445,173.242013 194.801829,173.217472 C194.373028,173.184749 193.929162,173.247963 193.483827,173.400419 C192.988887,173.56998 192.568537,173.807588 192.234535,174.106551 C191.901268,174.406258 191.624954,174.790001 191.413309,175.248485 C191.220036,175.666066 191.10907,176.115997 191.086656,176.587868 C191.06314,177.057507 191.130749,177.529377 191.284706,177.989721 C191.616503,178.981057 192.223512,179.706154 193.090667,180.143442 C193.958558,180.583334 194.893689,180.636508 195.868872,180.302592 C196.288119,180.158688 196.66107,179.939672 196.977434,179.650377 C197.225088,179.423552 197.4371,179.153221 197.610164,178.847193 L197.674833,179.041296 L197.67814,179.050592 C197.678875,179.052451 197.679977,179.053567 197.680712,179.055426 C197.73987,179.216806 197.905585,179.445119 198.374804,179.284482 L198.41559,179.26998 L198.42992,179.265518 L198.433594,179.264031 L198.592695,179.20937 L198.629072,179.197099 L198.646709,179.191149 C199.128421,179.02605 199.108947,178.729319 199.055301,178.568682 L198.732689,177.60449 C198.732322,177.603002 198.731587,177.603374 198.731587,177.602631 L197.45584,173.787881 C197.454737,173.784534 197.454737,173.780816 197.453635,173.777097 L197.131024,172.813277 C197.127349,172.802122 197.12294,172.791338 197.118898,172.780555 L197.115591,172.77163 Z" id="Fill-51" fill="#FFFFFF"></path>
                <path d="M212.149227,171.460809 C212.339927,172.030084 212.299141,172.582255 212.029075,173.150043 C211.75717,173.716343 211.365849,174.080738 210.830124,174.264423 C210.238181,174.467072 209.682982,174.428773 209.130723,174.145065 C208.581036,173.862473 208.211393,173.419621 208.000851,172.789366 C207.801699,172.194806 207.835504,171.63743 208.105571,171.085631 C208.377842,170.533088 208.790108,170.168693 209.365883,169.971622 C209.926961,169.779757 210.46783,169.828095 211.021559,170.119983 C211.568307,170.410012 211.948606,170.860672 212.149227,171.460809 L212.149227,171.460809 Z M212.524381,168.023966 C212.524381,168.023966 212.523646,168.02285 212.523646,168.022106 C212.459344,167.87263 212.297672,167.693407 211.903411,167.806072 C211.897164,167.807187 211.892755,167.8057 211.887611,167.807559 L211.856011,167.818342 C211.851602,167.81983 211.848662,167.820202 211.843518,167.822061 L211.78877,167.841024 C211.787668,167.841396 211.785463,167.842511 211.785096,167.842883 L211.627832,167.896427 C211.62526,167.897171 211.623423,167.897543 211.623423,167.897543 L211.567205,167.916878 C211.562428,167.918365 211.558754,167.920224 211.555814,167.920968 L211.548465,167.923571 C211.547731,167.923943 211.546261,167.924315 211.544791,167.924686 C211.0888,168.092011 211.1046,168.379437 211.157879,168.539325 L211.219608,168.722638 C210.888547,168.581342 210.551973,168.493961 210.211358,168.46942 C209.782558,168.437071 209.339428,168.499911 208.892623,168.652734 C208.398786,168.821917 207.977335,169.05989 207.643701,169.358843 C207.310802,169.658168 207.034489,170.041898 206.822844,170.500739 C206.629939,170.917935 206.518973,171.367851 206.496192,171.839706 C206.473043,172.30933 206.539917,172.781557 206.694241,173.241513 C207.02567,174.233189 207.633413,174.95789 208.499832,175.395537 C209.36772,175.835414 210.302116,175.888586 211.278031,175.554309 C211.69691,175.410782 212.070595,175.191401 212.386959,174.902115 C212.634612,174.675298 212.846257,174.404976 213.01932,174.09933 L213.083989,174.293054 L213.087296,174.30235 C213.088031,174.304581 213.090236,174.305325 213.090603,174.307184 C213.149761,174.468559 213.31474,174.696864 213.784326,174.536233 L213.825112,174.522103 L213.837972,174.518013 L213.843851,174.515782 L214.00185,174.461494 L214.038593,174.448852 L214.056598,174.443275 C214.537574,174.278181 214.518835,173.981087 214.464822,173.820456 L214.142211,172.856295 C214.141843,172.854808 214.140374,172.855552 214.140374,172.854808 L212.864261,169.040183 C212.863159,169.036836 212.864261,169.032746 212.863159,169.029028 L212.540916,168.065239 C212.537241,168.054084 212.532465,168.043673 212.527688,168.03289 L212.524381,168.023966 Z" id="Fill-53" fill="#FFFFFF"></path>
                <path d="M187.863948,179.083871 C188.070545,179.668473 188.026274,180.235499 187.73313,180.819336 C187.43839,181.401646 187.012035,181.776479 186.430931,181.964851 C185.789603,182.172709 185.185366,182.133353 184.587112,181.842963 C183.991252,181.551808 183.588826,181.096354 183.360293,180.450235 C183.144124,179.837358 183.181615,179.264219 183.47436,178.698339 C183.768701,178.130167 184.21779,177.755334 184.842367,177.552825 C185.450193,177.356047 186.038077,177.40572 186.639921,177.706809 C187.232192,178.003695 187.646184,178.466791 187.863948,179.083871 M187.671709,175.188053 L187.610687,175.20754 C187.609092,175.208304 187.607098,175.20945 187.604306,175.210214 L187.444373,175.262179 C187.443974,175.262561 187.441581,175.262561 187.440783,175.262943 L187.377767,175.283576 C186.860477,175.450933 186.861673,175.744762 186.915915,175.918997 C186.916314,175.919761 186.916314,175.919761 186.916314,175.920907 L186.918707,175.927021 C186.920302,175.931988 186.920302,175.935427 186.922297,175.940012 L186.994885,176.146342 C186.613199,175.994651 186.222738,175.904859 185.835469,175.877348 C185.35208,175.844106 184.853136,175.909826 184.356984,176.070687 C183.802203,176.250653 183.329982,176.502834 182.955076,176.821882 C182.580569,177.139019 182.270674,177.547476 182.03217,178.035408 C181.814804,178.479782 181.690766,178.959309 181.665241,179.459086 C181.640114,179.959246 181.715893,180.460933 181.888988,180.951541 C182.261102,182.004588 182.942712,182.774887 183.917068,183.241805 C184.891823,183.708722 185.941559,183.763743 187.036364,183.408779 C187.506591,183.256324 187.926166,183.023248 188.282327,182.715663 C188.561512,182.473798 188.797623,182.187229 188.993052,181.862068 C189.148997,182.429475 189.103131,182.951414 188.859841,183.418714 C188.583448,183.939506 188.100059,184.31625 187.420841,184.536717 C187.031976,184.66319 186.653481,184.69605 186.298517,184.638354 C185.942756,184.579894 185.618103,184.430495 185.328548,184.193598 C185.291855,184.164559 185.2424,184.154624 185.198528,184.169144 L183.838497,184.610079 C183.797816,184.62307 183.76551,184.655548 183.753147,184.695286 C183.74158,184.734259 183.749158,184.776671 183.776279,184.809531 C184.274824,185.42088 184.898204,185.826662 185.630068,186.015416 C186.358343,186.203024 187.150829,186.160611 187.983998,185.890472 C189.139026,185.516403 189.935103,184.866845 190.353482,183.960521 C190.768271,183.056872 190.763086,181.987012 190.336332,180.779217 L188.451034,175.444437 L188.450636,175.442909 C188.390411,175.272496 188.208542,175.014201 187.671709,175.188053" id="Fill-55" fill="#FFFFFF"></path>
                <path d="M201.905709,171.332987 C201.498157,171.469352 201.155518,171.666972 200.88812,171.919283 C200.750916,172.048356 200.62736,172.197117 200.519294,172.361922 L200.460651,172.19019 C200.416761,172.06294 200.276976,171.994029 200.148993,172.037053 L199.545595,172.238683 C199.544488,172.239048 199.542276,172.238683 199.5408,172.239412 L199.485476,172.258008 C198.871013,172.463649 198.944409,172.879306 198.989406,173.018588 C198.990144,173.020776 198.989037,173.024422 198.990144,173.026974 L200.943075,178.730232 L200.950082,178.751379 C200.993972,178.879358 201.186868,179.280066 201.81756,179.069321 L201.871039,179.05109 L201.87399,179.050361 L201.878416,179.048902 L202.525336,178.832323 C202.655162,178.788934 202.724133,178.650746 202.680611,178.523132 L201.692159,175.63723 C201.408163,174.806644 201.322596,174.172584 201.437301,173.752916 C201.541309,173.36424 201.835263,173.093698 202.333546,172.92707 C202.79089,172.773933 203.158978,172.79581 203.457726,172.994159 C203.77381,173.201988 204.040839,173.622385 204.252176,174.240767 L205.406231,177.611238 C205.450121,177.738488 205.591013,177.80667 205.719733,177.763646 L206.378455,177.542691 L206.434885,177.524096 L206.463285,177.514616 C206.467342,177.513158 206.470292,177.510241 206.475825,177.508418 C207.047504,177.297672 206.974846,176.893317 206.932431,176.759505 C206.932431,176.759505 206.932062,176.758411 206.931693,176.757682 L205.797924,173.445548 C205.467456,172.480056 204.958477,171.803337 204.288321,171.435808 C203.613002,171.065727 202.810069,171.03036 201.905709,171.332987" id="Fill-57" fill="#FFFFFF"></path>
                <path d="M178.478703,179.067725 C178.478309,179.067725 178.476732,179.066973 178.475155,179.067349 L178.367524,179.101952 L178.302867,179.122638 L177.6421,179.336273 C177.590453,179.353198 177.555759,179.397956 177.554182,179.450236 L177.271109,185.040832 L173.647144,180.715492 C173.613238,180.673743 173.5541,180.656442 173.502847,180.672991 L172.786491,180.904302 L172.72144,180.924989 L172.709218,180.929126 C172.496716,180.997955 172.260953,181.077692 172.192354,181.266127 C172.153717,181.374072 172.178555,181.494429 172.275541,181.635097 L172.280666,181.641867 C172.28106,181.642995 172.28106,181.642995 172.28106,181.643747 L177.062155,187.260672 L177.003412,188.411588 C177.003806,188.414597 177.000258,188.417606 177.000258,188.420615 L176.965169,189.626068 C176.976997,189.780276 177.034558,189.889726 177.133515,189.954042 C177.279388,190.045438 177.467841,190.009707 177.648802,189.95517 C177.649985,189.954794 177.652745,189.955923 177.65511,189.95517 L177.771415,189.917935 L177.835284,189.897248 L178.489348,189.685871 C178.539812,189.669698 178.574901,189.625316 178.578055,189.574164 L179.140258,180.605666 C179.141441,180.595511 179.140652,180.587236 179.13947,180.577833 L179.138681,180.572192 L179.174952,179.393818 C179.161942,179.239235 179.104775,179.129409 179.004241,179.066221 C178.856791,178.972568 178.663213,179.012436 178.478703,179.067725" id="Fill-59" fill="#FFFFFF"></path>
            </g>
        </g>
    </g>
</svg>