<?xml version="1.0" encoding="UTF-8"?>
<svg width="28px" height="36px" viewBox="0 0 28 36" version="1.1" xmlns="http://www.w3.org/2000/svg" xmlns:xlink="http://www.w3.org/1999/xlink">
    <!-- Generator: Sketch 64 (93537) - https://sketch.com -->
    <title>place icon off</title>
    <desc>Created with Sketch.</desc>
    <defs>
        <polygon id="path-1" points="3.73333333e-05 0.142909091 27.9973867 0.142909091 27.9973867 35.9997818 3.73333333e-05 35.9997818"></polygon>
    </defs>
    <g id="Page-1" stroke="none" stroke-width="1" fill="none" fill-rule="evenodd">
        <g id="iPhone-11---Perfil" transform="translate(-359.000000, -845.000000)">
            <g id="barra-navegación-copy-4" transform="translate(-68.000000, 812.000000)">
                <g id="place-icon-off" transform="translate(427.000000, 33.000000)">
                    <g id="Group-3">
                        <mask id="mask-2" fill="white">
                            <use xlink:href="#path-1"></use>
                        </mask>
                        <g id="Clip-2"></g>
                        <path d="M13.9989173,2.14269091 C7.411824,2.14269091 2.05337067,7.36232727 2.05337067,13.7776 C2.05337067,16.9277818 5.14009067,23.4837818 10.7441973,32.2383273 C11.4501707,33.3412364 12.6672373,33.9997818 13.9989173,33.9997818 C15.3305973,33.9997818 16.547664,33.3412364 17.2540107,32.2383273 C22.857744,23.4841455 25.9440907,16.9281455 25.9440907,13.7776 C25.9440907,7.36232727 20.5856373,2.14269091 13.9989173,2.14269091 M13.9989173,35.9997818 C11.953424,35.9997818 10.0856373,34.9892364 9.00185067,33.2965091 C4.895184,26.8816 3.73333333e-05,18.2881455 3.73333333e-05,13.7776 C3.73333333e-05,6.25905455 6.27987733,0.142690909 13.9989173,0.142690909 C21.7179573,0.142690909 27.997424,6.25905455 27.997424,13.7776 C27.997424,18.2885091 23.1026507,26.8819636 18.9963573,33.2965091 C17.9121973,34.9892364 16.0444107,35.9997818 13.9989173,35.9997818" id="Fill-1" fill="#999999" mask="url(#mask-2)"></path>
                    </g>
                    <path d="M14,9.02652911 C11.2579219,9.02652911 9.02652911,11.2579219 9.02652911,14 C9.02652911,16.7420781 11.2579219,18.9734709 14,18.9734709 C16.7420781,18.9734709 18.9734709,16.7420781 18.9734709,14 C18.9734709,11.2579219 16.7420781,9.02652911 14,9.02652911 M14,21 C10.1400147,21 7,17.8599853 7,14 C7,10.1400147 10.1400147,7 14,7 C17.8599853,7 21,10.1400147 21,14 C21,17.8599853 17.8599853,21 14,21" id="Fill-4" fill="#999999"></path>
                </g>
            </g>
        </g>
    </g>
</svg>