<?xml version="1.0" encoding="UTF-8"?>
<svg width="33px" height="34px" viewBox="0 0 33 34" version="1.1" xmlns="http://www.w3.org/2000/svg" xmlns:xlink="http://www.w3.org/1999/xlink">
    <!-- Generator: Sketch 64 (93537) - https://sketch.com -->
    <title>facebok logo</title>
    <desc>Created with Sketch.</desc>
    <defs>
        <polygon id="path-1" points="4.07407407e-05 0.395701235 32.6162222 0.395701235 32.6162222 33.9998741 4.07407407e-05 33.9998741"></polygon>
    </defs>
    <g id="Page-1" stroke="none" stroke-width="1" fill="none" fill-rule="evenodd">
        <g id="iPhone-11---Login" transform="translate(-19.000000, -281.000000)">
            <g id="facebok-logo" transform="translate(19.000000, 280.967742)">
                <g id="Group-3" transform="translate(0.000000, 0.032258)">
                    <mask id="mask-2" fill="white">
                        <use xlink:href="#path-1"></use>
                    </mask>
                    <g id="Clip-2"></g>
                    <path d="M4.07407407e-05,32.2356519 L4.07407407e-05,2.15992346 C0.0179666667,2.09318272 0.0420037037,2.02812099 0.0530037037,1.96054074 C0.188262963,1.15713333 0.740707407,0.587948148 1.51844815,0.450688889 C1.58444815,0.438935802 1.6480037,0.41417037 1.71237407,0.395701235 L30.9035222,0.395701235 C30.9683,0.41417037 31.0318556,0.438935802 31.0974481,0.450688889 C31.8760037,0.588367901 32.4288556,1.15797284 32.5624852,1.96012099 C32.5734852,2.02770123 32.5979296,2.09318272 32.616263,2.15992346 L32.616263,32.2637753 C32.5979296,32.3200222 32.5730778,32.3754296 32.5633,32.4333556 C32.4239667,33.2430593 31.8776333,33.8059481 31.0950037,33.9453062 C31.0391889,33.9558 30.9854111,33.9814049 30.9308185,33.9998741 L22.5321148,33.9998741 C22.533337,33.8974543 22.5353741,33.7950346 22.5353741,33.6921951 C22.5357815,29.5244667 22.5357815,25.3567383 22.5357815,21.1894296 L22.5357815,20.9862691 L22.7130037,20.9862691 L26.5177815,20.9862691 C26.779337,20.9862691 26.7732259,20.9854296 26.8045963,20.7176272 C26.8860778,20.0145407 26.9712259,19.3118741 27.0588185,18.6100469 C27.1639296,17.7692815 27.2731148,16.9293556 27.3790407,16.0890099 C27.4030778,15.8980222 27.4002259,15.8971827 27.204263,15.8971827 L22.7199296,15.8971827 L22.5427074,15.8971827 C22.5398556,15.8484914 22.5357815,15.8165901 22.5357815,15.7851086 C22.5357815,14.7159975 22.5296704,13.6473062 22.540263,12.5786148 C22.5431148,12.2873062 22.5744852,11.9913802 22.6298926,11.7059481 C22.7680037,10.9948864 23.1790778,10.5222444 23.8728926,10.3656765 C24.2322259,10.2842444 24.6058185,10.2426889 24.9741148,10.2342938 C25.7844481,10.2154049 26.5955963,10.225479 27.4067444,10.2309358 C27.5379296,10.2321951 27.5754111,10.1910593 27.5741889,10.057158 C27.5688926,9.28691111 27.5717444,8.51708395 27.5717444,7.74683704 C27.5717444,7.09370123 27.5697074,6.44014568 27.5733741,5.78659012 C27.5741889,5.67325679 27.5367074,5.63044198 27.4263,5.62498519 C27.2278926,5.61449136 27.0303,5.57965185 26.8314852,5.57251605 C25.7636704,5.53263951 24.6958556,5.4835284 23.6276333,5.46715802 C22.6954852,5.45204691 21.7902259,5.62498519 20.9253,5.99520741 C19.6309667,6.54928148 18.679263,7.47819506 18.0726333,8.77733086 C17.6261148,9.73478765 17.4285222,10.7560469 17.4134481,11.8108864 C17.3951148,13.1221951 17.4048926,14.4335037 17.4028556,15.7448123 C17.4028556,15.7935037 17.4028556,15.8426148 17.4028556,15.8971827 L17.2199296,15.8971827 C15.9154111,15.8971827 14.6108926,15.8992815 13.3063741,15.8942444 C13.1707074,15.8938247 13.128337,15.9299235 13.1287444,16.0738988 C13.1336333,17.6513309 13.1315963,19.2291827 13.1320037,20.8061951 C13.1320037,20.9858494 13.1328185,20.9862691 13.3137074,20.9862691 L17.2276704,20.9862691 L17.4028556,20.9862691 L17.4028556,21.1474543 C17.4028556,25.3617753 17.4028556,29.5760963 17.4024481,33.7904173 C17.4024481,33.8600963 17.3975593,33.9301951 17.3951148,33.9998741 L1.68507778,33.9998741 C1.63048519,33.9814049 1.57711481,33.9558 1.52089259,33.9453062 C0.738262963,33.8051086 0.189485185,33.2405407 0.0534111111,32.4350346 C0.0420037037,32.3674543 0.0179666667,32.3019728 4.07407407e-05,32.2356519" id="Fill-1" fill="#295CA9" mask="url(#mask-2)"></path>
                </g>
                <path d="M17.4301481,34.0322581 C17.4326864,33.9614411 17.4373399,33.8901975 17.437763,33.8193805 C17.437763,29.5362335 17.437763,25.2530865 17.438186,20.9699395 L17.438186,20.8061219 L17.256276,20.8061219 L13.1920662,20.8061219 C13.0038104,20.8061219 13.0033874,20.8056953 13.0033874,20.6231069 C13.0029643,19.0203397 13.0050796,17.4167192 13,15.8135253 C12.99958,15.6671987 13.0435768,15.6305103 13.1844514,15.630937 C14.5390469,15.6360563 15.8936425,15.6339232 17.2482381,15.6339232 L17.438186,15.6339232 C17.438186,15.5784641 17.437763,15.528551 17.438186,15.4790644 C17.4403013,14.1463402 17.4297251,12.8136159 17.4491853,11.4808917 C17.4644149,10.4088251 17.6695926,9.37046059 18.1336748,8.39779374 C18.7635914,7.07701453 19.7518285,6.13335704 21.0954248,5.57023413 C21.993976,5.19396563 22.9335628,5.01820302 23.9014937,5.03313431 C25.0111452,5.04977204 26.1199506,5.10011181 27.228756,5.14021299 C27.4347798,5.14789194 27.6399574,5.18330043 27.8464042,5.19353902 C27.9610499,5.19951154 28,5.24302558 27.9991241,5.35820982 C27.9948936,6.02243889 27.9974319,6.68624136 27.9974319,7.35047044 C27.9974319,8.13329661 27.9940475,8.91569618 28,9.69852235 C28.0012393,9.83461039 27.962319,9.876418 27.8256749,9.87513818 C26.983812,9.86959227 26.141526,9.85935367 25.3000861,9.87855104 C24.9176518,9.88708321 24.529718,9.92931743 24.1565908,10.0120794 C23.4357192,10.1712043 23.0092881,10.6515652 22.8658753,11.3742396 C22.808341,11.6643333 22.7753433,11.9646655 22.772382,12.2611582 C22.7618058,13.3473029 22.7681515,14.4334475 22.7681515,15.5195922 C22.7681515,15.5520144 22.7719589,15.5844367 22.7753433,15.6339232 L22.9589456,15.6339232 L27.6158438,15.6339232 C27.8193292,15.6339232 27.8222905,15.6347764 27.7973308,15.8288832 C27.6873386,16.6829529 27.5735391,17.5365961 27.4648161,18.3910925 C27.373861,19.1043815 27.2850212,19.8185237 27.2004119,20.532666 C27.1682603,20.8052687 27.174606,20.8061219 26.90301,20.8061219 L22.9517538,20.8061219 L22.7677285,20.8061219 L22.7677285,21.0121737 C22.7677285,25.2479672 22.7677285,29.4837607 22.7677285,33.7195542 C22.7677285,33.8240732 22.7656132,33.9281656 22.7643441,34.0322581 L17.4301481,34.0322581 Z" id="Fill-4" fill="#FFFFFF"></path>
            </g>
        </g>
    </g>
</svg>