<?xml version="1.0" encoding="UTF-8"?>
<svg width="15px" height="20px" viewBox="0 0 15 20" version="1.1" xmlns="http://www.w3.org/2000/svg" xmlns:xlink="http://www.w3.org/1999/xlink">
    <!-- Generator: Sketch 64 (93537) - https://sketch.com -->
    <title>Password icon</title>
    <desc>Created with Sketch.</desc>
    <g id="Page-1" stroke="none" stroke-width="1" fill="none" fill-rule="evenodd">
        <g id="iPhone-11---Login" transform="translate(-50.000000, -498.000000)" fill="#003DA6">
            <g id="Password-icon" transform="translate(50.000000, 498.000000)">
                <path d="M14.089947,17.4975078 C14.089947,17.71843 14.007272,17.9178405 13.8733575,18.061935 C13.7407004,18.2077369 13.557118,18.2975399 13.3537314,18.2975399 L1.64658298,18.2975399 C1.44445376,18.2975399 1.25961397,18.2077369 1.1266425,18.061935 C0.993042312,17.9178405 0.910053021,17.71843 0.910053021,17.4975078 L0.910053021,9.94927567 C0.910053021,9.72903638 0.993042312,9.52928447 1.1266425,9.38416556 C1.25961397,9.23972956 1.44445376,9.15026802 1.64658298,9.15026802 L3.71377077,9.15026802 L11.2925163,9.15026802 L13.3537314,9.15026802 C13.557118,9.15026802 13.7407004,9.23972956 13.8733575,9.38416556 C14.007272,9.52928447 14.089947,9.72903638 14.089947,9.94927567 L14.089947,17.4975078 Z M10.8370183,6.98680113 L10.8370183,8.16038631 L4.16832575,8.16038631 L4.16832575,6.98680113 C4.16832575,5.98701719 4.54209192,5.08045081 5.14470734,4.42622061 C5.74858017,3.77062459 6.58193097,3.365316 7.50330071,3.365316 C8.42341304,3.365316 9.25676384,3.77062459 9.86063667,4.42622061 C10.4638808,5.08045081 10.8370183,5.98701719 10.8370183,6.98680113 L10.8370183,6.98680113 Z M2.23662426,6.98680113 C2.23788168,6.21681726 2.3799694,5.47893027 2.63805352,4.8042127 C2.9058826,4.10422736 3.29788126,3.47424055 3.78324287,2.94703208 C4.26923319,2.42050652 4.85047258,1.99402765 5.49615441,1.70344837 C6.11700233,1.42379569 6.79631997,1.26979891 7.50487248,1.26979891 C8.21499675,1.27082328 8.89337134,1.42516151 9.51421925,1.7054971 C10.158958,1.99641784 10.73894,2.4222138 11.2239873,2.94942227 C11.7093489,3.47731366 12.1013475,4.10866629 12.3688623,4.81001745 C12.6263177,5.48302775 12.7684054,6.22125619 12.7684054,6.99192298 L12.7684054,8.16038631 L11.7480143,8.16038631 L11.7480143,6.98680113 C11.7480143,5.71419364 11.2720833,4.56041292 10.504118,3.72589382 C9.73583838,2.89171616 8.67458139,2.37577575 7.50330071,2.37577575 C6.33076262,2.37577575 5.26919127,2.89171616 4.50154033,3.72589382 C3.73326068,4.56041292 3.25827273,5.71419364 3.25827273,6.98680113 L3.25827273,8.16038631 L2.23662426,8.16038631 L2.23662426,6.98680113 Z M14.5168389,8.68520459 C14.2914475,8.44038045 14.0003563,8.26623775 13.6753149,8.19487339 L13.6753149,6.99192298 C13.6753149,6.08467368 13.5087076,5.21942351 13.2085001,4.43031809 C12.8950898,3.61150597 12.4364482,2.87259461 11.8674686,2.25387586 C11.2975459,1.63481566 10.6175996,1.13424078 9.86252279,0.793467425 C9.13730955,0.466352324 8.3407381,0.285714286 7.50487248,0.285714286 C6.66994991,0.284356136 5.87306411,0.465327955 5.14785087,0.792443056 C4.39308842,1.13219204 3.71282771,1.63037673 3.14290504,2.24807111 C2.57298238,2.86713131 2.11214033,3.60604267 1.79873001,4.42622061 C1.49726513,5.21361876 1.33097219,6.07921038 1.32971478,6.98680113 L1.32971478,8.19350757 C1.00310162,8.2635061 0.709809921,8.43901462 0.483161138,8.68520459 C0.184839785,9.00924658 0,9.45621283 0,9.94927567 L0,17.4975078 C0,17.9912536 0.184839785,18.4382198 0.483161138,18.760896 C0.781482491,19.084938 1.19297106,19.2857143 1.64658298,19.2857143 L13.3537314,19.2857143 C13.8070289,19.2857143 14.2197749,19.084938 14.5168389,18.760896 C14.8151602,18.4382198 15,17.9912536 15,17.4975078 L15,9.94927567 C15,9.45621283 14.8151602,9.00924658 14.5168389,8.68520459 L14.5168389,8.68520459 Z" id="Fill-1"></path>
                <path d="M8.92600282,12.5376772 C8.84959721,12.6729702 8.73831077,12.7889355 8.60343825,12.8762116 C8.46524375,12.9656015 8.3951499,13.1096523 8.40279047,13.252797 L8.40179387,15.2779631 C8.40179387,15.3132963 8.38418736,15.3477235 8.3562827,15.373393 L8.34532016,15.3842647 C8.31841209,15.4026863 8.28585666,15.414464 8.25164023,15.414464 L7.74536999,15.414464 C7.70517399,15.414464 7.66763558,15.3990624 7.64039532,15.3746009 C7.61282286,15.3489315 7.59521634,15.3145043 7.59521634,15.2779631 L7.59754173,15.2770571 L7.59521634,15.2770571 L7.59621294,13.2313555 C7.59621294,13.0842849 7.51648534,12.9547298 7.39556515,12.8750036 C7.26036044,12.7889355 7.1494062,12.6717622 7.07399718,12.5364693 C6.99925255,12.4069142 6.95839216,12.2589376 6.95839216,12.1037131 C6.95839216,11.842791 7.07499377,11.6066323 7.26268582,11.4360062 C7.45270326,11.2638701 7.71281455,11.1569645 8.00116269,11.1569645 C8.28718545,11.1569645 8.54829333,11.2638701 8.73598538,11.4351002 C8.92467403,11.6066323 9.04160784,11.843999 9.04160784,12.1049211 C9.04160784,12.2601455 8.99941865,12.4081222 8.92600282,12.5376772 M9.41599535,10.8196382 C9.05456357,10.4910696 8.5536085,10.2866203 8.00116269,10.2857143 C7.44871688,10.2857143 6.94742962,10.4889557 6.58732663,10.8178262 C6.22423387,11.1463948 6,11.6014985 6,12.1037131 C6,12.4041963 6.0797276,12.6877678 6.22024749,12.9372142 C6.32688315,13.1244499 6.46839963,13.2941701 6.63782078,13.4373148 L6.63682418,15.2770571 L6.63549539,15.2779631 L6.63682418,15.2779631 C6.63682418,15.5557968 6.76073416,15.8082631 6.96038535,15.989761 C7.16136534,16.1718629 7.43875093,16.2857143 7.74536999,16.2857143 L8.25164023,16.2857143 C8.54065277,16.2857143 8.80508263,16.1848486 9.00174404,16.0199603 L9.03596047,15.9918749 C9.23594386,15.8097731 9.36018603,15.5579108 9.36018603,15.2779631 L9.36118263,13.4382208 C9.53060377,13.2950761 9.67178806,13.1265639 9.77908812,12.9378182 C9.9202724,12.6895798 10,12.4060082 10,12.1049211 C10,11.6024044 9.77775932,11.1482067 9.41599535,10.8196382" id="Fill-3"></path>
            </g>
        </g>
    </g>
</svg>