<?xml version="1.0" encoding="UTF-8"?>
<svg width="38px" height="38px" viewBox="0 0 38 38" version="1.1" xmlns="http://www.w3.org/2000/svg" xmlns:xlink="http://www.w3.org/1999/xlink">
    <!-- Generator: Sketch 64 (93537) - https://sketch.com -->
    <title>clock icon off</title>
    <desc>Created with Sketch.</desc>
    <g id="Page-1" stroke="none" stroke-width="1" fill="none" fill-rule="evenodd">
        <g id="iPhone-11---Mapa" transform="translate(-255.000000, -822.000000)" fill="#999999">
            <g id="barra-navegación-copy-6" transform="translate(-62.000000, 812.000000)">
                <g id="clock-icon-off" transform="translate(317.000000, 10.000000)">
                    <path d="M31.6999574,21.5346523 C31.5366444,22.3624427 31.2967263,23.15505 30.9902179,23.9038212 L30.9698807,23.9525768 C30.6423762,24.7427683 30.2390133,25.4914956 29.7731891,26.1874263 C29.3146564,26.8768124 28.7894896,27.517399 28.2065615,28.105189 L28.155345,28.153154 C27.5472479,28.7619396 26.8878903,29.3059375 26.1879461,29.7733759 C25.4936682,30.2392331 24.7448794,30.6398633 23.9546694,30.9692489 C23.1896724,31.2847105 22.3807503,31.5318265 21.5369519,31.700143 C20.7190252,31.8610803 19.8710539,31.9439648 18.9995388,31.9439648 C18.1288583,31.9439648 17.2808869,31.8610803 16.4646734,31.700143 C15.6216216,31.5318265 14.8102398,31.2847105 14.0452427,30.9692489 C13.2615336,30.64408 12.5128327,30.2408583 11.8143819,29.7733759 C11.1249797,29.3124382 10.4827529,28.7872398 9.8925332,28.2043693 L9.84628021,28.153154 C9.23805131,27.5450711 8.69417248,26.885729 8.22588849,26.1874263 C7.76735585,25.5012906 7.37387607,24.7702647 7.0511594,24.0029575 L7.03244737,23.9525768 C6.71456244,23.1827221 6.46823127,22.3737751 6.29995476,21.5323683 C6.13817913,20.7169644 6.05278902,19.8706821 6.05278902,18.999978 C6.05278902,18.1283516 6.13817913,17.2828599 6.29995476,16.4676317 C6.46823127,15.626181 6.71456244,14.8172779 7.03244737,14.0472914 L7.03244737,14.0449635 C7.35762384,13.2596475 7.75843908,12.5125454 8.22588849,11.8125737 C8.69904815,11.1069357 9.24051111,10.4458367 9.84131669,9.84429845 L9.84628021,9.84197049 C10.4478764,9.24038835 11.1071022,8.69889414 11.811966,8.22649228 C12.5078692,7.76076685 13.256614,7.35754518 14.0476586,7.0282914 C14.8151155,6.71287366 15.6240375,6.46575764 16.4670892,6.29972518 C17.2833467,6.13891968 18.1312741,6.05357548 18.9995388,6.05357548 C19.8710539,6.05357548 20.7190252,6.13891968 21.532779,6.29972518 C22.3620383,6.4632979 23.1547959,6.70312255 23.9059127,7.00962373 L23.9522536,7.03075114 C24.7448794,7.35754518 25.4936682,7.76076685 26.1895713,8.22649228 C26.8878903,8.69406251 27.5472479,9.23630342 28.155345,9.84429845 C28.7618608,10.4524692 29.3057397,11.1118113 29.7731891,11.8125737 C30.2414731,12.5107884 30.6447042,13.2596475 30.9698807,14.0449635 C31.2853497,14.8107772 31.5340967,15.6196803 31.6999574,16.465172 C31.8618209,17.2805758 31.9462886,18.1283516 31.9462886,18.999978 C31.9462886,19.8706821 31.8618209,20.7193803 31.6999574,21.5346523 M33.7145317,16.0708669 C33.5226675,15.1050675 33.2348711,14.165315 32.8641445,13.2661483 C32.4836665,12.3516081 32.0178423,11.4825293 31.4739635,10.672001 C30.921124,9.84429845 30.2943148,9.07940714 29.6073284,8.39243688 C28.9211767,7.70546663 28.155345,7.07871607 27.3285455,6.5258895 C26.5124198,5.97956366 25.6456925,5.5121252 24.7383786,5.13653168 L24.6847462,5.11540427 C23.7977695,4.75360286 22.8758285,4.47235794 21.9262588,4.28620833 C20.9767329,4.09918023 20.0004129,4 18.9995388,4 C18.002003,4 17.0248923,4.09918023 16.0752347,4.28620833 C15.1077875,4.47718957 14.1671784,4.76502308 13.2664093,5.13653168 L13.2639495,5.13653168 C12.3558449,5.5121252 11.4892054,5.97956366 10.6737825,6.5258895 C9.85348391,7.07463115 9.0901999,7.70142562 8.39662481,8.39243688 L8.39174914,8.39718067 C7.70072169,9.08823585 7.07400038,9.85334678 6.52515802,10.6734944 C5.98369506,11.4825293 5.51866152,12.3516081 5.13818353,13.2621073 C4.76745688,14.1603955 4.4788699,15.1010265 4.28546831,16.0733266 C4.09918256,17.0226984 4,18.0025095 4,18.999978 C4,19.9974905 4.09918256,20.9771259 4.28546831,21.9266734 C4.4788699,22.8989735 4.76745688,23.8396045 5.13818353,24.737761 L5.16098058,24.789108 C5.53491375,25.6825647 5.9934464,26.5313068 6.52515802,27.3263299 C7.0787882,28.1555698 7.70559736,28.918177 8.39174914,29.6051034 L8.44946653,29.6579439 C9.12995199,30.3309463 9.87382116,30.939161 10.6737825,31.4741105 C11.4851643,32.0179766 12.353429,32.4829992 13.2664093,32.8610086 C14.1671784,33.2349769 15.1053716,33.5228104 16.0728188,33.7137917 C17.0223886,33.9007758 18.002003,34 18.9995388,34 C20.0004129,34 20.9791488,33.9007758 21.9287186,33.7137917 C22.8946284,33.5228104 23.834359,33.2349769 24.7359627,32.8610086 L24.7383786,32.8610086 C25.6456925,32.4853272 26.5124198,32.0204363 27.3285455,31.4741105 C28.155345,30.9212839 28.9211767,30.2945334 29.6073284,29.6051034 L29.6586328,29.5498471 C30.3309043,28.8702121 30.9422519,28.1255258 31.4739635,27.327999 C32.0202582,26.5125952 32.4885422,25.6435163 32.8641445,24.737761 L32.882022,24.6850522 C33.2462477,23.7980963 33.5275431,22.8760452 33.7145317,21.9290892 C33.9031455,20.9795417 34,19.9999502 34,18.999978 C34,18.0000498 33.9031455,17.0204583 33.7145317,16.0708669" id="Fill-1"></path>
                    <path d="M18.7113276,21.2981892 C18.3309002,21.7009843 17.7121272,21.7009843 17.3316581,21.2981892 C16.9504802,20.8944667 16.9504802,20.2390526 17.3316581,19.836125 L18.431208,18.6731324 L13.3917223,14.6865116 C12.961141,14.3455796 12.8716311,13.6992617 13.1926077,13.2407411 C13.5145014,12.7839427 14.1247695,12.6915674 14.5553091,13.0323669 L18.5955943,16.2286756 L18.5253455,15.6868318 C18.4512612,15.121276 18.8233088,14.6023052 19.3548649,14.5238834 C19.8881304,14.447846 20.3780375,14.8393812 20.4528723,15.404098 L20.5817381,16.3962051 L26.3365524,10.3010697 C26.7170632,9.89964343 27.3335016,9.89964343 27.7146794,10.3010697 C28.0951069,10.7039531 28.0951069,11.3594115 27.7146794,11.7623391 L21.3934973,18.4557502 C21.7299411,18.8120486 21.7762177,19.3841396 21.4830072,19.7993426 C21.3734441,19.9562305 21.2314457,20.0698892 21.0740634,20.1368745 L22.2137614,28.8293364 C22.285511,29.3924195 21.9135885,29.9138188 21.381949,29.9898562 C20.8510599,30.0691171 20.3588181,29.6751974 20.2862346,29.1121143 L19.1928132,20.7856652 L18.7113276,21.2981892 Z" id="Fill-3"></path>
                    <path d="M6.90324636,31.2633022 C7.68509544,32.0333245 8.53956371,32.7300672 9.44326898,33.3343968 C10.3813751,33.9623286 11.3795634,34.4975436 12.4104607,34.9253338 C13.43715,35.348742 14.520321,35.6759625 15.6281755,35.8971899 C16.7175065,36.1120395 17.8526474,36.2211564 19.0000217,36.2211564 C20.1474393,36.2211564 21.2838817,36.1120395 22.3777677,35.8967126 C23.4792018,35.6769604 24.5615919,35.3497399 25.5925326,34.9245963 C26.640999,34.487478 27.6405321,33.952263 28.5601147,33.3351778 C29.4862044,32.716574 30.3666576,31.9912831 31.1785261,31.1783515 L31.1998694,31.1576996 L31.2593009,31.1020348 C32.0346429,30.318606 32.7314659,29.4647611 33.3303789,28.5641456 C33.9584436,27.6256537 34.4939341,26.6255531 34.923359,25.5893983 L34.9512527,25.5224097 C35.3632386,24.5153239 35.6803076,23.4563479 35.8936535,22.3749411 L35.8938704,22.3738564 C36.1112074,21.2790432 36.2213942,20.1441844 36.2213942,19.0008652 C36.2213942,17.8576761 36.1112074,16.7227305 35.8938271,15.6276136 C35.6794834,14.5347094 35.3528272,13.4518275 34.9226215,12.407169 C34.4954958,11.3755265 33.9601789,10.376901 33.3322876,9.44053506 C32.7162393,8.51692473 31.9918262,7.63561617 31.1779622,6.81930048 C30.372167,6.01348431 29.4920174,5.28901769 28.5630646,4.66689966 C27.6246982,4.0388377 26.6240372,3.50396978 25.5891489,3.07722085 L25.5106733,3.04203446 C24.5038089,2.63242317 23.4477509,2.31709059 22.3715642,2.10480079 C20.1753765,1.67076294 17.840067,1.66924441 15.6293901,2.10484417 C14.5334653,2.32064828 13.4506848,2.64682746 12.4111114,3.07414042 C11.374965,3.50548831 10.3741305,4.04191813 9.44014558,4.66702982 C8.50290707,5.29535211 7.6227141,6.01877745 6.82464065,6.81695761 L6.70820704,6.93089038 C5.95698468,7.69705135 5.27105017,8.54061372 4.66779913,9.44044829 C4.06407091,10.3445781 3.54454449,11.3091886 3.1234921,12.3077273 L3.08167317,12.4110304 C2.65632609,13.4415449 2.32841192,14.5253379 2.10704056,15.6323427 C1.88918304,16.7303231 1.77860582,17.8641407 1.77860582,19.0008652 C1.77860582,20.1374161 1.88918304,21.2711903 2.10730085,22.3708194 C2.3284553,23.476566 2.65636948,24.5603156 3.08167317,25.5905264 L3.11282046,25.6727871 C3.53903515,26.6832136 4.06242244,27.65533 4.6685366,28.5625403 C5.28848918,29.4871485 6.01416035,30.3675025 6.82464065,31.1779177 L6.85587471,31.2108046 L6.90324636,31.2633022 Z M19.0000217,38 C17.7373851,38 16.4864612,37.8795593 15.2819981,37.6420186 C14.0594452,37.3979265 12.8653066,37.0370382 11.7305994,36.5691155 C10.5904697,36.0959431 9.48877526,35.5053236 8.45432077,34.8128762 C7.4507099,34.1417315 6.50223581,33.3673271 5.63562098,32.5113996 L5.60048267,32.4746513 L5.55085523,32.4196373 C4.66536981,31.5320811 3.87133077,30.5674706 3.19055855,29.5520546 C2.51737794,28.5445783 1.93746568,27.4660784 1.46609176,26.3452767 L1.45207982,26.3098734 L1.43147402,26.2542954 C0.965349151,25.1223434 0.605853873,23.9327309 0.362965728,22.7183447 C0.122029711,21.5036548 0,20.2533446 0,19.0008652 C0,17.7481688 0.122029711,16.497902 0.362705444,15.284774 C0.595095477,14.1227986 0.933768053,12.9845556 1.37039409,11.8975954 L1.37039409,11.8948187 L1.43802449,11.728128 C1.91078659,10.5862405 2.50011245,9.48370456 3.18960417,8.4511509 C3.88707794,7.41083107 4.68415363,6.43953905 5.55966149,5.56278607 L5.67141,5.45084908 L5.68043317,5.44664059 C6.5298259,4.61127826 7.46099111,3.85231943 8.45045989,3.18907107 C9.48105351,2.49922683 10.5847435,1.90769623 11.7312935,1.43040211 C12.8816177,0.95749002 14.0762335,0.597686352 15.285642,0.359538235 C17.7224188,-0.120706163 20.2942394,-0.119014093 22.7160932,0.359625008 C23.909798,0.595126553 25.0818124,0.94581907 26.1992975,1.40181045 L26.2328741,1.41630152 L26.2828486,1.43916617 C27.4209394,1.90969201 28.5208552,2.49822894 29.5524466,3.18868059 C30.577661,3.87522747 31.5479556,4.67379811 32.4364776,5.56230882 C33.3331119,6.46162275 34.1315757,7.43339202 34.8106561,8.45154138 C35.5027073,9.48353101 36.0938985,10.5865442 36.5665305,11.728128 C37.041852,12.8822504 37.4023884,14.0778069 37.6388129,15.2832555 C37.8783607,16.4901792 38,17.7416608 38,19.0008652 C38,20.2599394 37.8784041,21.5110305 37.6385526,22.7194294 C37.4028656,23.9141181 37.05222,25.0847708 36.596333,26.1986306 L36.565793,26.2719103 C36.0923368,27.4144052 35.5013191,28.5182427 34.8098753,29.5514472 C34.1457612,30.550116 33.371764,31.4977624 32.510832,32.3660551 L32.487233,32.3889631 L32.4263266,32.4460597 C31.534898,33.3372603 30.5670328,34.1337484 29.5494967,34.8133968 C28.5351275,35.4940865 27.4324786,36.084706 26.2736952,36.5678139 C25.1333053,37.0381228 23.9399041,37.3989244 22.7234679,37.6416281 C21.5144064,37.8796027 20.2624414,38 19.0000217,38 L19.0000217,38 Z" id="Fill-5"></path>
                </g>
            </g>
        </g>
    </g>
</svg>