<?xml version="1.0" encoding="UTF-8"?>
<svg width="30px" height="31px" viewBox="0 0 30 31" version="1.1" xmlns="http://www.w3.org/2000/svg" xmlns:xlink="http://www.w3.org/1999/xlink">
    <!-- Generator: Sketch 64 (93537) - https://sketch.com -->
    <title>user icon off</title>
    <desc>Created with Sketch.</desc>
    <defs>
        <polygon id="path-1" points="0.000190941599 0.00661818182 29.9002969 0.00661818182 29.9002969 16 0.000190941599 16"></polygon>
    </defs>
    <g id="Page-1" stroke="none" stroke-width="1" fill="none" fill-rule="evenodd">
        <g id="iPhone-11---Mapa" transform="translate(-41.000000, -845.000000)">
            <g id="barra-navegación-copy-6" transform="translate(-62.000000, 812.000000)">
                <g id="user-icon-off" transform="translate(103.000000, 33.000000)">
                    <path d="M15.5001879,1.98357757 C11.9070616,1.98357757 8.98348989,4.90690273 8.98348989,8.49981213 C8.98348989,12.0927215 11.9070616,15.0160467 15.5001879,15.0160467 C19.0933142,15.0160467 22.0165101,12.0927215 22.0165101,8.49981213 C22.0165101,4.90690273 19.0933142,1.98357757 15.5001879,1.98357757 M15.5001879,17 C10.8129296,17 7,13.1865261 7,8.49981213 C7,3.81272241 10.8129296,0 15.5001879,0 C20.1870704,0 24,3.81272241 24,8.49981213 C24,13.1865261 20.1870704,17 15.5001879,17" id="Fill-1" fill="#999999"></path>
                    <g id="Group-5" transform="translate(0.000000, 15.000000)">
                        <mask id="mask-2" fill="white">
                            <use xlink:href="#path-1"></use>
                        </mask>
                        <g id="Clip-4"></g>
                        <path d="M14.950061,1.92661818 C8.50591463,1.92661818 3.0375,6.50043636 1.9479878,12.8022545 C1.8927439,13.1226182 1.98164634,13.4484364 2.19128049,13.6964364 C2.40128049,13.9440727 2.69615854,14.0804364 3.02140244,14.0804364 L26.8790854,14.0804364 C27.2039634,14.0804364 27.4992073,13.9440727 27.7092073,13.6964364 C27.9188415,13.4484364 28.007378,13.1226182 27.9525,12.8022545 C26.8629878,6.50043636 21.3945732,1.92661818 14.950061,1.92661818 M26.8790854,16.0000727 L3.02140244,16.0000727 C2.13054878,16.0000727 1.28908537,15.6113455 0.714695122,14.9335273 C0.136646341,14.2520727 -0.107743902,13.3568 0.0444512195,12.4775273 C1.29347561,5.25134545 7.56237805,0.00661818182 14.950061,0.00661818182 C22.337378,0.00661818182 28.6070122,5.25134545 29.8560366,12.4775273 C30.0082317,13.3568 29.7638415,14.2520727 29.1857927,14.9335273 C28.6114024,15.6113455 27.769939,16.0000727 26.8790854,16.0000727" id="Fill-3" fill="#999999" mask="url(#mask-2)"></path>
                    </g>
                </g>
            </g>
        </g>
    </g>
</svg>