<?xml version="1.0" encoding="UTF-8"?>
<svg width="40px" height="26px" viewBox="0 0 40 26" version="1.1" xmlns="http://www.w3.org/2000/svg" xmlns:xlink="http://www.w3.org/1999/xlink">
    <!-- Generator: Sketch 64 (93537) - https://sketch.com -->
    <title>card icon off</title>
    <desc>Created with Sketch.</desc>
    <defs>
        <polygon id="path-1" points="0.000152380952 0.127671642 39.7830095 0.127671642 39.7830095 25.9999612 0.000152380952 25.9999612"></polygon>
    </defs>
    <g id="Page-1" stroke="none" stroke-width="1" fill="none" fill-rule="evenodd">
        <g id="iPhone-11---Mapa" transform="translate(-143.000000, -826.000000)">
            <g id="barra-navegación-copy-6" transform="translate(-62.000000, 812.000000)">
                <g id="card-icon-off" transform="translate(205.000000, 14.000000)">
                    <g id="Group-3">
                        <mask id="mask-2" fill="white">
                            <use xlink:href="#path-1"></use>
                        </mask>
                        <g id="Clip-2"></g>
                        <path d="M6.13653333,2.26196119 C3.9079619,2.26196119 2.09539048,4.10873731 2.09539048,6.37849851 L2.09539048,19.7490955 C2.09539048,22.0188567 3.9079619,23.8656328 6.13653333,23.8656328 L33.6466286,23.8656328 C35.874819,23.8656328 37.6877714,22.0188567 37.6877714,19.7490955 L37.6877714,6.37849851 C37.6877714,4.10873731 35.874819,2.26196119 33.6466286,2.26196119 L6.13653333,2.26196119 Z M33.6466286,25.9999612 L6.13653333,25.9999612 C2.75291429,25.9999612 0.000152380952,23.1954537 0.000152380952,19.7490955 L0.000152380952,6.37849851 C0.000152380952,2.9321403 2.75291429,0.127632836 6.13653333,0.127632836 L33.6466286,0.127632836 C37.0302476,0.127632836 39.7830095,2.9321403 39.7830095,6.37849851 L39.7830095,19.7490955 C39.7830095,23.1954537 37.0302476,25.9999612 33.6466286,25.9999612 L33.6466286,25.9999612 Z" id="Fill-1" fill="#999999" mask="url(#mask-2)"></path>
                    </g>
                    <path d="M11.9185469,21 L6.08145308,21 C5.48449098,21 5,20.5523636 5,20 C5,19.4476364 5.48449098,19 6.08145308,19 L11.9185469,19 C12.5159023,19 13,19.4476364 13,20 C13,20.5523636 12.5159023,21 11.9185469,21" id="Fill-4" fill="#999999"></path>
                    <path d="M22.9185469,21 L17.0814531,21 C16.484491,21 16,20.5523636 16,20 C16,19.4476364 16.484491,19 17.0814531,19 L22.9185469,19 C23.5159023,19 24,19.4476364 24,20 C24,20.5523636 23.5159023,21 22.9185469,21" id="Fill-6" fill="#999999"></path>
                    <path d="M32.9186001,21 L27.0813999,21 C26.4844672,21 26,20.5523636 26,20 C26,19.4476364 26.4844672,19 27.0813999,19 L32.9186001,19 C33.5159261,19 34,19.4476364 34,20 C34,20.5523636 33.5159261,21 32.9186001,21" id="Fill-8" fill="#999999"></path>
                    <path d="M24.7201809,7.10993588 C24.4418799,7.10993588 24.215131,7.32553296 24.215131,7.59100126 L24.215131,9.40899874 C24.215131,9.67446704 24.4418799,9.89006412 24.7201809,9.89006412 L32.2802218,9.89006412 C32.5585228,9.89006412 32.784869,9.67446704 32.784869,9.40899874 L32.784869,7.59100126 C32.784869,7.32553296 32.5585228,7.10993588 32.2802218,7.10993588 L24.7201809,7.10993588 Z M32.2802218,12 L24.7201809,12 C23.2203358,12 22,10.8376171 22,9.40899874 L22,7.59100126 C22,6.16238286 23.2203358,5 24.7201809,5 L32.2802218,5 C33.7796642,5 35,6.16238286 35,7.59100126 L35,9.40899874 C35,10.8376171 33.7796642,12 32.2802218,12 L32.2802218,12 Z" id="Fill-10" fill="#999999"></path>
                </g>
            </g>
        </g>
    </g>
</svg>