<?xml version="1.0" encoding="UTF-8"?>
<svg width="15px" height="17px" viewBox="0 0 15 17" version="1.1" xmlns="http://www.w3.org/2000/svg" xmlns:xlink="http://www.w3.org/1999/xlink">
    <!-- Generator: Sketch 64 (93537) - https://sketch.com -->
    <title>User icon</title>
    <desc>Created with Sketch.</desc>
    <defs>
        <polygon id="path-1" points="0.121966667 0.0996666667 8.69163333 0.0996666667 8.69163333 8.66923333 0.121966667 8.66923333"></polygon>
        <polygon id="path-3" points="0 0.002464 14.8215622 0.002464 14.8215622 7.999904 0 7.999904"></polygon>
    </defs>
    <g id="Page-1" stroke="none" stroke-width="1" fill="none" fill-rule="evenodd">
        <g id="iPhone-11---Login" transform="translate(-50.000000, -447.000000)">
            <g id="User-icon" transform="translate(50.000000, 447.000000)">
                <g id="Group-3" transform="translate(3.000000, 0.285714)">
                    <mask id="mask-2" fill="white">
                        <use xlink:href="#path-1"></use>
                    </mask>
                    <g id="Clip-2"></g>
                    <path d="M4.40696667,1.09956667 C2.5953,1.09956667 1.12196667,2.57323333 1.12196667,4.38423333 C1.12196667,6.19556667 2.5953,7.66923333 4.40696667,7.66923333 C6.2183,7.66923333 7.69163333,6.19556667 7.69163333,4.38423333 C7.69163333,2.57323333 6.2183,1.09956667 4.40696667,1.09956667 M4.40696667,8.66923333 C2.04396667,8.66923333 0.121966667,6.7469 0.121966667,4.38423333 C0.121966667,2.0219 2.04396667,0.0995666667 4.40696667,0.0995666667 C6.76963333,0.0995666667 8.69163333,2.0219 8.69163333,4.38423333 C8.69163333,6.7469 6.76963333,8.66923333 4.40696667,8.66923333" id="Fill-1" fill="#003DA6" mask="url(#mask-2)"></path>
                </g>
                <g id="Group-6" transform="translate(0.000000, 8.285714)">
                    <mask id="mask-4" fill="white">
                        <use xlink:href="#path-3"></use>
                    </mask>
                    <g id="Clip-5"></g>
                    <path d="M7.41060638,0.962464 C4.21624468,0.962464 1.50571277,3.249504 0.965712766,6.400864 C0.938265957,6.561184 0.981989362,6.724064 1.08635106,6.848224 C1.19039362,6.971744 1.33656383,7.039904 1.49773404,7.039904 L13.3237979,7.039904 C13.4849681,7.039904 13.6311383,6.971744 13.7351809,6.848224 C13.8395426,6.724064 13.883266,6.561184 13.8558191,6.400864 C13.3158191,3.249504 10.6052872,0.962464 7.41060638,0.962464 M13.3237979,7.999904 L1.49773404,7.999904 C1.05603191,7.999904 0.638904255,7.805664 0.354223404,7.466464 C0.0676276596,7.125984 -0.0536489362,6.677984 0.0219893617,6.238304 C0.641138298,2.624864 3.74837234,0.002464 7.41060638,0.002464 C11.0728404,0.002464 14.1803936,2.624864 14.7995426,6.238304 C14.8751809,6.677984 14.7539043,7.125984 14.4673085,7.466464 C14.1826277,7.805664 13.7655,7.999904 13.3237979,7.999904" id="Fill-4" fill="#003DA6" mask="url(#mask-4)"></path>
                </g>
            </g>
        </g>
    </g>
</svg>