<?xml version="1.0" encoding="UTF-8"?>
<svg width="240px" height="58px" viewBox="0 0 240 58" version="1.1" xmlns="http://www.w3.org/2000/svg" xmlns:xlink="http://www.w3.org/1999/xlink">
    <!-- Generator: Sketch 64 (93537) - https://sketch.com -->
    <title>Puntada azul</title>
    <desc>Created with Sketch.</desc>
    <defs>
        <polygon id="path-1" points="0.303251613 0.208645161 33.164671 0.208645161 33.164671 35.5691613 0.303251613 35.5691613"></polygon>
        <polygon id="path-3" points="0.372812903 0.165987097 10.5793935 0.165987097 10.5793935 13.9354839 0.372812903 13.9354839"></polygon>
    </defs>
    <g id="Page-1" stroke="none" stroke-width="1" fill="none" fill-rule="evenodd">
        <g id="iPhone-11---Login" transform="translate(-87.000000, -119.000000)">
            <g id="Puntada-azul" transform="translate(87.000000, 119.000000)">
                <path d="M7.29406452,32.1937935 L7.29406452,27.6485032 L7.29406452,7.69443871 C7.29406452,6.46192258 8.49870968,6.48979355 8.49870968,6.48979355 L13.2929032,6.48979355 C13.2929032,6.48979355 19.368,6.77934194 19.368,11.8201161 C19.368,11.8201161 19.4914839,16.531471 15.0696774,17.5646323 C14.7375484,17.6513419 14.3260645,17.7295355 14.3260645,17.7295355 C12.879871,17.7295355 12.9627097,18.763471 12.9627097,18.763471 L12.9627097,20.0854065 L12.9627097,21.655471 L12.9627097,22.9785677 C12.9627097,22.9785677 12.879871,24.0113419 14.3272258,24.0113419 C14.3272258,24.0113419 19.3261935,24.4251484 23.376,20.0854065 C23.376,20.0854065 28.2108387,15.9531484 26.0620645,8.43108387 C26.0620645,8.43108387 23.8722581,0.425535484 15.1939355,0.425535484 L4.49070968,0.425535484 L3.74670968,0.425535484 L2.87922581,0.425535484 L1.8836129,0.425535484 C0.843096774,0.425535484 0,0.726309677 0,1.76643871 L0,5.86966452 L0,26.5727613 L0,32.0130194 L0,33.8648903 C0,34.9042452 0.843096774,35.747729 1.8836129,35.747729 L5.31445161,35.747729 C6.35496774,35.747729 7.29406452,34.8090194 7.29406452,33.767729 L7.29406452,32.1937935" id="Fill-1" fill="#003DA6"></path>
                <g id="Group-5" transform="translate(66.967742, 0.178452)">
                    <mask id="mask-2" fill="white">
                        <use xlink:href="#path-1"></use>
                    </mask>
                    <g id="Clip-4"></g>
                    <path d="M28.0182194,35.5691613 L33.164671,35.5691613 L33.164671,9.39987097 L33.164671,3.98051613 L33.164671,2.1363871 C33.164671,1.09974194 32.3211871,0.259741935 31.2802839,0.259741935 L27.8506065,0.259741935 C26.8100903,0.259741935 25.8690581,1.19574194 25.8690581,2.232 L25.8690581,3.80051613 L25.8690581,23.7940645 L8.33202581,1.22245161 C8.33202581,1.22245161 7.36467097,0.219096774 6.01796129,0.219096774 L2.88673548,0.208258065 L0.303251613,0.208258065 L0.303251613,26.4282581 L0.303251613,31.8487742 L0.303251613,33.6932903 C0.303251613,34.7299355 1.14634839,35.5691613 2.18647742,35.5691613 L5.61770323,35.5691613 C6.65705806,35.5691613 7.59847742,34.6339355 7.59847742,33.5969032 L7.59847742,32.0283871 L7.59847742,27.4989677 L7.59847742,11.8532903 L24.7116387,34.0869677 C24.7116387,34.0869677 25.8280258,35.5691613 26.4891871,35.5691613 L28.0182194,35.5691613 Z" id="Fill-3" fill="#003DA6" mask="url(#mask-2)"></path>
                </g>
                <path d="M123.633677,32.1937935 L123.633677,27.6485032 L123.633677,3.54050323 L125.403871,6.26411613 C125.403871,6.26411613 125.762323,6.85172903 126.505548,6.98024516 L131.130581,6.98527742 L133.136129,6.98527742 C134.175484,6.98527742 134.68529,6.55366452 134.68529,5.51353548 L134.706581,3.98914839 L134.706581,1.9839871 C134.706581,0.943858065 134.274968,0.43443871 133.235613,0.43443871 L129.677032,0.43443871 L110.324516,0.43443871 L106.767097,0.43443871 C105.726194,0.43443871 105.294581,0.943858065 105.294581,1.9839871 L105.294581,3.98914839 L105.317032,5.51353548 C105.317032,6.55366452 105.826452,6.98527742 106.866968,6.98527742 L108.870581,6.98527742 L116.367484,6.98527742 L116.367484,22.1652774 L116.34,26.5727613 L116.34,32.0130194 L116.34,33.8648903 C116.34,34.9042452 117.183484,35.747729 118.223226,35.747729 L121.654065,35.747729 C122.693806,35.747729 123.633677,34.8090194 123.633677,33.767729 L123.633677,32.1937935" id="Fill-6" fill="#003DA6"></path>
                <path d="M31.7469677,3.93421935 L31.7469677,2.38467097 C31.7469677,1.36157419 32.6756129,0.438348387 33.7025806,0.438348387 L37.0889032,0.438348387 C38.1147097,0.438348387 38.9477419,1.26634839 38.9477419,2.29021935 L38.9477419,4.11112258 L38.9477419,9.45963871 L38.9264516,13.3453161 L38.9264516,21.3907355 C38.9264516,25.7893161 42.5059355,29.3556387 46.9203871,29.3556387 C51.3356129,29.3556387 54.9150968,25.7893161 54.9150968,21.3907355 L54.9150968,13.3453161 L54.9150968,3.93421935 L54.9150968,2.38467097 C54.9150968,1.36157419 55.8429677,0.438348387 56.8699355,0.438348387 L60.2562581,0.438348387 C61.2824516,0.438348387 62.1143226,1.26634839 62.1143226,2.29021935 L62.1143226,4.11112258 L62.1143226,9.45963871 L62.0938065,17.2592516 L62.0938065,21.4580903 C62.0938065,29.3653161 55.3002581,35.7760258 46.9203871,35.7760258 C38.5412903,35.7760258 31.7469677,29.3653161 31.7469677,21.4580903 L31.7469677,17.2592516 L31.7469677,8.4044129 L31.7469677,3.93421935" id="Fill-8" fill="#003DA6"></path>
                <path d="M180.051716,7.95603871 L180.051716,24.2311355 L172.783974,24.2311355 L172.783974,0.447522581 L188.52449,0.447522581 C198.495329,0.447522581 206.648361,8.65126452 206.648361,17.9543613 C206.648361,27.2582323 198.934297,35.7143613 188.650684,35.7143613 L176.362297,35.7546194 L174.791071,35.7546194 C173.75249,35.7546194 172.783974,34.6757806 172.783974,33.4839097 L172.783974,32.8196516 L172.783974,32.1112645 L172.783974,31.2042968 C172.783974,30.1599097 173.893006,29.2169419 175.076361,29.2169419 L176.6232,29.2169419 L187.994555,29.1755226 C194.4672,29.1755226 199.320619,23.8548774 199.320619,18.0012 C199.320619,12.1475226 194.191587,6.9852 187.917135,6.9852 L180.051716,6.9852 L180.051716,7.95603871 Z" id="Fill-10" fill="#003DA6"></path>
                <path d="M149.947006,0.426541935 L147.603135,0.426541935 C146.548297,0.426541935 146.31449,1.36834839 146.31449,1.36834839 L146.034232,2.19673548 L134.713974,34.7542839 C134.713974,34.7542839 134.322232,35.694929 134.830103,35.7731226 L141.198232,35.7731226 C141.198232,35.7731226 141.940684,35.6562194 142.291394,34.7155742 L143.69849,30.7575097 C143.69849,30.7575097 143.987652,29.9388 144.876813,29.3097677 L150.332168,24.0862839 L145.868555,24.0862839 L150.663523,9.71338065 L151.116039,8.34615484 L152.069458,11.1797032 L156.308555,24.0862839 L158.480555,30.7575097 L159.886877,34.7155742 C160.237974,35.6562194 160.980426,35.7731226 160.980426,35.7731226 L167.347006,35.7731226 C167.856039,35.694929 167.465071,34.7542839 167.465071,34.7542839 L156.143265,2.19673548 L155.864555,1.36834839 C155.864555,1.36834839 155.629974,0.426541935 154.575135,0.426541935 L152.232039,0.426541935 L149.947006,0.426541935 Z" id="Fill-12" fill="#003DA6"></path>
                <path d="M221.976581,0.426541935 L219.633097,0.426541935 C218.578258,0.426541935 218.344452,1.36834839 218.344452,1.36834839 L218.065355,2.19673548 L206.744323,34.7542839 C206.744323,34.7542839 206.352194,35.694929 206.860839,35.7731226 L213.227419,35.7731226 C213.227419,35.7731226 213.969871,35.6562194 214.321742,34.7155742 L215.727677,30.7575097 C215.727677,30.7575097 216.016839,29.9388 216.908323,29.3097677 L222.362903,24.0862839 L217.899677,24.0862839 L222.693484,9.71338065 L223.145226,8.34615484 L224.097871,11.1797032 L228.33929,24.0862839 L230.510516,30.7575097 L231.917226,34.7155742 C232.267548,35.6562194 233.010387,35.7731226 233.010387,35.7731226 L239.378129,35.7731226 C239.885226,35.694929 239.493871,34.7542839 239.493871,34.7542839 L228.174387,2.19673548 L227.894129,1.36834839 C227.894129,1.36834839 227.659935,0.426541935 226.60471,0.426541935 L224.262,0.426541935 L221.976581,0.426541935 Z" id="Fill-14" fill="#003DA6"></path>
                <path d="M126.139897,49.7696516 L123.904413,49.7696516 C123.836671,49.7696516 123.776284,49.8087484 123.749187,49.8691355 C123.552542,50.3092645 122.935123,51.3354581 121.435897,51.3354581 C119.966477,51.3354581 118.901961,50.2210065 118.901961,48.6853935 C118.901961,47.9448774 119.158606,47.2461677 119.600284,46.7723613 C120.120542,46.2695226 120.681832,46.0341677 121.368542,46.0341677 L121.435897,46.0357161 C122.498865,46.0357161 123.364026,46.6128774 123.746865,47.5810065 C123.772026,47.6452645 123.833574,47.6859097 123.904413,47.6859097 L126.139897,47.6859097 C126.189445,47.6859097 126.238994,47.6634581 126.27151,47.6228129 C126.302865,47.5829419 126.315252,47.5287484 126.302865,47.4799742 C125.758606,45.1968774 123.768542,43.6647484 121.352284,43.6647484 C118.555123,43.6647484 116.362219,45.8712 116.362219,48.6853935 C116.362219,51.5131355 118.590735,53.7265548 121.435897,53.7265548 C123.777445,53.7265548 125.732671,52.2188129 126.302865,49.9782968 C126.316026,49.9279742 126.304026,49.875329 126.27151,49.8339097 C126.238994,49.7924903 126.190219,49.7696516 126.139897,49.7696516" id="Fill-16" fill="#003DA6"></path>
                <path d="M152.510361,48.2526581 C152.510361,46.3849161 152.3532,45.5569161 151.462103,44.632529 C150.640684,43.7886581 149.508426,43.6647871 148.906877,43.6647871 C147.975523,43.6647871 147.105329,43.9992387 146.456942,44.6100774 C146.22391,44.8287871 146.048942,45.0598839 145.913071,45.2665935 C145.791523,45.0579484 145.630103,44.8160129 145.477974,44.6514968 C144.868297,43.9953677 144.069329,43.6647871 143.101587,43.6647871 C141.853587,43.6647871 141.035265,44.2516258 140.604039,44.7354968 L140.604039,44.5779484 C140.604039,44.5729161 140.602103,44.5674968 140.602103,44.5624645 L140.602103,44.5307226 C140.602103,44.5264645 140.600942,44.524529 140.600942,44.5206581 C140.582748,44.2833677 140.443394,43.9450452 139.782619,43.9450452 L139.699006,43.9450452 C139.696297,43.9450452 139.695135,43.9473677 139.692426,43.9473677 L139.122232,43.9473677 C139.119523,43.9473677 139.116039,43.9450452 139.115652,43.9450452 L139.030877,43.9450452 C139.02391,43.9450452 139.016555,43.9473677 139.0092,43.9473677 L138.989458,43.9473677 C138.984039,43.9473677 138.982103,43.9493032 138.980168,43.9493032 C138.315523,43.9702065 138.209458,44.3484 138.209458,44.5779484 L138.209458,45.9978194 C138.209458,46.0047871 138.213329,46.0102065 138.214877,46.0175613 L138.214877,51.3796258 C138.214877,51.3823355 138.213329,51.384271 138.213329,51.3877548 L138.213329,52.8080129 C138.213329,53.0425935 138.318232,53.4401419 139.032426,53.4401419 L139.051781,53.4401419 C139.051781,53.4401419 139.054877,53.4420774 139.056426,53.4420774 L139.912297,53.4420774 C139.914232,53.4420774 139.915394,53.4393677 139.916942,53.4393677 C140.599006,53.4382065 140.72249,53.0766581 140.732168,52.8393677 C140.732942,52.8327871 140.737587,52.8273677 140.737587,52.8211742 L140.737587,48.3188516 C140.737587,47.7173032 140.848297,47.212529 141.065458,46.8184645 C141.263265,46.4689161 141.671652,46.0520129 142.481071,46.0520129 C143.119781,46.0655613 143.562619,46.3156258 143.834361,46.8107226 C144.070103,47.2775613 144.102619,47.8024645 144.102619,48.2526581 L144.102619,52.7681419 C144.102619,52.7716258 144.103781,52.7724 144.103781,52.7770452 L144.103781,52.8080129 C144.103781,53.0414323 144.210619,53.4308516 144.905458,53.4382065 C144.911652,53.4393677 144.915523,53.4420774 144.92249,53.4420774 L145.784942,53.4420774 C145.787652,53.4420774 145.788813,53.4401419 145.791523,53.4401419 L145.804297,53.4401419 C146.520039,53.4401419 146.62649,53.0425935 146.62649,52.8080129 L146.62649,51.3877548 C146.62649,51.3838839 146.623006,51.3796258 146.623006,51.3757548 L146.623006,48.2526581 C146.623006,47.7618194 146.647781,47.2814323 146.918361,46.8010452 C147.192426,46.3191097 147.703006,46.0520129 148.356426,46.0520129 C148.991265,46.0520129 149.412426,46.2684 149.650103,46.7271097 C149.949716,47.1838839 149.988813,47.7958839 149.988813,48.3358839 L149.988813,52.7681419 C149.988813,52.7689161 149.9892,52.7708516 149.9892,52.7716258 L149.9892,52.8080129 C149.9892,53.0425935 150.097587,53.4401419 150.811006,53.4401419 L150.838103,53.4401419 C150.839652,53.4401419 150.841974,53.4420774 150.841974,53.4420774 L151.705974,53.4420774 C151.708297,53.4420774 151.711006,53.4382065 151.716813,53.4382065 C152.405845,53.4289161 152.511523,53.040271 152.511523,52.8080129 L152.511523,51.3877548 C152.511523,51.3858194 152.510361,51.384271 152.510361,51.3838839 L152.510361,48.2526581 Z" id="Fill-18" fill="#003DA6"></path>
                <path d="M167.040039,40.7621032 L164.854103,40.7621032 C164.760426,40.7621032 164.686877,40.8372 164.686877,40.9304903 L164.686877,53.2722968 C164.686877,53.3663613 164.760426,53.4422323 164.854103,53.4422323 L167.040039,53.4422323 C167.132942,53.4422323 167.208426,53.3663613 167.208426,53.2722968 L167.208426,40.9304903 C167.208426,40.8372 167.132942,40.7621032 167.040039,40.7621032" id="Fill-20" fill="#003DA6"></path>
                <path d="M136.382748,44.5306065 C136.382748,44.5263484 136.379265,44.5240258 136.379265,44.5201548 C136.361458,44.2867355 136.223265,43.9592516 135.594619,43.9476387 C135.593071,43.9476387 135.593071,43.9472516 135.59191,43.9472516 L135.584168,43.9472516 C135.577587,43.9472516 135.571781,43.944929 135.562103,43.944929 L135.4812,43.944929 C135.478103,43.944929 135.474619,43.9472516 135.471523,43.9472516 L134.769716,43.9472516 C134.765458,43.9472516 134.762748,43.944929 134.760039,43.944929 L134.677974,43.944929 C134.669458,43.944929 134.663265,43.9472516 134.655135,43.9472516 L134.629974,43.9472516 C134.626103,43.9472516 134.624168,43.9491871 134.621071,43.9495742 C133.963394,43.9720258 133.856555,44.3490581 133.856555,44.5778323 L133.856555,45.9977032 C133.856555,46.0050581 133.859265,46.0100903 133.860813,46.0174452 L133.860813,49.1699613 C133.860813,50.6076387 133.209716,51.3353806 131.927265,51.3353806 L131.892813,51.3377032 C130.665329,51.3377032 130.095135,50.6266065 130.095135,49.1026065 L130.095135,44.5755097 C130.095135,44.5704774 130.093587,44.5662194 130.092426,44.5623484 C130.087394,44.328929 129.972039,43.9600258 129.305458,43.9476387 C129.305071,43.9476387 129.305071,43.9472516 129.303135,43.9472516 L129.294619,43.9472516 C129.286103,43.9472516 129.280297,43.944929 129.272168,43.944929 L129.191265,43.944929 C129.187781,43.944929 129.185071,43.9472516 129.183135,43.9472516 L128.485974,43.9472516 C128.484039,43.9472516 128.481716,43.944929 128.479006,43.944929 L128.395781,43.944929 C127.687006,43.944929 127.578232,44.3358968 127.576297,44.5728 C127.575523,44.5778323 127.572813,44.5801548 127.572813,44.5851871 L127.572813,49.6530581 C127.572813,53.1775742 129.913587,53.7175742 131.308684,53.7264774 L131.362103,53.7264774 C132.7212,53.7264774 133.52249,53.1930581 133.9932,52.6147355 L133.9932,52.8291871 C133.9932,52.8338323 133.997845,52.8373161 133.997845,52.8419613 C134.005587,53.0804129 134.13449,53.4404129 134.815394,53.4404129 L134.896297,53.4404129 C134.898232,53.4404129 134.898232,53.4419613 134.901716,53.4419613 L135.562103,53.4419613 C135.56791,53.4419613 135.570619,53.4396387 135.57449,53.4384774 C136.244555,53.4307355 136.368426,53.0753806 136.377329,52.8392516 C136.377329,52.832671 136.382748,52.8276387 136.382748,52.8210581 L136.382748,45.9996387 L136.382748,45.9977032 L136.382748,44.5778323 L136.382748,44.5728 L136.382748,44.5306065 Z" id="Fill-22" fill="#003DA6"></path>
                <path d="M162.853587,44.5306065 C162.853587,44.5263484 162.85049,44.5240258 162.849329,44.5201548 C162.832297,44.2867355 162.694877,43.9592516 162.066619,43.9476387 C162.065458,43.9476387 162.064297,43.9472516 162.063523,43.9472516 L162.056168,43.9472516 C162.047265,43.9472516 162.042619,43.944929 162.033716,43.944929 L161.95049,43.944929 C161.947781,43.944929 161.945071,43.9472516 161.942361,43.9472516 L161.239006,43.9472516 C161.236297,43.9472516 161.234361,43.944929 161.231265,43.944929 L161.1492,43.944929 C161.13991,43.944929 161.13449,43.9472516 161.125587,43.9472516 L161.100813,43.9472516 C161.096942,43.9472516 161.095781,43.9491871 161.092297,43.9495742 C160.433071,43.9720258 160.328168,44.3490581 160.328168,44.5778323 L160.328168,45.9977032 C160.328168,46.0050581 160.330877,46.0100903 160.330877,46.0174452 L160.330877,49.1699613 C160.330877,50.6076387 159.680555,51.3353806 158.400039,51.3353806 C158.39849,51.3353806 158.362877,51.3377032 158.362877,51.3377032 C157.135781,51.3377032 156.5652,50.6266065 156.5652,49.1026065 L156.5652,44.5755097 C156.5652,44.568929 156.563265,44.5650581 156.563265,44.5584774 C156.558232,44.3258323 156.440942,43.9600258 155.774748,43.9476387 C155.774748,43.9476387 155.774361,43.9472516 155.772426,43.9472516 L155.764684,43.9472516 C155.756942,43.9472516 155.750361,43.944929 155.743394,43.944929 L155.661329,43.944929 C155.658619,43.944929 155.65591,43.9472516 155.654361,43.9472516 L154.958361,43.9472516 C154.953716,43.9472516 154.952555,43.944929 154.950232,43.944929 L154.867006,43.944929 C154.158232,43.944929 154.04791,44.3358968 154.045974,44.5728 C154.045974,44.5778323 154.043265,44.5801548 154.043265,44.5851871 L154.043265,49.6530581 C154.043265,53.1775742 156.384039,53.7175742 157.778748,53.7264774 L157.831394,53.7264774 C159.191265,53.7264774 159.995652,53.1930581 160.464039,52.6147355 L160.464039,52.8291871 C160.464039,52.832671 160.468297,52.8365419 160.468297,52.8404129 C160.4772,53.0777032 160.602232,53.4404129 161.287394,53.4404129 L161.366361,53.4404129 C161.368297,53.4404129 161.369458,53.4419613 161.370619,53.4419613 L162.033716,53.4419613 C162.036426,53.4419613 162.042619,53.4396387 162.046103,53.4384774 C162.713845,53.4307355 162.839265,53.0753806 162.847006,52.8392516 C162.847781,52.832671 162.853587,52.8276387 162.853587,52.8210581 L162.853587,45.9996387 L162.853587,45.9977032 L162.853587,44.5778323 L162.853587,44.5728 L162.853587,44.5306065 Z" id="Fill-24" fill="#003DA6"></path>
                <path d="M176.476065,48.7644774 C176.476065,49.5808645 176.183032,50.2726065 175.583806,50.8849935 C174.984581,51.4938968 174.314129,51.7900258 173.538387,51.7900258 C172.677871,51.7900258 171.971806,51.4962194 171.378,50.8873161 C170.783419,50.2818968 170.496194,49.5483484 170.496194,48.6452516 C170.496194,47.7920903 170.783419,47.0898968 171.37529,46.4988 C171.969097,45.9080903 172.665097,45.6212516 173.500452,45.6212516 C174.314129,45.6212516 174.99929,45.9220258 175.593097,46.5413806 C176.177226,47.1560903 176.476065,47.9031871 176.476065,48.7644774 L176.476065,48.7644774 Z M178.461484,44.5071871 L178.461484,44.5044774 C178.444839,44.2834452 178.31129,43.9818968 177.74729,43.9528645 C177.738387,43.9517032 177.734129,43.9478323 177.725613,43.9478323 L177.681097,43.9478323 C177.67529,43.9478323 177.670645,43.9474452 177.662516,43.9474452 L177.583161,43.9474452 C177.580452,43.9474452 177.57929,43.9478323 177.575806,43.9478323 L177.349355,43.9478323 C177.346258,43.9478323 177.345097,43.9474452 177.342774,43.9474452 L177.261097,43.9474452 C177.254516,43.9474452 177.249871,43.9478323 177.244839,43.9478323 L177.235161,43.9478323 L177.229355,43.9478323 C176.563548,43.9621548 176.457871,44.3384129 176.457871,44.5675742 L176.457871,44.8311871 C176.090516,44.5033161 175.687161,44.2424129 175.255548,44.0612516 C174.710903,43.8301548 174.106258,43.7155742 173.459419,43.7155742 C172.741742,43.7155742 172.090258,43.8359613 171.525097,44.0732516 C170.961097,44.3120903 170.433484,44.6840903 169.957355,45.1807355 C169.525742,45.6328645 169.186258,46.1628 168.950129,46.7597032 C168.716323,47.3542839 168.597097,47.9910581 168.597097,48.6510581 C168.597097,50.0732516 169.073613,51.2736387 170.012323,52.218929 C170.94871,53.166929 172.142129,53.6473161 173.560452,53.6473161 C174.167806,53.6473161 174.75,53.5300258 175.286516,53.2969935 C175.709226,53.1142839 176.102903,52.8599613 176.460968,52.542929 L176.460968,52.8208645 L176.460968,52.8340258 C176.460968,52.8371226 176.461355,52.8390581 176.461355,52.8417677 C176.468323,53.0755742 176.586,53.4421548 177.264968,53.4421548 L177.324581,53.4421548 L177.345097,53.4421548 L177.352065,53.4421548 L177.581613,53.4421548 L177.634258,53.4421548 L177.661742,53.4421548 C178.358903,53.4421548 178.464194,53.0519613 178.464194,52.8208645 L178.464194,51.4381548 C178.464194,51.4362194 178.461484,51.4362194 178.461484,51.4354452 L178.461484,45.9646065 C178.461484,45.9599613 178.464968,45.954929 178.464968,45.9498968 L178.464968,44.5675742 C178.464968,44.5513161 178.464194,44.5358323 178.461484,44.5199613 L178.461484,44.5071871 Z" id="Fill-26" fill="#003DA6"></path>
                <path d="M112.983406,48.7644774 C112.983406,49.5808645 112.691923,50.2726065 112.091148,50.8849935 C111.492697,51.4938968 110.822245,51.7900258 110.04689,51.7900258 C109.1856,51.7900258 108.48031,51.4962194 107.885342,50.8873161 C107.291535,50.2818968 107.003535,49.5483484 107.003535,48.6452516 C107.003535,47.7920903 107.291535,47.0898968 107.883794,46.4988 C108.478374,45.9080903 109.174374,45.6212516 110.009342,45.6212516 C110.822245,45.6212516 111.506632,45.9220258 112.100826,46.5413806 C112.685729,47.1560903 112.983406,47.9031871 112.983406,48.7644774 L112.983406,48.7644774 Z M114.971535,44.5071871 C114.971535,44.5071871 114.970374,44.5052516 114.970374,44.5044774 C114.951406,44.2834452 114.818632,43.9818968 114.254632,43.9528645 C114.248052,43.9517032 114.241858,43.9478323 114.234116,43.9478323 L114.188052,43.9478323 C114.181858,43.9478323 114.177987,43.9474452 114.170245,43.9474452 L114.091277,43.9474452 C114.087406,43.9474452 114.086632,43.9478323 114.083923,43.9478323 L113.857858,43.9478323 C113.855535,43.9478323 113.852826,43.9474452 113.849729,43.9474452 L113.771148,43.9474452 C113.762632,43.9474452 113.758761,43.9478323 113.752181,43.9478323 L113.74289,43.9478323 L113.737858,43.9478323 C113.072052,43.9621548 112.967148,44.3384129 112.967148,44.5675742 L112.967148,44.8311871 C112.597084,44.5033161 112.196052,44.2424129 111.764826,44.0612516 C111.220181,43.8301548 110.615535,43.7155742 109.966761,43.7155742 C109.251019,43.7155742 108.598374,43.8359613 108.034374,44.0732516 C107.469213,44.3120903 106.9416,44.6840903 106.467019,45.1807355 C106.033858,45.6328645 105.6936,46.1628 105.457084,46.7597032 C105.224052,47.3542839 105.106374,47.9910581 105.106374,48.6510581 C105.106374,50.0732516 105.581729,51.2736387 106.519665,52.218929 C107.457987,53.166929 108.651406,53.6473161 110.067794,53.6473161 C110.675923,53.6473161 111.256955,53.5300258 111.795794,53.2969935 C112.216181,53.1142839 112.610632,52.8599613 112.969858,52.542929 L112.969858,52.8208645 L112.969858,52.8340258 C112.969858,52.8371226 112.971019,52.8390581 112.971019,52.8417677 C112.976826,53.0755742 113.093342,53.4421548 113.77231,53.4421548 L113.83231,53.4421548 L113.852826,53.4421548 L113.859406,53.4421548 L114.088955,53.4421548 L114.143535,53.4421548 L114.169471,53.4421548 C114.867019,53.4421548 114.97231,53.0519613 114.97231,52.8208645 L114.97231,51.4381548 C114.97231,51.4362194 114.971535,51.4362194 114.971535,51.4354452 L114.971535,45.9646065 C114.971535,45.9599613 114.974245,45.954929 114.974245,45.9498968 L114.974245,44.5675742 C114.974245,44.5513161 114.97231,44.5358323 114.971535,44.5199613 L114.971535,44.5071871 Z" id="Fill-28" fill="#003DA6"></path>
                <path d="M215.324013,48.7644774 C215.324013,49.5808645 215.031755,50.2726065 214.430981,50.8849935 C213.832142,51.4938968 213.162077,51.7900258 212.385174,51.7900258 C211.525819,51.7900258 210.818981,51.4962194 210.224013,50.8873161 C209.630981,50.2818968 209.342981,49.5483484 209.342981,48.6452516 C209.342981,47.7920903 209.630981,47.0898968 210.222077,46.4988 C210.816271,45.9080903 211.513045,45.6212516 212.3484,45.6212516 C213.162077,45.6212516 213.846465,45.9220258 214.438723,46.5413806 C215.025174,47.1560903 215.324013,47.9031871 215.324013,48.7644774 L215.324013,48.7644774 Z M217.310206,44.5071871 C217.310206,44.5071871 217.308271,44.5052516 217.308271,44.5044774 C217.290852,44.2834452 217.156529,43.9818968 216.594465,43.9528645 C216.586335,43.9517032 216.579755,43.9478323 216.572787,43.9478323 L216.52711,43.9478323 C216.522077,43.9478323 216.516271,43.9474452 216.50969,43.9474452 L216.43111,43.9474452 C216.429561,43.9474452 216.426465,43.9478323 216.424916,43.9478323 L216.196529,43.9478323 C216.193432,43.9478323 216.193045,43.9474452 216.189561,43.9474452 L216.108271,43.9474452 C216.10169,43.9474452 216.097819,43.9478323 216.092787,43.9478323 L216.08311,43.9478323 L216.077303,43.9478323 C215.410335,43.9621548 215.306594,44.3384129 215.306594,44.5675742 L215.306594,44.8311871 C214.935755,44.5033161 214.536271,44.2424129 214.102723,44.0612516 C213.558465,43.8301548 212.953432,43.7155742 212.306594,43.7155742 C211.588529,43.7155742 210.937819,43.8359613 210.372658,44.0732516 C209.807884,44.3120903 209.281045,44.6840903 208.806077,45.1807355 C208.372529,45.6328645 208.032271,46.1628 207.797303,46.7597032 C207.562335,47.3542839 207.445045,47.9910581 207.445045,48.6510581 C207.445045,50.0732516 207.919626,51.2736387 208.858335,52.218929 C209.796658,53.166929 210.990852,53.6473161 212.406465,53.6473161 C213.014981,53.6473161 213.596013,53.5300258 214.134077,53.2969935 C214.555239,53.1142839 214.949303,52.8599613 215.307755,52.542929 L215.307755,52.8208645 L215.307755,52.8340258 C215.307755,52.8371226 215.308916,52.8390581 215.308916,52.8417677 C215.315497,53.0755742 215.432013,53.4421548 216.112916,53.4421548 L216.172529,53.4421548 L216.193045,53.4421548 L216.198852,53.4421548 L216.429561,53.4421548 L216.482206,53.4421548 L216.508142,53.4421548 C217.206852,53.4421548 217.310981,53.0519613 217.310981,52.8208645 L217.310981,51.4381548 C217.310981,51.4362194 217.310206,51.4362194 217.310206,51.4354452 L217.310206,45.9646065 C217.310206,45.9599613 217.312142,45.954929 217.312142,45.9498968 L217.312142,44.5675742 C217.312142,44.5513161 217.310981,44.5358323 217.310206,44.5199613 L217.310206,44.5071871 Z" id="Fill-30" fill="#003DA6"></path>
                <path d="M237.488865,48.7644774 C237.488865,49.5808645 237.195445,50.2726065 236.596606,50.8849935 C235.995832,51.4938968 235.327316,51.7900258 234.550026,51.7900258 C233.690671,51.7900258 232.984606,51.4962194 232.389252,50.8873161 C231.796219,50.2818968 231.508219,49.5483484 231.508219,48.6452516 C231.508219,47.7920903 231.795058,47.0898968 232.386929,46.4988 C232.981897,45.9080903 233.677897,45.6212516 234.513252,45.6212516 C235.327316,45.6212516 236.010542,45.9220258 236.604348,46.5413806 C237.190413,47.1560903 237.488865,47.9031871 237.488865,48.7644774 L237.488865,48.7644774 Z M239.474284,44.5071871 C239.474284,44.5071871 239.473897,44.5052516 239.473897,44.5044774 C239.455703,44.2834452 239.322929,43.9818968 238.760477,43.9528645 C238.751961,43.9517032 238.746929,43.9478323 238.739574,43.9478323 L238.69351,43.9478323 C238.687316,43.9478323 238.683058,43.9474452 238.675703,43.9474452 L238.595961,43.9474452 C238.594413,43.9474452 238.591316,43.9478323 238.590542,43.9478323 L238.362542,43.9478323 C238.358284,43.9478323 238.355961,43.9474452 238.355961,43.9474452 L238.274671,43.9474452 C238.267703,43.9474452 238.262284,43.9478323 238.257639,43.9478323 L238.247187,43.9478323 L238.242155,43.9478323 C237.575187,43.9621548 237.470671,44.3384129 237.470671,44.5675742 L237.470671,44.8311871 C237.101381,44.5033161 236.70151,44.2424129 236.267961,44.0612516 C235.72409,43.8301548 235.119445,43.7155742 234.471445,43.7155742 C233.754542,43.7155742 233.102284,43.8359613 232.537897,44.0732516 C231.97351,44.3120903 231.446671,44.6840903 230.971316,45.1807355 C230.538542,45.6328645 230.197897,46.1628 229.962929,46.7597032 C229.727961,47.3542839 229.609897,47.9910581 229.609897,48.6510581 C229.609897,50.0732516 230.085252,51.2736387 231.023187,52.218929 C231.961897,53.166929 233.154929,53.6473161 234.571316,53.6473161 C235.179445,53.6473161 235.761639,53.5300258 236.299316,53.2969935 C236.720865,53.1142839 237.114155,52.8599613 237.472606,52.542929 L237.472606,52.8208645 L237.472606,52.8340258 C237.472606,52.8371226 237.474929,52.8390581 237.474929,52.8417677 C237.481897,53.0755742 237.597252,53.4421548 238.278542,53.4421548 L238.337768,53.4421548 L238.355961,53.4421548 L238.364865,53.4421548 L238.594413,53.4421548 L238.647445,53.4421548 L238.673381,53.4421548 C239.371703,53.4421548 239.476606,53.0519613 239.476606,52.8208645 L239.476606,51.4381548 C239.476606,51.4362194 239.474284,51.4362194 239.474284,51.4354452 L239.474284,45.9646065 C239.474284,45.9599613 239.477768,45.954929 239.477768,45.9498968 L239.477768,44.5675742 C239.477768,44.5513161 239.476606,44.5358323 239.474284,44.5199613 L239.474284,44.5071871 Z" id="Fill-32" fill="#003DA6"></path>
                <g id="Group-36" transform="translate(195.483871, 43.533290)">
                    <mask id="mask-4" fill="white">
                        <use xlink:href="#path-3"></use>
                    </mask>
                    <g id="Clip-35"></g>
                    <path d="M8.33229677,5.36314839 C8.33229677,6.17876129 8.03849032,6.87127742 7.43965161,7.48327742 C6.83926452,8.09295484 6.1688129,8.38869677 5.39190968,8.38869677 C4.53449032,8.38869677 3.82649032,8.09450323 3.23190968,7.48753548 C2.64003871,6.88095484 2.35049032,6.14701935 2.35049032,5.24547097 C2.35049032,4.3899871 2.63887742,3.68779355 3.2295871,3.09785806 C3.82378065,2.5059871 4.52132903,2.21953548 5.35629677,2.21953548 C6.1688129,2.21953548 6.8532,2.52030968 7.44739355,3.14237419 C8.03229677,3.75437419 8.33229677,4.50185806 8.33229677,5.36314839 M9.75255484,0.40676129 L9.67087742,0.40676129 C9.66932903,0.40676129 9.66623226,0.407148387 9.66274839,0.407148387 L9.44868387,0.407148387 C9.44790968,0.407148387 9.4452,0.40676129 9.44403871,0.40676129 L9.36003871,0.40676129 C8.66829677,0.40676129 8.5452,0.774503226 8.53629677,1.01489032 L8.53629677,1.0172129 L8.53629677,1.02650323 C8.53629677,1.03269677 8.53474839,1.03734194 8.53474839,1.04430968 L8.53474839,1.33153548 C8.14145806,0.986632258 7.71100645,0.715664516 7.25771613,0.52443871 C6.69178065,0.286374194 6.06545806,0.165987097 5.40197419,0.165987097 C4.66068387,0.165987097 3.98674839,0.290632258 3.40184516,0.5376 C2.81810323,0.782632258 2.27307097,1.16818065 1.78068387,1.68185806 C1.33165161,2.15024516 0.979780645,2.70069677 0.737070968,3.31656774 C0.494748387,3.93243871 0.372812903,4.59127742 0.372812903,5.27527742 C0.372812903,6.74547097 0.86403871,7.98689032 1.83526452,8.96740645 C2.80649032,9.94792258 4.04210323,10.4426323 5.50610323,10.4426323 C6.13474839,10.4426323 6.73745806,10.321471 7.29487742,10.0806968 C7.73190968,9.89101935 8.1368129,9.62856774 8.5092,9.30069677 C8.45578065,10.0741161 8.17978065,10.709729 7.68932903,11.1951484 C7.13694194,11.7355355 6.39797419,12.0115355 5.48945806,12.0115355 C4.9692,12.0115355 4.5015871,11.8996645 4.10016774,11.6828903 C3.69836129,11.4653419 3.37165161,11.1463742 3.12507097,10.7321806 C3.09332903,10.6806968 3.03797419,10.6481806 2.97952258,10.6481806 L1.16094194,10.6481806 C1.10636129,10.6481806 1.05371613,10.6756645 1.02274839,10.7205677 C0.992167742,10.7646968 0.982877419,10.8216 1.00184516,10.8730839 C1.34055484,11.8408258 1.91616774,12.6026323 2.71474839,13.1356645 C3.50868387,13.6659871 4.4772,13.9357935 5.59126452,13.9357935 C7.13539355,13.9357935 8.36597419,13.445729 9.25165161,12.4803097 C10.1322968,11.5176 10.5793935,10.1755355 10.5793935,8.49050323 L10.5793935,1.04430968 L10.5793935,1.04237419 C10.5793935,0.804696774 10.4702323,0.40676129 9.75255484,0.40676129" id="Fill-34" fill="#003DA6" mask="url(#mask-4)"></path>
                </g>
                <path d="M224.318516,43.4842452 C223.729355,43.4842452 223.197484,43.5926323 222.738,43.8066968 C222.502645,43.9150839 222.276581,44.0567613 222.062903,44.2255355 L222.062903,43.9739226 C222.062903,43.787729 221.912323,43.6363742 221.726903,43.6363742 L220.854774,43.6363742 C220.852839,43.6363742 220.850516,43.6352129 220.848194,43.6352129 L220.768065,43.6352129 C219.879677,43.6352129 219.790258,44.2127613 219.786774,44.4152129 C219.786774,44.4186968 219.783677,44.4225677 219.783677,44.4264387 L219.783677,52.7679871 L219.783677,52.7985677 C219.783677,52.9863097 219.856452,53.5967613 220.768065,53.5967613 L220.845484,53.5967613 L220.849355,53.5967613 L220.855935,53.5967613 L221.791161,53.5967613 C221.97929,53.5967613 222.129871,53.4457935 222.129871,53.2592129 L222.129871,49.0383097 C222.129871,47.8239871 222.300968,46.9545677 222.636194,46.4536645 C222.943548,45.9895355 223.445226,45.7638581 224.165613,45.7638581 C224.826774,45.7638581 225.294774,45.9535355 225.594,46.3452774 C225.911806,46.7567613 226.07129,47.4260516 226.07129,48.3303097 L226.07129,53.2592129 C226.07129,53.4457935 226.224194,53.5967613 226.41,53.5967613 L227.363032,53.5967613 L227.443935,53.5967613 L227.484968,53.5967613 C227.490774,53.5967613 227.496194,53.5940516 227.503935,53.5940516 C228.33929,53.5688903 228.424839,53.0064387 228.429484,52.8121161 L228.429484,52.8094065 L228.429484,47.9648903 C228.429484,46.5531484 228.070258,45.4417935 227.364194,44.6652774 C226.651935,43.8825677 225.626129,43.4842452 224.318516,43.4842452" id="Fill-37" fill="#003DA6"></path>
                <path d="M191.661019,43.9428 C191.660245,43.9428 191.658697,43.9404774 191.656761,43.9404774 L191.5116,43.9404774 L191.423729,43.9404774 L190.529923,43.9404774 C190.460245,43.9404774 190.398697,43.9834452 190.374697,44.0492516 L187.623987,51.0448645 L185.088116,44.0538968 C185.06489,43.986929 185.000632,43.9404774 184.931342,43.9404774 L183.962052,43.9404774 L183.874568,43.9404774 L183.857535,43.9404774 C183.57031,43.9404774 183.250181,43.9451226 183.085277,44.1568645 C182.991987,44.2780258 182.97031,44.4413806 183.027213,44.6604774 L183.030697,44.670929 L183.030697,44.6736387 L186.41431,53.7828 L185.8476,55.2228 C185.846439,55.226671 185.840632,55.2289935 185.839471,55.2332516 L185.278181,56.7522194 C185.225923,56.9535097 185.248761,57.1160903 185.341277,57.2388 C185.47831,57.414929 185.722568,57.446671 185.965665,57.4517032 C185.9676,57.4517032 185.969923,57.4544129 185.973406,57.4544129 L186.130568,57.4544129 L186.217277,57.4544129 L187.101794,57.4544129 C187.169923,57.4544129 187.231858,57.4129935 187.257794,57.3487355 L191.801923,46.170929 C191.807342,46.1585419 191.810052,46.1473161 191.812761,46.134929 L191.81431,46.1279613 L192.365535,44.6438323 C192.416245,44.4413806 192.394181,44.2780258 192.299342,44.1568645 C192.160761,43.9772516 191.909148,43.9478323 191.661019,43.9428" id="Fill-39" fill="#003DA6"></path>
            </g>
        </g>
    </g>
</svg>