<?xml version="1.0" encoding="UTF-8"?>
<svg width="240px" height="58px" viewBox="0 0 240 58" version="1.1" xmlns="http://www.w3.org/2000/svg" xmlns:xlink="http://www.w3.org/1999/xlink">
    <!-- Generator: Sketch 64 (93537) - https://sketch.com -->
    <title>Puntada bco</title>
    <desc>Created with Sketch.</desc>
    <defs>
        <polygon id="path-1" points="0.302200794 0.205768823 33.0455701 0.205768823 33.0455701 35.0787741 0.302200794 35.0787741"></polygon>
        <polygon id="path-3" points="0.369170732 0.162612466 10.4749895 0.162612466 10.4749895 13.6585366 0.369170732 13.6585366"></polygon>
    </defs>
    <g id="Page-1" stroke="none" stroke-width="1" fill="none" fill-rule="evenodd">
        <g id="iPhone-11---Splash" transform="translate(-84.000000, -419.000000)">
            <g id="Puntada-bco" transform="translate(84.000000, 419.000000)">
                <path d="M7.4871481,32.3230175 L7.4871481,27.8034946 L7.4871481,7.96255009 C7.4871481,6.73702112 8.72368182,6.76473409 8.72368182,6.76473409 L13.644784,6.76473409 C13.644784,6.76473409 19.8806967,7.05264102 19.8806967,12.064839 C19.8806967,12.064839 20.0074494,16.749485 15.4685918,17.7767893 C15.1276709,17.8630074 14.7052945,17.9407577 14.7052945,17.9407577 C13.2208183,17.9407577 13.3058498,18.9688318 13.3058498,18.9688318 L13.3058498,20.2832732 L13.3058498,21.8444369 L13.3058498,23.160033 C13.3058498,23.160033 13.2208183,24.1869524 14.7064865,24.1869524 C14.7064865,24.1869524 19.8377836,24.598413 23.9951911,20.2832732 C23.9951911,20.2832732 28.9576171,16.174441 26.751962,8.69501919 C26.751962,8.69501919 24.5041885,0.734854445 15.5961392,0.734854445 L4.60958473,0.734854445 L3.84589006,0.734854445 L2.95544274,0.734854445 L1.93347464,0.734854445 C0.865414666,0.734854445 0,1.03392354 0,2.06815606 L0,6.14812058 L0,26.733851 L0,32.1432681 L0,33.9846408 C0,35.0181035 0.865414666,35.8568057 1.93347464,35.8568057 L5.45513221,35.8568057 C6.52319219,35.8568057 7.4871481,34.9234176 7.4871481,33.8880303 L7.4871481,32.3230175" id="Fill-1" fill="#FFFFFF"></path>
                <g id="Group-5" transform="translate(67.317073, 0.734854)">
                    <mask id="mask-2" fill="white">
                        <use xlink:href="#path-1"></use>
                    </mask>
                    <g id="Clip-4"></g>
                    <path d="M27.9176064,35.0787741 L33.0455701,35.0787741 L33.0455701,9.27024814 L33.0455701,3.92560339 L33.0455701,2.10689714 C33.0455701,1.08454295 32.2051163,0.256504772 31.1679524,0.256504772 L27.7505956,0.256504772 C26.7134317,0.256504772 25.7761656,1.17921951 25.7761656,2.20119194 L25.7761656,3.74808484 L25.7761656,23.4660064 L8.30213273,1.20556098 C8.30213273,1.20556098 7.33825298,0.216038176 5.99638117,0.216038176 L2.87640386,0.205730647 L0.302200794,0.205730647 L0.302200794,26.0638855 L0.302200794,31.4096755 L0.302200794,33.2287635 C0.302200794,34.2511177 1.14226886,35.0787741 2.17866137,35.0787741 L5.59756098,35.0787741 C6.63318208,35.0787741 7.57083381,34.1568229 7.57083381,33.1337052 L7.57083381,31.5868123 L7.57083381,27.1198346 L7.57083381,11.6898452 L24.6229041,33.6170138 C24.6229041,33.6170138 25.7352808,35.0787741 26.3940669,35.0787741 L27.9176064,35.0787741 Z" id="Fill-3" fill="#FFFFFF" mask="url(#mask-2)"></path>
                </g>
                <path d="M124.223662,32.3221266 L124.223662,27.8014641 L124.223662,3.82447427 L126.043526,6.53294474 C126.043526,6.53294474 126.412515,7.11737376 127.176762,7.24519355 L131.932611,7.25019854 L133.994885,7.25019854 C135.063638,7.25019854 135.587864,6.82092426 135.587864,5.78643099 L135.609756,4.27030353 L135.609756,2.27600687 C135.609756,1.2415136 135.165935,0.734854445 134.097183,0.734854445 L130.43795,0.734854445 L110.538058,0.734854445 L106.880019,0.734854445 C105.809674,0.734854445 105.365854,1.2415136 105.365854,2.27600687 L105.365854,4.27030353 L105.38894,5.78643099 C105.38894,6.82092426 105.91237,7.25019854 106.982715,7.25019854 L109.042999,7.25019854 L116.75155,7.25019854 L116.75155,22.3479483 L116.723687,26.7315509 L116.723687,32.1423319 L116.723687,33.9841688 C116.723687,35.0178921 117.591028,35.8568057 118.660179,35.8568057 L122.188057,35.8568057 C123.257207,35.8568057 124.223662,34.9231822 124.223662,33.887534 L124.223662,32.3221266" id="Fill-6" fill="#FFFFFF"></path>
                <path d="M32.195122,4.20903747 L32.195122,2.66893175 C32.195122,1.65206954 33.1199919,0.734854445 34.1427847,0.734854445 L37.5153409,0.734854445 C38.5369771,0.734854445 39.3666228,1.55742402 39.3666228,2.57505571 L39.3666228,4.38486267 L39.3666228,9.70078591 L39.3454191,13.5627847 L39.3454191,21.5591767 C39.3454191,25.9313379 42.9103513,29.4755433 47.3068568,29.4755433 C51.7045189,29.4755433 55.2690656,25.9313379 55.2690656,21.5591767 L55.2690656,13.5627847 L55.2690656,4.20903747 L55.2690656,2.66893175 C55.2690656,1.65206954 56.1931645,0.734854445 57.2159573,0.734854445 L60.5885135,0.734854445 C61.6105352,0.734854445 62.4390244,1.55742402 62.4390244,2.57505571 L62.4390244,4.38486267 L62.4390244,9.70078591 L62.4185917,17.4528694 L62.4185917,21.6261211 C62.4185917,29.4851617 55.6526611,35.8568057 47.3068568,35.8568057 C38.9618236,35.8568057 32.195122,29.4851617 32.195122,21.6261211 L32.195122,17.4528694 L32.195122,8.65199046 L32.195122,4.20903747" id="Fill-8" fill="#FFFFFF"></path>
                <path d="M180.777411,8.20399695 L180.777411,24.3937494 L173.658537,24.3937494 L173.658537,0.734854445 L189.076635,0.734854445 C198.843237,0.734854445 206.829268,8.89557709 206.829268,18.1498897 C206.829268,27.4049725 199.273213,35.8167587 189.200243,35.8167587 L177.163563,35.8568057 L175.624521,35.8568057 C174.607214,35.8568057 173.658537,34.7836242 173.658537,33.5980033 L173.658537,32.9372285 L173.658537,32.2329411 L173.658537,31.3307294 C173.658537,30.2914339 174.744852,29.3534109 175.903968,29.3534109 L177.419122,29.3534109 L188.557554,29.3122088 C194.897618,29.3122088 199.651623,24.0194643 199.651623,18.1964828 C199.651623,12.3735013 194.62765,7.23824918 188.48172,7.23824918 L180.777411,7.23824918 L180.777411,8.20399695 Z" id="Fill-10" fill="#FFFFFF"></path>
                <path d="M149.097128,0.734854445 L146.743905,0.734854445 C145.685246,0.734854445 145.450118,1.67030127 145.450118,1.67030127 L145.168741,2.49381758 L133.803313,34.8448153 C133.803313,34.8448153 133.410008,35.7791082 133.919906,35.8568057 L140.313445,35.8568057 C140.313445,35.8568057 141.058859,35.7406441 141.410968,34.8059665 L142.823679,30.8730127 C142.823679,30.8730127 143.113994,30.059497 144.006704,29.4344555 L149.483826,24.2441103 L145.002403,24.2441103 L149.816503,9.96239121 L150.270825,8.60383932 L151.228049,11.4194112 L155.484061,24.2441103 L157.664727,30.8730127 L159.076661,34.8059665 C159.429159,35.7406441 160.174962,35.8568057 160.174962,35.8568057 L166.566558,35.8568057 C167.07801,35.7791082 166.685093,34.8448153 166.685093,34.8448153 L155.318111,2.49381758 L155.038289,1.67030127 C155.038289,1.67030127 154.802772,0.734854445 153.743724,0.734854445 L151.391278,0.734854445 L149.097128,0.734854445 Z" id="Fill-12" fill="#FFFFFF"></path>
                <path d="M222.267649,0.734854445 L219.91474,0.734854445 C218.855659,0.734854445 218.620912,1.67030127 218.620912,1.67030127 L218.340693,2.49381758 L206.974131,34.8448153 C206.974131,34.8448153 206.580425,35.7791082 207.091116,35.8568057 L213.483301,35.8568057 C213.483301,35.8568057 214.228739,35.7406441 214.582025,34.8059665 L215.993614,30.8730127 C215.993614,30.8730127 216.283939,30.059497 217.179008,29.4344555 L222.655525,24.2441103 L218.174349,24.2441103 L222.987435,9.96239121 L223.440994,8.60383932 L224.39747,11.4194112 L228.655947,24.2441103 L230.835905,30.8730127 L232.248272,34.8059665 C232.600003,35.7406441 233.345829,35.8568057 233.345829,35.8568057 L239.738792,35.8568057 C240.248316,35.7791082 239.855388,34.8448153 239.855388,34.8448153 L228.490381,2.49381758 L228.208995,1.67030127 C228.208995,1.67030127 227.97386,0.734854445 226.91439,0.734854445 L224.562259,0.734854445 L222.267649,0.734854445 Z" id="Fill-14" fill="#FFFFFF"></path>
                <path d="M125.688812,49.581101 L123.495951,49.581101 C123.429501,49.581101 123.370265,49.6190099 123.343685,49.6775623 C123.150789,50.1046942 122.545142,51.0997088 121.074501,51.0997088 C119.633098,51.0997088 118.588499,50.0187423 118.588499,48.5301614 C118.588499,47.8117691 118.840631,47.1342884 119.273887,46.6748777 C119.784225,46.1873168 120.334814,45.9591128 121.00843,45.9591128 L121.074501,45.9609894 C122.117202,45.9609894 122.965867,46.5206148 123.341407,47.4589537 C123.366088,47.5212594 123.426463,47.5606697 123.495951,47.5606697 L125.688812,47.5606697 C125.737416,47.5606697 125.786019,47.5389002 125.817916,47.49949 C125.848673,47.4608304 125.860824,47.4082834 125.848673,47.3609911 C125.314792,45.1472619 123.362671,43.6616837 120.992482,43.6616837 C118.248653,43.6616837 116.097561,45.8010965 116.097561,48.5301614 C116.097561,51.2716125 118.283207,53.4177813 121.074501,53.4177813 C123.371404,53.4177813 125.288971,51.9558492 125.848673,49.7834069 C125.861203,49.7349886 125.849812,49.6835677 125.817916,49.6434067 C125.786019,49.6032458 125.738175,49.581101 125.688812,49.581101" id="Fill-16" fill="#FFFFFF"></path>
                <path d="M152.194013,48.2396102 C152.194013,46.3759167 152.043923,45.5497115 151.192922,44.627328 C150.408462,43.7852862 149.327151,43.6616837 148.752669,43.6616837 C147.863591,43.6616837 147.032183,43.9954104 146.41297,44.6049251 C146.190423,44.8235469 146.023328,45.0537565 145.893571,45.2600182 C145.777491,45.0518253 145.623335,44.8104142 145.478051,44.6462546 C144.895807,43.9915478 144.132789,43.6616837 143.208591,43.6616837 C142.016745,43.6616837 141.235243,44.2472504 140.823421,44.7300726 L140.823421,44.5732519 C140.823421,44.5678443 140.821572,44.5624367 140.821572,44.5574154 L140.821572,44.5257422 C140.821572,44.5218797 140.820463,44.5195621 140.820463,44.5156995 C140.803088,44.2789236 140.670004,43.9417206 140.038962,43.9417206 L139.959111,43.9417206 C139.956523,43.9417206 139.955414,43.9436519 139.952826,43.9436519 L139.408289,43.9436519 C139.405701,43.9436519 139.402374,43.9417206 139.402004,43.9417206 L139.321045,43.9417206 C139.31439,43.9417206 139.307366,43.9436519 139.300343,43.9436519 L139.281489,43.9436519 C139.276313,43.9436519 139.274465,43.9455831 139.272617,43.9455831 C138.637877,43.9664411 138.536585,44.3438149 138.536585,44.5732519 L138.536585,45.989659 C138.536585,45.9966116 138.540282,46.0020193 138.541761,46.0093582 L138.541761,51.3601864 C138.541761,51.3625039 138.540282,51.3648215 138.540282,51.3679115 L138.540282,52.7854774 C138.540282,53.0195496 138.640465,53.41585 139.322523,53.41585 L139.341007,53.41585 C139.341007,53.41585 139.343965,53.4177813 139.345443,53.4177813 L140.162804,53.4177813 C140.164652,53.4177813 140.165762,53.4150775 140.16724,53.4150775 C140.818615,53.4139187 140.936543,53.053154 140.945785,52.816378 C140.946524,52.8098116 140.95096,52.804404 140.95096,52.7982239 L140.95096,48.3056603 C140.95096,47.7054158 141.056688,47.2017357 141.264078,46.8085254 C141.452984,46.4597347 141.842996,46.0441213 142.615995,46.0441213 C143.225966,46.0572541 143.648879,46.3071629 143.908393,46.8008002 C144.133528,47.266627 144.164581,47.7903925 144.164581,48.2396102 L144.164581,52.7456928 C144.164581,52.7487829 144.16569,52.7495554 144.16569,52.7541905 L144.16569,52.7854774 C144.16569,53.0180045 144.267722,53.4069661 144.931665,53.4139187 C144.937211,53.4150775 144.940907,53.4177813 144.947562,53.4177813 L145.771207,53.4177813 C145.773795,53.4177813 145.774904,53.41585 145.777491,53.41585 L145.790061,53.41585 C146.473228,53.41585 146.574889,53.0195496 146.574889,52.7854774 L146.574889,51.3679115 C146.574889,51.364049 146.571562,51.3601864 146.571562,51.3559376 L146.571562,48.2396102 C146.571562,47.7502217 146.595591,47.2704896 146.853997,46.7911438 C147.11536,46.3102529 147.602967,46.0441213 148.226986,46.0441213 C148.83326,46.0441213 149.23547,46.2596532 149.462453,46.7173686 C149.748585,47.1731527 149.785923,47.7838261 149.785923,48.3226557 L149.785923,52.7456928 C149.785923,52.7460791 149.786292,52.7480104 149.786292,52.7487829 L149.786292,52.7854774 C149.786292,53.0195496 149.889803,53.41585 150.571121,53.41585 L150.596999,53.41585 C150.598478,53.41585 150.601065,53.4177813 150.601065,53.4177813 L151.42582,53.4177813 C151.428038,53.4177813 151.430625,53.4139187 151.436171,53.4139187 C152.0942,53.4050348 152.195122,53.0168458 152.195122,52.7854774 L152.195122,51.3679115 C152.195122,51.3659803 152.194013,51.3648215 152.194013,51.364049 L152.194013,48.2396102 Z" id="Fill-18" fill="#FFFFFF"></path>
                <path d="M167.609427,40.7348544 L165.072152,40.7348544 C164.963418,40.7348544 164.878049,40.8099678 164.878049,40.9032787 L164.878049,53.2478083 C164.878049,53.3418936 164.963418,53.4177813 165.072152,53.4177813 L167.609427,53.4177813 C167.717262,53.4177813 167.804878,53.3418936 167.804878,53.2478083 L167.804878,40.9032787 C167.804878,40.8099678 167.717262,40.7348544 167.609427,40.7348544" id="Fill-20" fill="#FFFFFF"></path>
                <path d="M135.609756,44.2454743 C135.609756,44.2416132 135.60667,44.2389105 135.60667,44.2350494 C135.588537,44.0022282 135.450805,43.6755835 134.824261,43.6640003 C134.822718,43.6640003 134.822718,43.6636142 134.821561,43.6636142 L134.813845,43.6636142 C134.807286,43.6636142 134.801499,43.6616837 134.791854,43.6616837 L134.711221,43.6616837 C134.708135,43.6616837 134.704663,43.6636142 134.701576,43.6636142 L134.00173,43.6636142 C133.997872,43.6636142 133.995171,43.6616837 133.99247,43.6616837 L133.91068,43.6616837 C133.902578,43.6616837 133.89602,43.6636142 133.887918,43.6636142 L133.862841,43.6636142 C133.858983,43.6636142 133.857054,43.6655448 133.853967,43.666317 C133.198488,43.6883249 133.092006,44.0643911 133.092006,44.2929652 L133.092006,45.7088117 C133.092006,45.7161477 133.094707,45.721167 133.09625,45.728503 L133.09625,48.872941 C133.09625,50.3069344 132.44733,51.0331977 131.169165,51.0331977 L131.134828,51.0351282 C129.911448,51.0351282 129.34316,50.3258536 129.34316,48.8057587 L129.34316,44.2902624 C129.34316,44.2852431 129.341617,44.281382 129.340459,44.2771349 C129.335444,44.0443136 129.220475,43.6763557 128.556122,43.6640003 C128.555736,43.6640003 128.555736,43.6636142 128.553807,43.6636142 L128.54532,43.6636142 C128.536832,43.6636142 128.530659,43.6616837 128.522943,43.6616837 L128.44231,43.6616837 C128.438838,43.6616837 128.436137,43.6636142 128.434208,43.6636142 L127.739377,43.6636142 C127.737448,43.6636142 127.735133,43.6616837 127.732433,43.6616837 L127.649485,43.6616837 C126.94308,43.6616837 126.83467,44.0512635 126.832741,44.2875597 C126.831969,44.2929652 126.829268,44.2948957 126.829268,44.299915 L126.829268,49.3547999 C126.829268,52.8702846 129.162218,53.4089009 130.552652,53.4177813 L130.605893,53.4177813 C131.960447,53.4177813 132.759059,52.8857288 133.228195,52.3088881 L133.228195,52.5227902 C133.228195,52.5274235 133.232825,52.5308984 133.232825,52.5355317 C133.240541,52.7733723 133.369013,53.1324498 134.04764,53.1324498 L134.128273,53.1324498 C134.130202,53.1324498 134.130202,53.1339942 134.133674,53.1339942 L134.791854,53.1339942 C134.797641,53.1339942 134.800342,53.1316776 134.8042,53.1305193 C135.472024,53.1231833 135.595481,52.7683529 135.604355,52.5328289 C135.604355,52.5262652 135.609756,52.5212458 135.609756,52.514682 L135.609756,45.7107422 L135.609756,45.7088117 L135.609756,44.2929652 L135.609756,44.2875597 L135.609756,44.2454743 Z" id="Fill-22" fill="#FFFFFF"></path>
                <path d="M162.926829,44.2454743 C162.926829,44.2416132 162.923743,44.2389105 162.922586,44.2350494 C162.905611,44.0022282 162.768657,43.6755835 162.142526,43.6640003 C162.141369,43.6640003 162.140212,43.6636142 162.13944,43.6636142 L162.13211,43.6636142 C162.123237,43.6636142 162.118608,43.6616837 162.109735,43.6616837 L162.026791,43.6616837 C162.02409,43.6616837 162.02139,43.6636142 162.018689,43.6636142 L161.317716,43.6636142 C161.315016,43.6636142 161.313087,43.6616837 161.31,43.6616837 L161.228214,43.6616837 C161.218955,43.6616837 161.213554,43.6636142 161.204681,43.6636142 L161.179991,43.6636142 C161.176133,43.6636142 161.174975,43.6655448 161.171503,43.666317 C160.51451,43.6883249 160.409962,44.0643911 160.409962,44.2929652 L160.409962,45.7088117 C160.409962,45.7161477 160.412662,45.721167 160.412662,45.728503 L160.412662,48.872941 C160.412662,50.3069344 159.764542,51.0331977 158.488362,51.0331977 C158.486819,51.0331977 158.451327,51.0351282 158.451327,51.0351282 C157.228385,51.0351282 156.659737,50.3258536 156.659737,48.8057587 L156.659737,44.2902624 C156.659737,44.2836986 156.657422,44.2798376 156.657422,44.2732738 C156.652793,44.0412248 156.5359,43.6763557 155.871962,43.6640003 C155.871962,43.6640003 155.871576,43.6636142 155.869647,43.6636142 L155.861932,43.6636142 C155.854216,43.6636142 155.847657,43.6616837 155.840713,43.6616837 L155.758927,43.6616837 C155.756226,43.6616837 155.753526,43.6636142 155.751597,43.6636142 L155.058339,43.6636142 C155.05371,43.6636142 155.052553,43.6616837 155.050624,43.6616837 L154.967294,43.6616837 C154.26092,43.6616837 154.150971,44.0512635 154.149042,44.2875597 C154.149042,44.2929652 154.146341,44.2948957 154.146341,44.299915 L154.146341,49.3547999 C154.146341,52.8702846 156.479189,53.4089009 157.869176,53.4177813 L157.921643,53.4177813 C159.276909,53.4177813 160.078572,52.8857288 160.545373,52.3088881 L160.545373,52.5227902 C160.545373,52.5262652 160.549616,52.5301262 160.549616,52.5343734 C160.558489,52.7710556 160.683098,53.1324498 161.365939,53.1324498 L161.44464,53.1324498 C161.446569,53.1324498 161.447726,53.1339942 161.448883,53.1339942 L162.109735,53.1339942 C162.112435,53.1339942 162.118608,53.1316776 162.12208,53.1305193 C162.787561,53.1231833 162.912555,52.7683529 162.920271,52.5328289 C162.921042,52.5262652 162.926829,52.5212458 162.926829,52.514682 L162.926829,45.7107422 L162.926829,45.7088117 L162.926829,44.2929652 L162.926829,44.2875597 L162.926829,44.2454743 Z" id="Fill-24" fill="#FFFFFF"></path>
                <path d="M176.57021,48.621103 C176.57021,49.4230209 176.280497,50.1025028 175.688059,50.7040363 C175.095621,51.3021477 174.432763,51.5930283 173.665808,51.5930283 C172.815039,51.5930283 172.116972,51.3044291 171.529892,50.7063177 C170.942046,50.1116285 170.658074,49.3914613 170.658074,48.5039903 C170.658074,47.66595 170.942046,46.9762017 171.527213,46.3959614 C172.114293,45.8153409 172.80241,45.533586 173.628302,45.533586 C174.432763,45.533586 175.110164,45.8294097 175.697244,46.4374072 C176.274757,47.0412221 176.57021,47.7750777 176.57021,48.621103 L176.57021,48.621103 Z M178.533141,44.4392665 L178.533141,44.4366049 C178.516684,44.2194901 178.384649,43.9232861 177.827037,43.8947684 C177.818235,43.8936277 177.813642,43.8898254 177.805605,43.8898254 L177.761593,43.8898254 C177.755853,43.8898254 177.75126,43.8894451 177.743223,43.8894451 L177.664767,43.8894451 C177.662088,43.8894451 177.66094,43.8898254 177.657496,43.8898254 L177.433609,43.8898254 C177.430547,43.8898254 177.429399,43.8894451 177.427103,43.8894451 L177.346351,43.8894451 C177.339845,43.8894451 177.335252,43.8898254 177.330277,43.8898254 L177.320709,43.8898254 L177.314968,43.8898254 C176.656703,43.9038941 176.552223,44.2734836 176.552223,44.4985833 L176.552223,44.7575241 C176.189029,44.4354642 175.790243,44.179185 175.363519,44.0012345 C174.825043,43.7742336 174.227247,43.6616837 173.587735,43.6616837 C172.878187,43.6616837 172.234082,43.7799371 171.675322,44.0130219 C171.117711,44.2476275 170.596074,44.6130344 170.125338,45.1008773 C169.698614,45.5449931 169.362976,46.0655363 169.129521,46.6518603 C168.898363,47.2359029 168.780488,47.8613913 168.780488,48.5096938 C168.780488,49.9066812 169.251606,51.0857933 170.179683,52.0143299 C171.105464,52.9455281 172.285365,53.4177813 173.687623,53.4177813 C174.288098,53.4177813 174.863697,53.3021895 175.394136,53.0732874 C175.812058,52.8938159 176.201276,52.6440008 176.555285,52.3325875 L176.555285,52.605597 L176.555285,52.618525 C176.555285,52.6215669 176.555667,52.6234681 176.555667,52.6261297 C176.562556,52.8557923 176.678901,53.2158759 177.350178,53.2158759 L177.409115,53.2158759 L177.429399,53.2158759 L177.436288,53.2158759 L177.663236,53.2158759 L177.715285,53.2158759 L177.742458,53.2158759 C178.431722,53.2158759 178.53582,52.8325979 178.53582,52.605597 L178.53582,51.2473937 C178.53582,51.2454925 178.533141,51.2454925 178.533141,51.244732 L178.533141,45.8708554 C178.533141,45.8662926 178.536585,45.8613495 178.536585,45.8564064 L178.536585,44.4985833 C178.536585,44.4826134 178.53582,44.467404 178.533141,44.4518143 L178.533141,44.4392665 Z" id="Fill-26" fill="#FFFFFF"></path>
                <path d="M113.153663,48.621103 C113.153663,49.4230209 112.865481,50.1025028 112.271511,50.7040363 C111.679838,51.3021477 111.016981,51.5930283 110.250409,51.5930283 C109.398874,51.5930283 108.701573,51.3044291 108.113344,50.7063177 C107.526264,50.1116285 107.241143,49.3914613 107.241143,48.5039903 C107.241143,47.66595 107.526264,46.9762017 108.111813,46.3959614 C108.699659,45.8153409 109.387775,45.533586 110.213285,45.533586 C111.016981,45.533586 111.693616,45.8294097 112.281079,46.4374072 C112.859357,47.0412221 113.153663,47.7750777 113.153663,48.621103 L113.153663,48.621103 Z M115.119272,44.4392665 C115.119272,44.4392665 115.118124,44.4373653 115.118124,44.4366049 C115.099371,44.2194901 114.968101,43.9232861 114.410489,43.8947684 C114.403983,43.8936277 114.39786,43.8898254 114.390206,43.8898254 L114.344663,43.8898254 C114.338539,43.8898254 114.334712,43.8894451 114.327058,43.8894451 L114.248985,43.8894451 C114.245158,43.8894451 114.24401,43.8898254 114.241713,43.8898254 L114.018209,43.8898254 C114.015913,43.8898254 114.013234,43.8894451 114.010172,43.8894451 L113.932482,43.8894451 C113.924062,43.8894451 113.920235,43.8898254 113.913729,43.8898254 L113.904544,43.8898254 L113.899569,43.8898254 C113.241304,43.9038941 113.137589,44.2734836 113.137589,44.4985833 L113.137589,44.7575241 C112.771716,44.4354642 112.375226,44.179185 111.948885,44.0012345 C111.410409,43.7742336 110.812613,43.6616837 110.171187,43.6616837 C109.463552,43.6616837 108.8183,43.7799371 108.260305,44.0130219 C107.701928,44.2476275 107.180292,44.6130344 106.711087,45.1008773 C106.282832,45.5449931 105.946428,46.0655363 105.712591,46.6518603 C105.482198,47.2359029 105.365854,47.8613913 105.365854,48.5096938 C105.365854,49.9066812 105.835824,51.0857933 106.763136,52.0143299 C107.69083,52.9455281 108.870731,53.4177813 110.271075,53.4177813 C110.872316,53.4177813 111.446384,53.3021895 111.979502,53.0732874 C112.395127,52.8938159 112.785111,52.6440008 113.140268,52.3325875 L113.140268,52.605597 L113.140268,52.618525 C113.140268,52.6215669 113.141416,52.6234681 113.141416,52.6261297 C113.147157,52.8557923 113.262353,53.2158759 113.93363,53.2158759 L113.99295,53.2158759 L114.013234,53.2158759 L114.01974,53.2158759 L114.246689,53.2158759 L114.300651,53.2158759 L114.326675,53.2158759 C115.01594,53.2158759 115.120038,52.8325979 115.120038,52.605597 L115.120038,51.2473937 C115.120038,51.2454925 115.119272,51.2454925 115.119272,51.244732 L115.119272,45.8708554 C115.119272,45.8662926 115.121951,45.8613495 115.121951,45.8564064 L115.121951,44.4985833 C115.121951,44.4826134 115.120038,44.467404 115.119272,44.4518143 L115.119272,44.4392665 Z" id="Fill-28" fill="#FFFFFF"></path>
                <path d="M215.595212,48.621103 C215.595212,49.4230209 215.306242,50.1025028 214.712226,50.7040363 C214.120124,51.3021477 213.457597,51.5930283 212.689433,51.5930283 C211.839746,51.5930283 211.140859,51.3044291 210.552584,50.7063177 C209.966223,50.1116285 209.681463,49.3914613 209.681463,48.5039903 C209.681463,47.66595 209.966223,46.9762017 210.55067,46.3959614 C211.138179,45.8153409 211.827115,45.533586 212.653073,45.533586 C213.457597,45.533586 214.134285,45.8294097 214.719881,46.4374072 C215.299735,47.0412221 215.595212,47.7750777 215.595212,48.621103 L215.595212,48.621103 Z M217.559062,44.4392665 C217.559062,44.4392665 217.557148,44.4373653 217.557148,44.4366049 C217.539925,44.2194901 217.407113,43.9232861 216.851372,43.8947684 C216.843334,43.8936277 216.836827,43.8898254 216.829938,43.8898254 L216.784775,43.8898254 C216.779799,43.8898254 216.774058,43.8894451 216.767551,43.8894451 L216.689854,43.8894451 C216.688323,43.8894451 216.685262,43.8898254 216.683731,43.8898254 L216.457913,43.8898254 C216.454851,43.8898254 216.454468,43.8894451 216.451023,43.8894451 L216.370648,43.8894451 C216.364141,43.8894451 216.360313,43.8898254 216.355338,43.8898254 L216.345769,43.8898254 L216.340028,43.8898254 C215.680563,43.9038941 215.577988,44.2734836 215.577988,44.4985833 L215.577988,44.7575241 C215.211322,44.4354642 214.816332,44.179185 214.38766,44.0012345 C213.849525,43.7742336 213.251299,43.6616837 212.611737,43.6616837 C211.90175,43.6616837 211.258361,43.7799371 210.699557,44.0130219 C210.141136,44.2476275 209.620224,44.6130344 209.150599,45.1008773 C208.721928,45.5449931 208.385498,46.0655363 208.153173,46.6518603 C207.920849,47.2359029 207.804878,47.8613913 207.804878,48.5096938 C207.804878,49.9066812 208.27412,51.0857933 209.20227,52.0143299 C210.130037,52.9455281 211.310796,53.4177813 212.710484,53.4177813 C213.312155,53.4177813 213.886651,53.3021895 214.418663,53.0732874 C214.835086,52.8938159 215.224717,52.6440008 215.579137,52.3325875 L215.579137,52.605597 L215.579137,52.618525 C215.579137,52.6215669 215.580285,52.6234681 215.580285,52.6261297 C215.586792,52.8557923 215.701997,53.2158759 216.37524,53.2158759 L216.434183,53.2158759 L216.454468,53.2158759 L216.460209,53.2158759 L216.688323,53.2158759 L216.740376,53.2158759 L216.76602,53.2158759 C217.45687,53.2158759 217.559827,52.8325979 217.559827,52.605597 L217.559827,51.2473937 C217.559827,51.2454925 217.559062,51.2454925 217.559062,51.244732 L217.559062,45.8708554 C217.559062,45.8662926 217.560976,45.8613495 217.560976,45.8564064 L217.560976,44.4985833 C217.560976,44.4826134 217.559827,44.467404 217.559062,44.4518143 L217.559062,44.4392665 Z" id="Fill-30" fill="#FFFFFF"></path>
                <path d="M238.033625,48.621103 C238.033625,49.4230209 237.743529,50.1025028 237.151474,50.7040363 C236.557504,51.3021477 235.896561,51.5930283 235.128075,51.5930283 C234.278454,51.5930283 233.580387,51.3044291 232.991776,50.7063177 C232.405461,50.1116285 232.120723,49.3914613 232.120723,48.5039903 C232.120723,47.66595 232.404312,46.9762017 232.989479,46.3959614 C233.577708,45.8153409 234.265824,45.533586 235.091717,45.533586 C235.896561,45.533586 236.572047,45.8294097 237.159128,46.4374072 C237.738554,47.0412221 238.033625,47.7750777 238.033625,48.621103 L238.033625,48.621103 Z M239.996556,44.4392665 C239.996556,44.4392665 239.996173,44.4373653 239.996173,44.4366049 C239.978185,44.2194901 239.846915,43.9232861 239.290834,43.8947684 C239.282415,43.8936277 239.277057,43.8898254 239.270168,43.8898254 L239.224625,43.8898254 C239.218502,43.8898254 239.214292,43.8894451 239.20702,43.8894451 L239.128182,43.8894451 C239.126651,43.8894451 239.123589,43.8898254 239.122824,43.8898254 L238.897406,43.8898254 C238.893197,43.8898254 238.8909,43.8894451 238.8909,43.8894451 L238.810531,43.8894451 C238.803642,43.8894451 238.798284,43.8898254 238.793691,43.8898254 L238.783358,43.8898254 L238.778383,43.8898254 C238.11897,43.9038941 238.015638,44.2734836 238.015638,44.4985833 L238.015638,44.7575241 C237.65053,44.4354642 237.255189,44.179185 236.826551,44.0012345 C236.28884,43.7742336 235.691044,43.6616837 235.050384,43.6616837 C234.341601,43.6616837 233.696731,43.7799371 233.138354,44.0130219 C232.580743,44.2476275 232.059871,44.6130344 231.589901,45.1008773 C231.162029,45.5449931 230.825242,46.0655363 230.592936,46.6518603 C230.36063,47.2359029 230.243902,47.8613913 230.243902,48.5096938 C230.243902,49.9066812 230.713873,51.0857933 231.641184,52.0143299 C232.569261,52.9455281 233.74878,53.4177813 235.149124,53.4177813 C235.750365,53.4177813 236.325964,53.3021895 236.857551,53.0732874 C237.274324,52.8938159 237.66316,52.6440008 238.017551,52.3325875 L238.017551,52.605597 L238.017551,52.618525 C238.017551,52.6215669 238.019847,52.6234681 238.019847,52.6261297 C238.026736,52.8557923 238.140784,53.2158759 238.814358,53.2158759 L238.872913,53.2158759 L238.8909,53.2158759 L238.899703,53.2158759 L239.126651,53.2158759 L239.179082,53.2158759 L239.204724,53.2158759 C239.895137,53.2158759 239.998852,52.8325979 239.998852,52.605597 L239.998852,51.2473937 C239.998852,51.2454925 239.996556,51.2454925 239.996556,51.244732 L239.996556,45.8708554 C239.996556,45.8662926 240,45.8613495 240,45.8564064 L240,44.4985833 C240,44.4826134 239.998852,44.467404 239.996556,44.4518143 L239.996556,44.4392665 Z" id="Fill-32" fill="#FFFFFF"></path>
                <g id="Group-36" transform="translate(195.121951, 43.661684)">
                    <mask id="mask-4" fill="white">
                        <use xlink:href="#path-3"></use>
                    </mask>
                    <g id="Clip-35"></g>
                    <path d="M8.25007666,5.2564878 C8.25007666,6.0558916 7.95917073,6.73464499 7.3662439,7.33448238 C6.77178397,7.93242276 6.10795122,8.22190786 5.33871777,8.22190786 C4.48976307,8.22190786 3.78875261,7.93356098 3.20004181,7.33865583 C2.61401394,6.74413008 2.32732404,6.02478049 2.32732404,5.14114905 C2.32732404,4.30266667 2.61286411,3.61442818 3.19774216,3.0362168 C3.78606969,2.4561084 4.47673171,2.17534959 5.30345645,2.17534959 C6.10795122,2.17534959 6.78558188,2.47014634 7.37390941,3.07984824 C7.95303833,3.67968564 8.25007666,4.41231436 8.25007666,5.2564878 M9.65631359,0.398601626 L9.57544251,0.398601626 C9.57390941,0.398601626 9.57084321,0.39898103 9.56739373,0.39898103 L9.35544251,0.39898103 C9.35467596,0.39898103 9.35199303,0.398601626 9.35084321,0.398601626 L9.26767247,0.398601626 C8.58275958,0.398601626 8.46087805,0.75903523 8.45206272,0.994644986 L8.45206272,0.996921409 L8.45206272,1.0060271 C8.45206272,1.01247696 8.45052962,1.01665041 8.45052962,1.02347967 L8.45052962,1.30499729 C8.06112195,0.966948509 7.63491986,0.701365854 7.18610453,0.513940379 C6.6257561,0.280607046 6.00561672,0.162612466 5.34868293,0.162612466 C4.6147108,0.162612466 3.94742857,0.284401084 3.36829965,0.526840108 C2.79032056,0.76700271 2.25066899,1.14488889 1.76314286,1.64835772 C1.31854355,2.10743631 0.970146341,2.64694851 0.729832753,3.25057995 C0.489902439,3.85421138 0.369170732,4.49995664 0.369170732,5.17036314 C0.369170732,6.61133875 0.855547038,7.82808672 1.81718467,8.78911653 C2.7788223,9.75014634 4.00223693,10.2350244 5.45178397,10.2350244 C6.074223,10.2350244 6.67098258,10.116271 7.22251568,9.88028184 C7.65561672,9.69475339 8.05652265,9.43713821 8.42523345,9.1157832 C8.37234146,9.87383198 8.0990662,10.496813 7.61345645,10.9725854 C7.06652265,11.5026125 6.33485017,11.772748 5.43530314,11.772748 C4.92018118,11.772748 4.45718467,11.6631003 4.05972822,11.4506341 C3.6618885,11.2374092 3.33840418,10.9247805 3.09425784,10.5188184 C3.06282927,10.4683577 3.00802091,10.4364878 2.95014634,10.4364878 L1.14951916,10.4364878 C1.09547735,10.4364878 1.04335192,10.4634255 1.0126899,10.5074363 C0.98241115,10.5506883 0.973212544,10.6064607 0.991993031,10.6569214 C1.32735889,11.6054309 1.8972892,12.3520976 2.68798606,12.8745366 C3.47408362,13.3946992 4.43303833,13.6587642 5.53610453,13.6587642 C7.06498955,13.6587642 8.2834216,13.178439 9.1603554,12.2325854 C10.0323066,11.2886287 10.4749895,9.97323577 10.4749895,8.32169106 L10.4749895,1.02347967 L10.4749895,1.02158266 C10.4749895,0.78900813 10.3669059,0.398601626 9.65631359,0.398601626" id="Fill-34" fill="#FFFFFF" mask="url(#mask-4)"></path>
                </g>
                <path d="M224.117676,43.6616837 C223.519337,43.6616837 222.979181,43.7662507 222.512146,43.9727704 C222.273518,44.0773374 222.043539,44.2140213 221.826926,44.376847 L221.826926,44.1341023 C221.826926,43.9544712 221.674,43.8084509 221.485692,43.8084509 L220.599977,43.8084509 C220.598011,43.8084509 220.595653,43.8073306 220.593294,43.8073306 L220.511917,43.8073306 C219.609691,43.8073306 219.518878,44.3645231 219.51534,44.5598392 C219.51534,44.5632003 219.512195,44.5669348 219.512195,44.5710428 L219.512195,52.6185909 L219.512195,52.6480937 C219.512195,52.8288452 219.586103,53.4177813 220.511917,53.4177813 L220.590542,53.4177813 L220.594473,53.4177813 L220.601156,53.4177813 L221.550951,53.4177813 C221.742011,53.4177813 221.894937,53.2721344 221.894937,53.0921299 L221.894937,49.0199936 C221.894937,47.8484702 222.068699,47.0096938 222.409147,46.526445 C222.721289,46.0786744 223.230782,45.860951 223.962391,45.860951 C224.633851,45.860951 225.109142,46.0439432 225.413029,46.4218781 C225.735786,46.8188591 225.897754,47.4645601 225.897754,48.3369473 L225.897754,53.0921299 C225.897754,53.2721344 226.053039,53.4177813 226.24174,53.4177813 L227.209619,53.4177813 L227.291782,53.4177813 L227.333453,53.4177813 C227.33935,53.4177813 227.344854,53.4155406 227.352717,53.4155406 C228.201084,53.3908926 228.287965,52.8482648 228.292683,52.6607912 L228.292683,52.658177 L228.292683,47.9844072 C228.292683,46.6224226 227.927861,45.5502377 227.210798,44.8010901 C226.487445,44.0459673 225.445658,43.6616837 224.117676,43.6616837" id="Fill-37" fill="#FFFFFF"></path>
                <path d="M192.411704,43.6640311 C192.4109,43.6640311 192.409292,43.6616837 192.407283,43.6616837 L192.256559,43.6616837 L192.165321,43.6616837 L191.237267,43.6616837 C191.164919,43.6616837 191.101013,43.7051112 191.076093,43.7716218 L188.219984,50.8420888 L185.586946,43.7763167 C185.56283,43.7086324 185.49611,43.6616837 185.424164,43.6616837 L184.417734,43.6616837 L184.326898,43.6616837 L184.309213,43.6616837 C184.010981,43.6616837 183.678586,43.6667698 183.507364,43.8803862 C183.410499,44.0028439 183.387991,44.1679467 183.447075,44.3893878 L183.450692,44.3999513 L183.450692,44.4026899 L186.963955,53.6093206 L186.375531,55.0647288 C186.374325,55.0686412 186.368296,55.0713799 186.36709,55.0752923 L185.784293,56.6105132 C185.730033,56.8139573 185.753746,56.9782776 185.849807,57.1023003 C185.99209,57.2803139 186.245708,57.3123955 186.497717,57.3174816 C186.500129,57.3174816 186.502541,57.3202203 186.506158,57.3202203 L186.669341,57.3202203 L186.759373,57.3202203 L187.677782,57.3202203 C187.748521,57.3202203 187.81283,57.2783578 187.839759,57.2134121 L192.558006,45.9160015 C192.563633,45.9034818 192.566447,45.8921359 192.56926,45.8796163 L192.570868,45.872574 L193.143215,44.3725646 C193.195868,44.1679467 193.172958,44.0028439 193.074485,43.8803862 C192.930594,43.6988514 192.669341,43.6691173 192.411704,43.6640311" id="Fill-39" fill="#FFFFFF"></path>
            </g>
        </g>
    </g>
</svg>