<?xml version="1.0" encoding="UTF-8"?>
<svg width="30px" height="30px" viewBox="0 0 30 30" version="1.1" xmlns="http://www.w3.org/2000/svg" xmlns:xlink="http://www.w3.org/1999/xlink">
    <!-- Generator: Sketch 64 (93537) - https://sketch.com -->
    <title>logo whatsapp</title>
    <desc>Created with Sketch.</desc>
    <defs>
        <path d="M0.0683802817,12.4951408 C0.0683802817,16.5262676 2.49732394,19.8888028 2.49732394,19.8888028 L2.49732394,19.8888028 L0.976760563,24.4260563 L5.66309859,22.8967606 C5.66309859,22.8967606 8.71690141,24.9588028 12.5319718,24.9588028 L12.5319718,24.9588028 C19.415493,24.9588028 24.9958451,19.3785211 24.9958451,12.4951408 L24.9958451,12.4951408 C24.9958451,5.61161972 19.415493,0.0314084507 12.5319718,0.0314084507 L12.5319718,0.0314084507 C5.64852113,0.0314084507 0.0683802817,5.61161972 0.0683802817,12.4951408 L0.0683802817,12.4951408 Z" id="path-1"></path>
        <path d="M0.0683802817,12.4951408 C0.0683802817,16.5262676 2.49732394,19.8888028 2.49732394,19.8888028 L2.49732394,19.8888028 L0.976760563,24.4260563 L5.66309859,22.8967606 C5.66309859,22.8967606 8.71690141,24.9588028 12.5319718,24.9588028 L12.5319718,24.9588028 C19.415493,24.9588028 24.9958451,19.3785211 24.9958451,12.4951408 L24.9958451,12.4951408 C24.9958451,5.61161972 19.415493,0.0314084507 12.5319718,0.0314084507 L12.5319718,0.0314084507 C5.64852113,0.0314084507 0.0683802817,5.61161972 0.0683802817,12.4951408 L0.0683802817,12.4951408 Z" id="path-3"></path>
        <polygon id="path-5" points="0 0.0508545035 29.9755654 0.0508545035 29.9755654 29.9999861 0 29.9999861"></polygon>
    </defs>
    <g id="Page-1" stroke="none" stroke-width="1" fill="none" fill-rule="evenodd">
        <g id="iPhone-11---Perfil-Copy" transform="translate(-221.000000, -625.000000)">
            <g id="logo-whatsapp" transform="translate(221.000000, 625.000000)">
                <g id="Group-142" transform="translate(3.000000, 2.000000)">
                    <g id="Group-3">
                        <mask id="mask-2" fill="white">
                            <use xlink:href="#path-1"></use>
                        </mask>
                        <g id="Clip-2"></g>
                        <path d="M0.0683450704,24.9735775 L24.9958099,24.9735775 L0.0683450704,24.9735775 Z" id="Fill-1" fill="#5AB036" mask="url(#mask-2)"></path>
                    </g>
                    <mask id="mask-4" fill="white">
                        <use xlink:href="#path-3"></use>
                    </mask>
                    <g id="Clip-5"></g>
                    <polygon id="Fill-4" fill="#5AB036" mask="url(#mask-4)" points="0.0683098592 24.9588028 24.9957746 24.9588028 24.9957746 24.775493 0.0683098592 24.775493"></polygon>
                    <polygon id="Fill-6" fill="#59B036" mask="url(#mask-4)" points="0.0683098592 24.7755634 24.9957746 24.7755634 24.9957746 24.5922535 0.0683098592 24.5922535"></polygon>
                    <polygon id="Fill-7" fill="#58AF36" mask="url(#mask-4)" points="0.0683098592 24.5922535 24.9957746 24.5922535 24.9957746 24.4089437 0.0683098592 24.4089437"></polygon>
                    <polygon id="Fill-8" fill="#57AF36" mask="url(#mask-4)" points="0.0683098592 24.4090141 24.9957746 24.4090141 24.9957746 24.2257042 0.0683098592 24.2257042"></polygon>
                    <polygon id="Fill-9" fill="#56AF36" mask="url(#mask-4)" points="0.0683098592 24.2257042 24.9957746 24.2257042 24.9957746 24.0423239 0.0683098592 24.0423239"></polygon>
                    <polygon id="Fill-10" fill="#55AE36" mask="url(#mask-4)" points="0.0683098592 24.0423944 24.9957746 24.0423944 24.9957746 23.8590845 0.0683098592 23.8590845"></polygon>
                    <polygon id="Fill-11" fill="#54AE36" mask="url(#mask-4)" points="0.0683098592 23.8590845 24.9957746 23.8590845 24.9957746 23.6757746 0.0683098592 23.6757746"></polygon>
                    <polygon id="Fill-12" fill="#53AD36" mask="url(#mask-4)" points="0.0683098592 23.6758451 24.9957746 23.6758451 24.9957746 23.4925352 0.0683098592 23.4925352"></polygon>
                    <polygon id="Fill-13" fill="#52AD36" mask="url(#mask-4)" points="0.0683098592 23.4925352 24.9957746 23.4925352 24.9957746 23.3092254 0.0683098592 23.3092254"></polygon>
                    <polygon id="Fill-14" fill="#51AD36" mask="url(#mask-4)" points="0.0683098592 23.3092254 24.9957746 23.3092254 24.9957746 23.1258451 0.0683098592 23.1258451"></polygon>
                    <polygon id="Fill-15" fill="#50AC36" mask="url(#mask-4)" points="0.0683098592 23.1259155 24.9957746 23.1259155 24.9957746 22.9426056 0.0683098592 22.9426056"></polygon>
                    <polygon id="Fill-16" fill="#4FAC36" mask="url(#mask-4)" points="0.0683098592 22.9426056 24.9957746 22.9426056 24.9957746 22.7592958 0.0683098592 22.7592958"></polygon>
                    <polygon id="Fill-17" fill="#4EAC37" mask="url(#mask-4)" points="0.0683098592 22.7593662 24.9957746 22.7593662 24.9957746 22.5760563 0.0683098592 22.5760563"></polygon>
                    <polygon id="Fill-18" fill="#4DAB37" mask="url(#mask-4)" points="0.0683098592 22.5760563 24.9957746 22.5760563 24.9957746 22.3927465 0.0683098592 22.3927465"></polygon>
                    <polygon id="Fill-19" fill="#4CAB37" mask="url(#mask-4)" points="0.0683098592 22.3928169 24.9957746 22.3928169 24.9957746 22.209507 0.0683098592 22.209507"></polygon>
                    <polygon id="Fill-20" fill="#4BAA37" mask="url(#mask-4)" points="0.0683098592 22.209507 24.9957746 22.209507 24.9957746 22.0261268 0.0683098592 22.0261268"></polygon>
                    <polygon id="Fill-21" fill="#4AAA37" mask="url(#mask-4)" points="0.0683098592 22.0261972 24.9957746 22.0261972 24.9957746 21.8428873 0.0683098592 21.8428873"></polygon>
                    <polygon id="Fill-22" fill="#49AA37" mask="url(#mask-4)" points="0.0683098592 21.8428873 24.9957746 21.8428873 24.9957746 21.6595775 0.0683098592 21.6595775"></polygon>
                    <polygon id="Fill-23" fill="#48A937" mask="url(#mask-4)" points="0.0683098592 21.6596479 24.9957746 21.6596479 24.9957746 21.476338 0.0683098592 21.476338"></polygon>
                    <polygon id="Fill-24" fill="#47A937" mask="url(#mask-4)" points="0.0683098592 21.476338 24.9957746 21.476338 24.9957746 21.2930282 0.0683098592 21.2930282"></polygon>
                    <polygon id="Fill-25" fill="#46A937" mask="url(#mask-4)" points="0.0683098592 21.2930986 24.9957746 21.2930986 24.9957746 21.1097887 0.0683098592 21.1097887"></polygon>
                    <polygon id="Fill-26" fill="#45A837" mask="url(#mask-4)" points="0.0683098592 21.1097887 24.9957746 21.1097887 24.9957746 20.9264085 0.0683098592 20.9264085"></polygon>
                    <polygon id="Fill-27" fill="#44A837" mask="url(#mask-4)" points="0.0683098592 20.9264789 24.9957746 20.9264789 24.9957746 20.743169 0.0683098592 20.743169"></polygon>
                    <polygon id="Fill-28" fill="#43A737" mask="url(#mask-4)" points="0.0683098592 20.743169 24.9957746 20.743169 24.9957746 20.5598592 0.0683098592 20.5598592"></polygon>
                    <polygon id="Fill-29" fill="#42A737" mask="url(#mask-4)" points="0.0683098592 20.5598592 24.9957746 20.5598592 24.9957746 20.3765493 0.0683098592 20.3765493"></polygon>
                    <polygon id="Fill-30" fill="#41A737" mask="url(#mask-4)" points="0.0683098592 20.3766197 24.9957746 20.3766197 24.9957746 20.1933099 0.0683098592 20.1933099"></polygon>
                    <polygon id="Fill-31" fill="#40A637" mask="url(#mask-4)" points="0.0683098592 20.1933099 24.9957746 20.1933099 24.9957746 20.0099296 0.0683098592 20.0099296"></polygon>
                    <polygon id="Fill-32" fill="#3FA637" mask="url(#mask-4)" points="0.0683098592 20.01 24.9957746 20.01 24.9957746 19.8266901 0.0683098592 19.8266901"></polygon>
                    <polygon id="Fill-33" fill="#3EA637" mask="url(#mask-4)" points="0.0683098592 19.8266901 24.9957746 19.8266901 24.9957746 19.6433803 0.0683098592 19.6433803"></polygon>
                    <polygon id="Fill-34" fill="#3DA537" mask="url(#mask-4)" points="0.0683098592 19.6434507 24.9957746 19.6434507 24.9957746 19.4601408 0.0683098592 19.4601408"></polygon>
                    <polygon id="Fill-35" fill="#3CA537" mask="url(#mask-4)" points="0.0683098592 19.4601408 24.9957746 19.4601408 24.9957746 19.276831 0.0683098592 19.276831"></polygon>
                    <polygon id="Fill-36" fill="#3BA437" mask="url(#mask-4)" points="0.0683098592 19.2769014 24.9957746 19.2769014 24.9957746 19.0935915 0.0683098592 19.0935915"></polygon>
                    <polygon id="Fill-37" fill="#3AA437" mask="url(#mask-4)" points="0.0683098592 19.0935915 24.9957746 19.0935915 24.9957746 18.9102113 0.0683098592 18.9102113"></polygon>
                    <polygon id="Fill-38" fill="#39A437" mask="url(#mask-4)" points="0.0683098592 18.9102817 24.9957746 18.9102817 24.9957746 18.7269718 0.0683098592 18.7269718"></polygon>
                    <polygon id="Fill-39" fill="#37A338" mask="url(#mask-4)" points="0.0683098592 18.7269718 24.9957746 18.7269718 24.9957746 18.543662 0.0683098592 18.543662"></polygon>
                    <polygon id="Fill-40" fill="#36A338" mask="url(#mask-4)" points="0.0683098592 18.5437324 24.9957746 18.5437324 24.9957746 18.3604225 0.0683098592 18.3604225"></polygon>
                    <polygon id="Fill-41" fill="#35A338" mask="url(#mask-4)" points="0.0683098592 18.3604225 24.9957746 18.3604225 24.9957746 18.1771127 0.0683098592 18.1771127"></polygon>
                    <polygon id="Fill-42" fill="#34A238" mask="url(#mask-4)" points="0.0683098592 18.1771127 24.9957746 18.1771127 24.9957746 17.9937324 0.0683098592 17.9937324"></polygon>
                    <polygon id="Fill-43" fill="#33A238" mask="url(#mask-4)" points="0.0683098592 17.9938028 24.9957746 17.9938028 24.9957746 17.810493 0.0683098592 17.810493"></polygon>
                    <polygon id="Fill-44" fill="#32A138" mask="url(#mask-4)" points="0.0683098592 17.810493 24.9957746 17.810493 24.9957746 17.6271831 0.0683098592 17.6271831"></polygon>
                    <polygon id="Fill-45" fill="#31A138" mask="url(#mask-4)" points="0.0683098592 17.6272535 24.9957746 17.6272535 24.9957746 17.4439437 0.0683098592 17.4439437"></polygon>
                    <polygon id="Fill-46" fill="#30A138" mask="url(#mask-4)" points="0.0683098592 17.4439437 24.9957746 17.4439437 24.9957746 17.2606338 0.0683098592 17.2606338"></polygon>
                    <polygon id="Fill-47" fill="#2FA038" mask="url(#mask-4)" points="0.0683098592 17.2607042 24.9957746 17.2607042 24.9957746 17.0773944 0.0683098592 17.0773944"></polygon>
                    <polygon id="Fill-48" fill="#2EA038" mask="url(#mask-4)" points="0.0683098592 17.0773944 24.9957746 17.0773944 24.9957746 16.8940141 0.0683098592 16.8940141"></polygon>
                    <polygon id="Fill-49" fill="#2DA038" mask="url(#mask-4)" points="0.0683098592 16.8940845 24.9957746 16.8940845 24.9957746 16.7107746 0.0683098592 16.7107746"></polygon>
                    <polygon id="Fill-50" fill="#2C9F38" mask="url(#mask-4)" points="0.0683098592 16.7107746 24.9957746 16.7107746 24.9957746 16.5274648 0.0683098592 16.5274648"></polygon>
                    <polygon id="Fill-51" fill="#2B9F38" mask="url(#mask-4)" points="0.0683098592 16.5275352 24.9957746 16.5275352 24.9957746 16.3442254 0.0683098592 16.3442254"></polygon>
                    <polygon id="Fill-52" fill="#2A9E38" mask="url(#mask-4)" points="0.0683098592 16.3442254 24.9957746 16.3442254 24.9957746 16.1609155 0.0683098592 16.1609155"></polygon>
                    <polygon id="Fill-53" fill="#299E38" mask="url(#mask-4)" points="0.0683098592 16.1609859 24.9957746 16.1609859 24.9957746 15.9776056 0.0683098592 15.9776056"></polygon>
                    <polygon id="Fill-54" fill="#289E38" mask="url(#mask-4)" points="0.0683098592 15.9776056 24.9957746 15.9776056 24.9957746 15.7942958 0.0683098592 15.7942958"></polygon>
                    <polygon id="Fill-55" fill="#279D38" mask="url(#mask-4)" points="0.0683098592 15.7943662 24.9957746 15.7943662 24.9957746 15.6110563 0.0683098592 15.6110563"></polygon>
                    <polygon id="Fill-56" fill="#269D38" mask="url(#mask-4)" points="0.0683098592 15.6110563 24.9957746 15.6110563 24.9957746 15.4277465 0.0683098592 15.4277465"></polygon>
                    <polygon id="Fill-57" fill="#259D38" mask="url(#mask-4)" points="0.0683098592 15.4277465 24.9957746 15.4277465 24.9957746 15.2444366 0.0683098592 15.2444366"></polygon>
                    <polygon id="Fill-58" fill="#249C38" mask="url(#mask-4)" points="0.0683098592 15.244507 24.9957746 15.244507 24.9957746 15.0611972 0.0683098592 15.0611972"></polygon>
                    <polygon id="Fill-59" fill="#239C38" mask="url(#mask-4)" points="0.0683098592 15.0611972 24.9957746 15.0611972 24.9957746 14.8778169 0.0683098592 14.8778169"></polygon>
                    <polygon id="Fill-60" fill="#229B38" mask="url(#mask-4)" points="0.0683098592 14.8778873 24.9957746 14.8778873 24.9957746 14.6945775 0.0683098592 14.6945775"></polygon>
                    <polygon id="Fill-61" fill="#219B39" mask="url(#mask-4)" points="0.0683098592 14.6945775 24.9957746 14.6945775 24.9957746 14.5112676 0.0683098592 14.5112676"></polygon>
                    <polygon id="Fill-62" fill="#209B39" mask="url(#mask-4)" points="0.0683098592 14.511338 24.9957746 14.511338 24.9957746 14.3280282 0.0683098592 14.3280282"></polygon>
                    <polygon id="Fill-63" fill="#1F9A39" mask="url(#mask-4)" points="0.0683098592 14.3280282 24.9957746 14.3280282 24.9957746 14.1447183 0.0683098592 14.1447183"></polygon>
                    <polygon id="Fill-64" fill="#1E9A39" mask="url(#mask-4)" points="0.0683098592 14.1447887 24.9957746 14.1447887 24.9957746 13.9614085 0.0683098592 13.9614085"></polygon>
                    <polygon id="Fill-65" fill="#1D9A39" mask="url(#mask-4)" points="0.0683098592 13.9614085 24.9957746 13.9614085 24.9957746 13.7780986 0.0683098592 13.7780986"></polygon>
                    <polygon id="Fill-66" fill="#1C9939" mask="url(#mask-4)" points="0.0683098592 13.778169 24.9957746 13.778169 24.9957746 13.5948592 0.0683098592 13.5948592"></polygon>
                    <polygon id="Fill-67" fill="#1B9939" mask="url(#mask-4)" points="0.0683098592 13.5948592 24.9957746 13.5948592 24.9957746 13.4115493 0.0683098592 13.4115493"></polygon>
                    <polygon id="Fill-68" fill="#1A9839" mask="url(#mask-4)" points="0.0683098592 13.4116197 24.9957746 13.4116197 24.9957746 13.2283099 0.0683098592 13.2283099"></polygon>
                    <polygon id="Fill-69" fill="#199839" mask="url(#mask-4)" points="0.0683098592 13.2283099 24.9957746 13.2283099 24.9957746 13.045 0.0683098592 13.045"></polygon>
                    <polygon id="Fill-70" fill="#189839" mask="url(#mask-4)" points="0.0683098592 13.0450704 24.9957746 13.0450704 24.9957746 12.8616901 0.0683098592 12.8616901"></polygon>
                    <polygon id="Fill-71" fill="#179739" mask="url(#mask-4)" points="0.0683098592 12.8616901 24.9957746 12.8616901 24.9957746 12.6783803 0.0683098592 12.6783803"></polygon>
                    <polygon id="Fill-72" fill="#169739" mask="url(#mask-4)" points="0.0683098592 12.6783803 24.9957746 12.6783803 24.9957746 12.4950704 0.0683098592 12.4950704"></polygon>
                    <polygon id="Fill-73" fill="#169739" mask="url(#mask-4)" points="0.0683098592 12.4951408 24.9957746 12.4951408 24.9957746 12.311831 0.0683098592 12.311831"></polygon>
                    <polygon id="Fill-74" fill="#179739" mask="url(#mask-4)" points="0.0683098592 12.311831 24.9957746 12.311831 24.9957746 12.1285211 0.0683098592 12.1285211"></polygon>
                    <polygon id="Fill-75" fill="#189839" mask="url(#mask-4)" points="0.0683098592 12.1285915 24.9957746 12.1285915 24.9957746 11.9452113 0.0683098592 11.9452113"></polygon>
                    <polygon id="Fill-76" fill="#199839" mask="url(#mask-4)" points="0.0683098592 11.9452113 24.9957746 11.9452113 24.9957746 11.7619014 0.0683098592 11.7619014"></polygon>
                    <polygon id="Fill-77" fill="#1A9839" mask="url(#mask-4)" points="0.0683098592 11.7619718 24.9957746 11.7619718 24.9957746 11.578662 0.0683098592 11.578662"></polygon>
                    <polygon id="Fill-78" fill="#1B9939" mask="url(#mask-4)" points="0.0683098592 11.578662 24.9957746 11.578662 24.9957746 11.3953521 0.0683098592 11.3953521"></polygon>
                    <polygon id="Fill-79" fill="#1C9939" mask="url(#mask-4)" points="0.0683098592 11.3954225 24.9957746 11.3954225 24.9957746 11.2121127 0.0683098592 11.2121127"></polygon>
                    <polygon id="Fill-80" fill="#1D9A39" mask="url(#mask-4)" points="0.0683098592 11.2121127 24.9957746 11.2121127 24.9957746 11.0288028 0.0683098592 11.0288028"></polygon>
                    <polygon id="Fill-81" fill="#1E9A39" mask="url(#mask-4)" points="0.0683098592 11.0288732 24.9957746 11.0288732 24.9957746 10.845493 0.0683098592 10.845493"></polygon>
                    <polygon id="Fill-82" fill="#1F9A39" mask="url(#mask-4)" points="0.0683098592 10.845493 24.9957746 10.845493 24.9957746 10.6621831 0.0683098592 10.6621831"></polygon>
                    <polygon id="Fill-83" fill="#209B39" mask="url(#mask-4)" points="0.0683098592 10.6622535 24.9957746 10.6622535 24.9957746 10.4789437 0.0683098592 10.4789437"></polygon>
                    <polygon id="Fill-84" fill="#219B39" mask="url(#mask-4)" points="0.0683098592 10.4789437 24.9957746 10.4789437 24.9957746 10.2956338 0.0683098592 10.2956338"></polygon>
                    <polygon id="Fill-85" fill="#229B38" mask="url(#mask-4)" points="0.0683098592 10.2956338 24.9957746 10.2956338 24.9957746 10.1123239 0.0683098592 10.1123239"></polygon>
                    <polygon id="Fill-86" fill="#239C38" mask="url(#mask-4)" points="0.0683098592 10.1123944 24.9957746 10.1123944 24.9957746 9.92901408 0.0683098592 9.92901408"></polygon>
                    <polygon id="Fill-87" fill="#249C38" mask="url(#mask-4)" points="0.0683098592 9.92901408 24.9957746 9.92901408 24.9957746 9.74570423 0.0683098592 9.74570423"></polygon>
                    <polygon id="Fill-88" fill="#259D38" mask="url(#mask-4)" points="0.0683098592 9.74577465 24.9957746 9.74577465 24.9957746 9.56246479 0.0683098592 9.56246479"></polygon>
                    <polygon id="Fill-89" fill="#269D38" mask="url(#mask-4)" points="0.0683098592 9.56246479 24.9957746 9.56246479 24.9957746 9.37915493 0.0683098592 9.37915493"></polygon>
                    <polygon id="Fill-90" fill="#279D38" mask="url(#mask-4)" points="0.0683098592 9.37922535 24.9957746 9.37922535 24.9957746 9.19591549 0.0683098592 9.19591549"></polygon>
                    <polygon id="Fill-91" fill="#289E38" mask="url(#mask-4)" points="0.0683098592 9.19591549 24.9957746 9.19591549 24.9957746 9.01260563 0.0683098592 9.01260563"></polygon>
                    <polygon id="Fill-92" fill="#299E38" mask="url(#mask-4)" points="0.0683098592 9.01267606 24.9957746 9.01267606 24.9957746 8.82929577 0.0683098592 8.82929577"></polygon>
                    <polygon id="Fill-93" fill="#2A9E38" mask="url(#mask-4)" points="0.0683098592 8.82929577 24.9957746 8.82929577 24.9957746 8.64598592 0.0683098592 8.64598592"></polygon>
                    <polygon id="Fill-94" fill="#2B9F38" mask="url(#mask-4)" points="0.0683098592 8.64605634 24.9957746 8.64605634 24.9957746 8.46274648 0.0683098592 8.46274648"></polygon>
                    <polygon id="Fill-95" fill="#2C9F38" mask="url(#mask-4)" points="0.0683098592 8.46274648 24.9957746 8.46274648 24.9957746 8.27943662 0.0683098592 8.27943662"></polygon>
                    <polygon id="Fill-96" fill="#2DA038" mask="url(#mask-4)" points="0.0683098592 8.27950704 24.9957746 8.27950704 24.9957746 8.09619718 0.0683098592 8.09619718"></polygon>
                    <polygon id="Fill-97" fill="#2EA038" mask="url(#mask-4)" points="0.0683098592 8.09619718 24.9957746 8.09619718 24.9957746 7.91288732 0.0683098592 7.91288732"></polygon>
                    <polygon id="Fill-98" fill="#2FA038" mask="url(#mask-4)" points="0.0683098592 7.91295775 24.9957746 7.91295775 24.9957746 7.72957746 0.0683098592 7.72957746"></polygon>
                    <polygon id="Fill-99" fill="#30A138" mask="url(#mask-4)" points="0.0683098592 7.72957746 24.9957746 7.72957746 24.9957746 7.54626761 0.0683098592 7.54626761"></polygon>
                    <polygon id="Fill-100" fill="#31A138" mask="url(#mask-4)" points="0.0683098592 7.54626761 24.9957746 7.54626761 24.9957746 7.36295775 0.0683098592 7.36295775"></polygon>
                    <polygon id="Fill-101" fill="#32A138" mask="url(#mask-4)" points="0.0683098592 7.36302817 24.9957746 7.36302817 24.9957746 7.17971831 0.0683098592 7.17971831"></polygon>
                    <polygon id="Fill-102" fill="#33A238" mask="url(#mask-4)" points="0.0683098592 7.17971831 24.9957746 7.17971831 24.9957746 6.99640845 0.0683098592 6.99640845"></polygon>
                    <polygon id="Fill-103" fill="#34A238" mask="url(#mask-4)" points="0.0683098592 6.99647887 24.9957746 6.99647887 24.9957746 6.81309859 0.0683098592 6.81309859"></polygon>
                    <polygon id="Fill-104" fill="#35A338" mask="url(#mask-4)" points="0.0683098592 6.81309859 24.9957746 6.81309859 24.9957746 6.62978873 0.0683098592 6.62978873"></polygon>
                    <polygon id="Fill-105" fill="#36A338" mask="url(#mask-4)" points="0.0683098592 6.62985915 24.9957746 6.62985915 24.9957746 6.4465493 0.0683098592 6.4465493"></polygon>
                    <polygon id="Fill-106" fill="#37A338" mask="url(#mask-4)" points="0.0683098592 6.4465493 24.9957746 6.4465493 24.9957746 6.26323944 0.0683098592 6.26323944"></polygon>
                    <polygon id="Fill-107" fill="#39A437" mask="url(#mask-4)" points="0.0683098592 6.26330986 24.9957746 6.26330986 24.9957746 6.08 0.0683098592 6.08"></polygon>
                    <polygon id="Fill-108" fill="#3AA437" mask="url(#mask-4)" points="0.0683098592 6.08 24.9957746 6.08 24.9957746 5.89669014 0.0683098592 5.89669014"></polygon>
                    <polygon id="Fill-109" fill="#3BA437" mask="url(#mask-4)" points="0.0683098592 5.89676056 24.9957746 5.89676056 24.9957746 5.71338028 0.0683098592 5.71338028"></polygon>
                    <polygon id="Fill-110" fill="#3CA537" mask="url(#mask-4)" points="0.0683098592 5.71338028 24.9957746 5.71338028 24.9957746 5.53007042 0.0683098592 5.53007042"></polygon>
                    <polygon id="Fill-111" fill="#3DA537" mask="url(#mask-4)" points="0.0683098592 5.53014085 24.9957746 5.53014085 24.9957746 5.34683099 0.0683098592 5.34683099"></polygon>
                    <polygon id="Fill-112" fill="#3EA637" mask="url(#mask-4)" points="0.0683098592 5.34683099 24.9957746 5.34683099 24.9957746 5.16352113 0.0683098592 5.16352113"></polygon>
                    <polygon id="Fill-113" fill="#3FA637" mask="url(#mask-4)" points="0.0683098592 5.16352113 24.9957746 5.16352113 24.9957746 4.98021127 0.0683098592 4.98021127"></polygon>
                    <polygon id="Fill-114" fill="#40A637" mask="url(#mask-4)" points="0.0683098592 4.98028169 24.9957746 4.98028169 24.9957746 4.79690141 0.0683098592 4.79690141"></polygon>
                    <polygon id="Fill-115" fill="#41A737" mask="url(#mask-4)" points="0.0683098592 4.79690141 24.9957746 4.79690141 24.9957746 4.61359155 0.0683098592 4.61359155"></polygon>
                    <polygon id="Fill-116" fill="#42A737" mask="url(#mask-4)" points="0.0683098592 4.61366197 24.9957746 4.61366197 24.9957746 4.43035211 0.0683098592 4.43035211"></polygon>
                    <polygon id="Fill-117" fill="#43A737" mask="url(#mask-4)" points="0.0683098592 4.43035211 24.9957746 4.43035211 24.9957746 4.24704225 0.0683098592 4.24704225"></polygon>
                    <polygon id="Fill-118" fill="#44A837" mask="url(#mask-4)" points="0.0683098592 4.24711268 24.9957746 4.24711268 24.9957746 4.06380282 0.0683098592 4.06380282"></polygon>
                    <polygon id="Fill-119" fill="#45A837" mask="url(#mask-4)" points="0.0683098592 4.06380282 24.9957746 4.06380282 24.9957746 3.88049296 0.0683098592 3.88049296"></polygon>
                    <polygon id="Fill-120" fill="#46A937" mask="url(#mask-4)" points="0.0683098592 3.88056338 24.9957746 3.88056338 24.9957746 3.6971831 0.0683098592 3.6971831"></polygon>
                    <polygon id="Fill-121" fill="#47A937" mask="url(#mask-4)" points="0.0683098592 3.6971831 24.9957746 3.6971831 24.9957746 3.51387324 0.0683098592 3.51387324"></polygon>
                    <polygon id="Fill-122" fill="#48A937" mask="url(#mask-4)" points="0.0683098592 3.51394366 24.9957746 3.51394366 24.9957746 3.3306338 0.0683098592 3.3306338"></polygon>
                    <polygon id="Fill-123" fill="#49AA37" mask="url(#mask-4)" points="0.0683098592 3.3306338 24.9957746 3.3306338 24.9957746 3.14732394 0.0683098592 3.14732394"></polygon>
                    <polygon id="Fill-124" fill="#4AAA37" mask="url(#mask-4)" points="0.0683098592 3.14739437 24.9957746 3.14739437 24.9957746 2.96408451 0.0683098592 2.96408451"></polygon>
                    <polygon id="Fill-125" fill="#4BAA37" mask="url(#mask-4)" points="0.0683098592 2.96408451 24.9957746 2.96408451 24.9957746 2.78070423 0.0683098592 2.78070423"></polygon>
                    <polygon id="Fill-126" fill="#4CAB37" mask="url(#mask-4)" points="0.0683098592 2.78077465 24.9957746 2.78077465 24.9957746 2.59746479 0.0683098592 2.59746479"></polygon>
                    <polygon id="Fill-127" fill="#4DAB37" mask="url(#mask-4)" points="0.0683098592 2.59746479 24.9957746 2.59746479 24.9957746 2.41415493 0.0683098592 2.41415493"></polygon>
                    <polygon id="Fill-128" fill="#4EAC37" mask="url(#mask-4)" points="0.0683098592 2.41415493 24.9957746 2.41415493 24.9957746 2.23084507 0.0683098592 2.23084507"></polygon>
                    <polygon id="Fill-129" fill="#4FAC36" mask="url(#mask-4)" points="0.0683098592 2.23091549 24.9957746 2.23091549 24.9957746 2.04760563 0.0683098592 2.04760563"></polygon>
                    <polygon id="Fill-130" fill="#50AC36" mask="url(#mask-4)" points="0.0683098592 2.04760563 24.9957746 2.04760563 24.9957746 1.86429577 0.0683098592 1.86429577"></polygon>
                    <polygon id="Fill-131" fill="#51AD36" mask="url(#mask-4)" points="0.0683098592 1.8643662 24.9957746 1.8643662 24.9957746 1.68098592 0.0683098592 1.68098592"></polygon>
                    <polygon id="Fill-132" fill="#52AD36" mask="url(#mask-4)" points="0.0683098592 1.68098592 24.9957746 1.68098592 24.9957746 1.49767606 0.0683098592 1.49767606"></polygon>
                    <polygon id="Fill-133" fill="#53AD36" mask="url(#mask-4)" points="0.0683098592 1.49774648 24.9957746 1.49774648 24.9957746 1.31443662 0.0683098592 1.31443662"></polygon>
                    <polygon id="Fill-134" fill="#54AE36" mask="url(#mask-4)" points="0.0683098592 1.31443662 24.9957746 1.31443662 24.9957746 1.13112676 0.0683098592 1.13112676"></polygon>
                    <polygon id="Fill-135" fill="#55AE36" mask="url(#mask-4)" points="0.0683098592 1.13119718 24.9957746 1.13119718 24.9957746 0.947887324 0.0683098592 0.947887324"></polygon>
                    <polygon id="Fill-136" fill="#56AF36" mask="url(#mask-4)" points="0.0683098592 0.947887324 24.9957746 0.947887324 24.9957746 0.764507042 0.0683098592 0.764507042"></polygon>
                    <polygon id="Fill-137" fill="#57AF36" mask="url(#mask-4)" points="0.0683098592 0.764577465 24.9957746 0.764577465 24.9957746 0.581267606 0.0683098592 0.581267606"></polygon>
                    <polygon id="Fill-138" fill="#58AF36" mask="url(#mask-4)" points="0.0683098592 0.581267606 24.9957746 0.581267606 24.9957746 0.397957746 0.0683098592 0.397957746"></polygon>
                    <polygon id="Fill-139" fill="#59B036" mask="url(#mask-4)" points="0.0683098592 0.398028169 24.9957746 0.398028169 24.9957746 0.21471831 0.0683098592 0.21471831"></polygon>
                    <polygon id="Fill-140" fill="#5AB036" mask="url(#mask-4)" points="0.0683098592 0.21471831 24.9957746 0.21471831 24.9957746 0.0314084507 0.0683098592 0.0314084507"></polygon>
                    <path d="M24.9958239,0.0461971831 L0.0683591549,0.0461971831 L24.9958239,0.0461971831 Z" id="Fill-141" fill="#5AB036" mask="url(#mask-4)"></path>
                </g>
                <g id="Group-148">
                    <g id="Group-145">
                        <mask id="mask-6" fill="white">
                            <use xlink:href="#path-5"></use>
                        </mask>
                        <g id="Clip-144"></g>
                        <path d="M15.2070841,26.9109561 C11.4098411,26.9109561 8.37023832,24.8823187 8.37023832,24.8823187 L3.70579907,26.3868222 L5.21925701,21.9229885 C5.21925701,21.9229885 2.80166355,18.6147436 2.80166355,14.6487852 C2.80166355,7.87654503 8.35572897,2.38654503 15.2070841,2.38654503 C22.0584393,2.38654503 27.6126449,7.87654503 27.6126449,14.6487852 C27.6126449,21.4209561 22.0584393,26.9109561 15.2070841,26.9109561 M15.2070841,0.0508406467 C7.05072897,0.0508406467 0.438742991,6.58654503 0.438742991,14.6487852 C0.438742991,18.6500785 2.58185047,22.2265219 2.58185047,22.2265219 L-4.20560748e-05,29.9999861 L8.09217757,27.4438199 C8.09217757,27.4438199 11.0963131,29.2465912 15.2070841,29.2465912 C23.3635093,29.2465912 29.9755654,22.7108868 29.9755654,14.6487852 C29.9755654,6.58654503 23.3635093,0.0508406467 15.2070841,0.0508406467" id="Fill-143" fill="#FFFFFF" mask="url(#mask-6)"></path>
                    </g>
                    <path d="M9.58328271,8.29350346 C9.58328271,8.29350346 9.98232477,8.04352656 10.1903621,8.04352656 L11.3538435,8.04352656 C11.3538435,8.04352656 11.6657593,8.09722171 11.8090304,8.41849192 C11.9523715,8.73976212 12.9332593,11.0178915 13.0062266,11.1936651 C13.0791939,11.3694388 13.2695678,11.8041963 12.9641005,12.1937113 C12.6586332,12.583157 12.0198014,13.3103626 12.0198014,13.3103626 C12.0198014,13.3103626 11.7669042,13.5354665 11.9861565,13.8938037 C12.2052687,14.2521409 12.9762266,15.4341963 13.9843808,16.3272679 C14.992535,17.2203395 16.2271612,17.877291 16.8425117,18.0773141 C17.4580023,18.2773372 17.5928621,18.0106628 17.8288668,17.7106628 C18.0650117,17.4106628 18.7985397,16.4939654 18.7985397,16.4939654 C18.7985397,16.4939654 19.0515771,16.1273141 19.5489603,16.3522794 C20.0464136,16.5773141 22.4660397,17.7356744 22.4660397,17.7356744 C22.4660397,17.7356744 22.760993,17.7857667 22.7778855,18.110709 C22.7947079,18.4357206 22.9973481,19.408261 22.1203388,20.3440115 C21.2433294,21.2797621 19.3782126,21.7128568 18.4952453,21.4687691 C17.6120678,21.2247506 14.6923248,20.4696928 12.7880958,18.7144503 C10.8838668,16.9592079 9.34181075,15.1116097 8.71096963,13.7490693 C8.0801285,12.3865289 8.11517523,11.5781917 8.15022196,11.1971293 C8.18526869,10.816067 8.38783879,9.05036259 9.58328271,8.29350346" id="Fill-146" fill="#FFFFFF"></path>
                </g>
            </g>
        </g>
    </g>
</svg>