<?xml version="1.0" encoding="UTF-8"?>
<svg width="38px" height="38px" viewBox="0 0 38 38" version="1.1" xmlns="http://www.w3.org/2000/svg" xmlns:xlink="http://www.w3.org/1999/xlink">
    <!-- Generator: Sketch 64 (93537) - https://sketch.com -->
    <title>bill icon on</title>
    <desc>Created with Sketch.</desc>
    <defs>
        <polygon id="path-1" points="2.47747748e-06 0.0188040541 21.9767885 0.0188040541 21.9767885 23 2.47747748e-06 23"></polygon>
    </defs>
    <g id="Page-1" stroke="none" stroke-width="1" fill="none" fill-rule="evenodd">
        <g id="iPhone-11---Historial" transform="translate(-315.000000, -264.000000)">
            <g id="bill-icon-on" transform="translate(315.000000, 264.000000)">
                <circle id="Oval" fill="#003DA6" cx="19" cy="19" r="19"></circle>
                <path d="M15.5954975,15 C15.2656977,15 15,14.775804 15,14.499797 C15,14.224196 15.2656977,14 15.5954975,14 L23.4054701,14 C23.7342782,14 24,14.224196 24,14.499797 C24,14.775804 23.7342782,15 23.4054701,15 L15.5954975,15 Z" id="Fill-1" fill="#FFFFFF"></path>
                <path d="M14.5697007,17 C14.2541877,17 14,16.7757882 14,16.4997868 C14,16.2241915 14.2541877,16 14.5697007,16 L19.4298365,16 C19.7444238,16 20,16.2241915 20,16.4997868 C20,16.7757882 19.7444238,17 19.4298365,17 L14.5697007,17 Z" id="Fill-3" fill="#FFFFFF"></path>
                <g id="Group-7" transform="translate(8.000000, 6.000000)">
                    <mask id="mask-2" fill="white">
                        <use xlink:href="#path-1"></use>
                    </mask>
                    <g id="Clip-6"></g>
                    <path d="M20.7564822,10.6810239 L19.5294124,11.6501838 L19.5308493,7.47930991 L20.4568313,8.44885833 C20.4843809,8.47861847 20.5133426,8.50739437 20.5460948,8.53308806 C20.6170498,8.58859369 20.6705881,8.65619505 20.7043561,8.72876937 C20.7386196,8.80048896 20.7564822,8.88471869 20.7564822,8.97907568 L20.7564822,10.6810239 Z M20.7564822,19.8754552 L15.9500025,16.0748088 L20.7564822,12.2767266 L20.7564822,19.8754552 Z M20.6223268,21.5401838 L20.6006241,21.5613448 C20.5036804,21.6631872 20.3695002,21.7258155 20.2218426,21.7258155 L1.75494842,21.7258155 C1.60729077,21.7258155 1.47316014,21.6631872 1.3776286,21.5613448 C1.33806329,21.5215092 1.30523671,21.4740847 1.28063536,21.4226455 L7.39571869,16.589382 L7.41647995,16.5737637 L10.6648989,14.0054304 C10.7633043,13.9283234 10.8766984,13.8894203 10.9891264,13.8894203 C11.1010588,13.8894203 11.2135115,13.9283234 11.3119417,14.0054304 L14.5646714,16.5767682 L14.5782232,16.5878797 L20.6976173,21.4241477 C20.6774011,21.4655115 20.6512885,21.5043628 20.6223268,21.5401838 L20.6223268,21.5401838 Z M1.22030878,12.2767266 L2.66455428,13.4178167 C2.68093041,13.4319586 2.69876824,13.4465667 2.71809257,13.4591804 L6.02678851,16.0748088 L1.22030878,19.8754552 L1.22030878,12.2767266 Z M1.22030878,8.97907568 C1.22030878,8.88471869 1.2381714,8.80048896 1.27243491,8.72876937 C1.30620293,8.65619505 1.36120293,8.58859369 1.43069617,8.53161171 C1.45435608,8.51443941 1.47459707,8.49426261 1.49535833,8.47310158 L2.44742815,7.4762795 L2.44742815,11.6501838 L1.22030878,10.6810239 L1.22030878,8.97907568 Z M3.66721419,2.0164732 C3.66721419,1.81763198 3.74542815,1.63601486 3.86989662,1.50596644 C3.99533131,1.37477838 4.16905203,1.29298333 4.35917365,1.29298333 L4.35917365,1.29005653 L13.2609236,1.29155878 L13.2609236,5.04527275 C13.2609236,5.5643527 13.4635813,6.03655203 13.7902119,6.37655315 L13.7916984,6.37655315 C14.1188245,6.71857455 14.568561,6.9299259 15.0636106,6.9299259 L18.3178268,6.9299259 L18.3148786,12.6111849 L14.9405543,15.2782784 L12.0449282,12.9890014 C11.7288516,12.7398088 11.3597322,12.6142153 10.9891264,12.6142153 C10.6185453,12.6142153 10.2479642,12.7398088 9.93191239,12.9890014 L7.03628626,15.2782784 L3.66721419,12.6142153 L3.66721419,2.0164732 Z M14.4797435,2.19254752 L17.7899011,5.65464324 L15.0636106,5.65464324 C14.9024259,5.65464324 14.75623,5.58755991 14.6505903,5.47709257 L14.6520025,5.47556441 C14.5453718,5.36558919 14.4797435,5.21267027 14.4797435,5.04527275 L14.4797435,2.19254752 Z M21.7958583,8.16133243 C21.6824642,7.92371757 21.5198426,7.7148009 21.3104214,7.54183468 L19.361489,5.50278626 L19.3556917,5.49576712 L19.3504394,5.49009482 L14.3388493,0.24783018 C14.2264214,0.107499099 14.058498,0.0187885135 13.8707795,0.0187885135 C13.8519755,0.0187885135 13.8341128,0.0187885135 13.816275,0.0202907658 L4.35917365,0.0202907658 L4.35917365,0.0187885135 C3.83273446,0.0187885135 3.35406104,0.243297523 3.00808131,0.605495721 C2.66212635,0.965673649 2.44742815,1.46610495 2.44742815,2.0164732 L2.44742815,5.67886059 L0.667806532,7.54183468 C0.456948423,7.7148009 0.294351577,7.92371757 0.180957432,8.16133243 C0.061765991,8.41000698 2.47747748e-06,8.68598108 2.47747748e-06,8.97907568 L2.47747748e-06,21.1668741 C2.47747748e-06,21.6718381 0.197358333,22.1309056 0.514376351,22.4623077 C0.833326802,22.7942795 1.2709732,23.0000104 1.75494842,23.0000104 L20.2218426,23.0000104 C20.7058178,23.0000104 21.1449259,22.7942795 21.4624394,22.4623077 L21.4991061,22.4194676 C21.7948921,22.090552 21.9767885,21.6486309 21.9767885,21.1668741 L21.9767885,8.97907568 C21.9767885,8.68598108 21.9150498,8.41000698 21.7958583,8.16133243 L21.7958583,8.16133243 Z" id="Fill-5" fill="#FFFFFF" mask="url(#mask-2)"></path>
                </g>
            </g>
        </g>
    </g>
</svg>