<?xml version="1.0" encoding="UTF-8"?>
<svg width="338px" height="211px" viewBox="0 0 338 211" version="1.1" xmlns="http://www.w3.org/2000/svg" xmlns:xlink="http://www.w3.org/1999/xlink">
    <!-- Generator: Sketch 64 (93537) - https://sketch.com -->
    <title>Tarjeta</title>
    <desc>Created with Sketch.</desc>
    <defs>
        <filter x="-3.6%" y="-4.1%" width="107.3%" height="108.2%" filterUnits="objectBoundingBox" id="filter-1">
            <feOffset dx="0" dy="2" in="SourceAlpha" result="shadowOffsetOuter1"></feOffset>
            <feGaussianBlur stdDeviation="2" in="shadowOffsetOuter1" result="shadowBlurOuter1"></feGaussianBlur>
            <feColorMatrix values="0 0 0 0 0   0 0 0 0 0   0 0 0 0 0  0 0 0 0.5 0" type="matrix" in="shadowBlurOuter1" result="shadowMatrixOuter1"></feColorMatrix>
            <feMerge>
                <feMergeNode in="shadowMatrixOuter1"></feMergeNode>
                <feMergeNode in="SourceGraphic"></feMergeNode>
            </feMerge>
        </filter>
        <polygon id="path-2" points="167.047444 0.51213812 250.239193 60.0437795 83.4302894 290.86952 0.237496835 231.338398"></polygon>
        <polygon id="path-4" points="141.978465 0.315400153 176.835117 25.4894498 35.2642836 223.207748 0.40815143 198.033699"></polygon>
    </defs>
    <g id="Page-1" stroke="none" stroke-width="1" fill="none" fill-rule="evenodd">
        <g id="iPhone-11---Tarjeta-virtual" transform="translate(-43.000000, -141.000000)">
            <g id="Tarjeta" filter="url(#filter-1)" transform="translate(47.000000, 98.939655)">
                <path d="M311.339124,247.060345 L21.7355101,245.734264 C11.9378117,245.690068 3.95488762,237.647952 4,227.863992 L4.76411554,61.7665028 C4.80837833,51.9835833 12.8626436,44.0153006 22.6619042,44.0603448 L312.26708,45.387457 C322.064779,45.4316531 330.046661,53.475329 330,63.2582485 L329.236912,229.354178 C329.19317,239.137097 321.139947,247.10642 311.339124,247.060345" id="Fill-1" fill="#E1F1FB"></path>
                <path d="M326,63.261419 L325.235874,229.358828 C325.191091,239.136574 317.138896,247.104358 307.334412,247.060345 L17.7272111,245.732718 C7.93626661,245.688522 -0.0456287435,237.644824 0,227.870198 L0.764121209,61.7722691 C0.807342589,51.9841242 8.86162074,44.0153004 18.6541274,44.0603448 L308.26237,45.3869406 C318.06425,45.4316567 326.046145,53.475354 326,63.261419" id="Fill-3" fill="#003DA6"></path>
                <g id="Group-7" transform="translate(12.000000, 0.060345)">
                    <mask id="mask-3" fill="white">
                        <use xlink:href="#path-2"></use>
                    </mask>
                    <g id="Clip-6"></g>
                    <polygon id="Fill-5" fill="#0D57D6" mask="url(#mask-3)" points="229.825479 45.434754 115.581149 246.378326 20.6507935 245.945138 134.896689 45.002605"></polygon>
                </g>
                <g id="Group-10" transform="translate(123.000000, 34.060345)">
                    <mask id="mask-5" fill="white">
                        <use xlink:href="#path-4"></use>
                    </mask>
                    <g id="Clip-9"></g>
                    <polygon id="Fill-8" fill="#0D57D6" mask="url(#mask-5)" points="156.501325 10.8038129 42.7019465 212.821266 20.7423597 212.719962 134.541738 10.7030311"></polygon>
                </g>
                <path d="M37.9805265,160.394832 L37.9302454,155.7813 L37.708479,135.525756 C37.6947179,134.274559 38.9570394,134.28943 38.9570394,134.28943 L43.9803908,134.237639 C43.9803908,134.237639 50.3486307,134.466341 50.4047339,139.583428 C50.4047339,139.583428 50.5862753,144.364641 45.965173,145.460977 C45.6179685,145.552765 45.1876677,145.63635 45.1876677,145.63635 C43.6723526,145.652246 43.7702685,146.70038 43.7702685,146.70038 L43.7850882,148.04234 L43.8025543,149.63659 L43.817374,150.979575 C43.817374,150.979575 43.7422169,152.029248 45.2585906,152.012838 C45.2585906,152.012838 50.501062,152.378967 54.6960976,147.930552 C54.6960976,147.930552 59.7157442,143.683662 57.3805817,136.07136 C57.3805817,136.07136 54.9972553,127.968322 45.9048356,128.061136 C36.8118868,128.154976 34.6905515,128.177026 34.6905515,128.177026 L33.9109291,128.18523 L33.0021635,128.193948 L31.9589619,128.205229 C30.8686549,128.215997 29.9884702,128.530335 30,129.586673 L30.0456319,133.751518 L30.2758666,154.767523 L30.336204,160.290223 L30.3568457,162.170095 C30.3684898,163.225408 31.2613771,164.072017 32.3516842,164.060345 L35.9459924,164.023303 C37.0362995,164.012534 38.0096367,163.049523 37.9979926,161.992672 L37.9805265,160.394832" id="Fill-11" fill="#FFFFFF"></path>
                <path d="M128.735284,163.783004 L134,163.727862 L133.715784,137.278281 L133.656874,131.800373 L133.637237,129.936792 C133.625868,128.889102 132.753583,128.049724 131.689065,128.060345 L128.180287,128.097207 C127.116285,128.10844 126.163903,129.064227 126.175272,130.111407 L126.192325,131.696728 L126.409362,151.904587 L108.224181,129.279178 C108.224181,129.279178 107.22374,128.275396 105.846067,128.289692 L102.642693,128.312668 L100,128.340749 L100.284216,154.841387 L100.343126,160.320316 L100.36328,162.184408 C100.374649,163.232098 101.246417,164.070965 102.310419,164.060345 L105.82023,164.023482 C106.883715,164.01225 107.836097,163.056973 107.824728,162.008772 L107.807675,160.423451 L107.758583,155.845168 L107.589087,140.031787 L125.337092,162.32073 C125.337092,162.32073 126.494627,163.80649 127.171062,163.799342 L128.735284,163.783004 Z" id="Fill-13" fill="#FFFFFF"></path>
                <path d="M159.018718,160.396119 L158.969804,155.78305 L158.708762,131.316044 L160.542237,134.060917 C160.542237,134.060917 160.914492,134.653572 161.67342,134.775589 L166.387628,134.730987 L168.431687,134.709454 C169.490787,134.698175 170.005664,134.254709 169.994336,133.199107 L170,131.651847 L169.978375,129.617032 C169.967048,128.561429 169.521165,128.048752 168.462064,128.060345 L164.835276,128.098482 L145.109848,128.306629 L141.484089,128.345079 C140.422929,128.356358 139.988888,128.877751 140,129.933353 L140.021841,131.968682 L140.060971,133.515429 C140.072298,134.571031 140.595928,135.003731 141.656573,134.992452 L143.699087,134.970919 L151.339852,134.889916 L151.504098,150.296379 L151.523663,154.769487 L151.582874,160.29102 L151.602954,162.170495 C151.613766,163.225585 152.482877,164.072015 153.542493,164.060345 L157.039533,164.023823 C158.099148,164.012544 159.047036,163.050249 159.035709,161.993621 L159.018718,160.396119" id="Fill-15" fill="#FFFFFF"></path>
                <path d="M64.0165045,131.914313 L64,130.342321 C63.988824,129.303895 64.9212476,128.357727 65.9633681,128.346451 L69.3998539,128.31006 C70.4404366,128.298784 71.2949446,129.13014 71.3057092,130.169079 L71.3251881,132.01631 L71.3831122,137.443704 L71.4031037,141.385727 L71.4897335,149.549113 C71.5368929,154.012399 75.2081506,157.592562 79.6877821,157.544895 C84.1679262,157.497228 87.7617809,153.840183 87.7141089,149.376896 L87.6279917,141.214022 L87.5264965,131.665213 L87.5095806,130.092709 C87.4988159,129.054795 88.4302143,128.108115 89.4723348,128.097352 L92.908308,128.060345 C93.9499159,128.049685 94.8028861,128.881041 94.8141634,129.919468 L94.8336423,131.767211 L94.8910537,137.194092 L94.9541038,145.107866 L94.9992128,149.368183 C95.0843048,157.391643 88.2600304,163.969199 79.7569834,164.059407 C71.2539364,164.149616 64.2902342,157.718137 64.2051422,149.694677 L64.1600332,145.434873 L64.0646891,136.450381 L64.0165045,131.914313" id="Fill-17" fill="#FFFFFF"></path>
                <path d="M217.55227,135.777368 L217.729848,152.30291 L210.259617,152.380875 L210,128.231158 L226.179356,128.061379 C236.428012,127.954177 244.897769,136.196431 244.99902,145.642529 C245.10079,155.090165 237.26398,163.759689 226.693398,163.870482 L214.063012,164.042826 L212.447673,164.060345 C211.380126,164.071037 210.37333,162.986705 210.360349,161.776193 L210.35308,161.102205 L210.345291,160.383078 L210.335426,159.461858 C210.324003,158.401121 211.453338,157.431686 212.669905,157.418862 L214.259802,157.402449 L225.947777,157.237798 C232.600732,157.16804 237.531905,151.713042 237.46752,145.769222 C237.403654,139.825915 232.075786,134.639179 225.626371,134.706885 L217.541366,134.791519 L217.55227,135.777368 Z" id="Fill-19" fill="#FFFFFF"></path>
                <path d="M185.443148,128.110056 L183.031045,128.135629 C181.945599,128.14637 181.715306,129.102296 181.715306,129.102296 L181.435626,129.944677 L170.14137,163.030256 C170.14137,163.030256 169.748883,163.986694 170.271852,164.060345 L176.825599,163.991809 C176.825599,163.991809 177.588738,163.865477 177.939117,162.909551 L179.344271,158.887399 C179.344271,158.887399 179.632787,158.055247 180.540445,157.408756 L186.097639,152.060889 L181.504247,152.108967 L186.282186,137.505137 L186.732376,136.116001 L187.744523,138.974573 L192.247982,151.996956 L194.556115,158.728333 L196.046005,162.720821 C196.418217,163.669075 197.183436,163.77904 197.183436,163.77904 L203.735103,163.711015 C204.258072,163.626623 203.845311,162.678369 203.845311,162.678369 L191.83886,129.836247 L191.543066,129.000003 C191.543066,129.000003 191.291459,128.049192 190.206012,128.060345 L187.794429,128.085506 L185.443148,128.110056 Z" id="Fill-21" fill="#FFFFFF"></path>
                <path d="M260.442558,127.110056 L258.030922,127.135629 C256.945452,127.146881 256.715154,128.102296 256.715154,128.102296 L256.436508,128.944677 L245.141485,162.030256 C245.141485,162.030256 244.74847,162.986694 245.27249,163.060345 L251.8243,162.991809 C251.8243,162.991809 252.587456,162.865477 252.939402,161.909551 L254.343027,157.887399 C254.343027,157.887399 254.63155,157.055247 255.542347,156.408756 L261.098623,151.060889 L256.50513,151.108967 L261.282134,136.505137 L261.731814,135.116001 L262.743464,137.974573 L267.2491,150.996956 L269.556244,157.728333 L271.047205,161.720821 C271.417866,162.669075 272.183622,162.779551 272.183622,162.779551 L278.736472,162.711015 C279.257892,162.626623 278.844603,161.678881 278.844603,161.678881 L266.840489,128.836247 L266.542609,128.000003 C266.542609,128.000003 266.291516,127.049192 265.205526,127.060345 L262.79441,127.085506 L260.442558,127.110056 Z" id="Fill-23" fill="#FFFFFF"></path>
                <path d="M161.829309,178.077566 L159.584447,178.101164 C159.516482,178.101666 159.456126,178.140828 159.430259,178.201579 C159.237016,178.640897 158.628378,179.667646 157.123012,179.68321 C155.647571,179.698775 154.56673,178.602237 154.549993,177.076423 C154.542385,176.339875 154.792941,175.642991 155.23116,175.167524 C155.747996,174.661932 156.309465,174.422441 156.998748,174.41491 L157.066205,174.416416 C158.133859,174.40537 159.008269,174.969705 159.403377,175.927167 C159.429244,175.990931 159.491123,176.031097 159.562638,176.030093 L161.806992,176.006496 C161.857205,176.005994 161.906403,175.982898 161.938356,175.94223 C161.969295,175.902064 161.981468,175.848341 161.968281,175.800142 C161.397683,173.536274 159.383089,172.035061 156.957158,172.060667 C154.148798,172.089788 151.97038,174.305457 152.000305,177.103535 C152.030229,179.913162 154.291321,182.089669 157.148372,182.060046 C159.499238,182.034942 161.446374,180.515655 161.995163,178.282916 C162.007843,178.23321 161.995163,178.180994 161.962195,178.139824 C161.929227,178.099155 161.880029,178.076562 161.829309,178.077566" id="Fill-25" fill="#FFFFFF"></path>
                <path d="M188.948347,176.664312 C188.92781,174.774473 188.754562,173.93818 187.815653,173.01243 C186.949939,172.166936 185.768272,172.053964 185.141631,172.06061 C184.170599,172.070833 183.266971,172.418437 182.597676,173.043101 C182.357025,173.26751 182.177457,173.503164 182.037911,173.714282 C181.908897,173.503676 181.738282,173.260864 181.577672,173.096264 C180.934706,172.438373 180.098482,172.11275 179.089536,172.122974 C177.788859,172.136776 176.942103,172.738948 176.498188,173.23326 L176.496608,173.074283 C176.496608,173.06866 176.494502,173.063548 176.493975,173.057925 L176.493975,173.026232 C176.493975,173.022142 176.492396,173.020098 176.492396,173.016008 C176.470806,172.776264 176.321781,172.435306 175.632475,172.442462 L175.545587,172.442974 C175.542955,172.443485 175.541901,172.445018 175.538742,172.44553 L174.944749,172.451664 C174.941589,172.451664 174.93843,172.449619 174.937376,172.449619 L174.849436,172.450641 C174.842064,172.450641 174.834691,172.452686 174.826793,172.452686 L174.806256,172.453197 C174.800463,172.453197 174.798357,172.455242 174.79625,172.455242 C174.103785,172.482846 173.997414,172.867254 174,173.099331 L174.015845,174.536262 C174.015845,174.54393 174.020057,174.548531 174.021637,174.556199 L174.080615,179.982392 C174.081142,179.984947 174.079562,179.986992 174.079562,179.99057 L174.094833,181.427502 C174.097993,181.665201 174.211209,182.065968 174.955807,182.058811 L174.975818,182.058811 C174.975818,182.058811 174.979504,182.060345 174.981083,182.060345 L175.873126,182.051144 C175.875233,182.051144 175.876286,182.048588 175.877866,182.048588 C176.588762,182.039898 176.713563,181.672869 176.720936,181.432103 C176.721989,181.425457 176.726728,181.420857 176.726728,181.4137 L176.676702,176.858049 C176.669856,176.249232 176.779914,175.737539 177.001608,175.335751 C177.204345,174.979968 177.62509,174.554154 178.469213,174.545464 C179.135349,174.552109 179.599801,174.800543 179.888372,175.298434 C180.139029,175.768721 180.17905,176.299328 180.183789,176.754791 L180.233815,181.324243 C180.233815,181.327822 180.234868,181.328333 180.235395,181.332933 L180.235395,181.364627 C180.238028,181.600793 180.353351,181.993891 181.078465,181.993891 C181.084257,181.994914 181.08847,181.997469 181.095842,181.997469 L181.994731,181.988268 C181.99789,181.988268 181.998944,181.986223 182.001577,181.986223 L182.015268,181.985712 C182.760919,181.978556 182.867817,181.574722 182.865184,181.337534 L182.849386,179.900091 C182.849386,179.896002 182.8457,179.891912 182.8457,179.888334 L182.810945,176.727698 C182.805679,176.231341 182.826743,175.744696 183.103202,175.255495 C183.383348,174.764761 183.91257,174.489745 184.593977,174.482588 C185.255374,174.475943 185.697183,174.690128 185.949946,175.151214 C186.267479,175.610255 186.314872,176.229296 186.320665,176.775749 L186.370164,181.261368 C186.370164,181.261879 186.370164,181.263924 186.370164,181.264435 L186.370691,181.30124 C186.373324,181.53894 186.490753,181.939706 187.234298,181.932549 L187.262734,181.932038 C187.264313,181.932038 187.266946,181.934083 187.266946,181.934083 L188.167415,181.924371 C188.169521,181.924371 188.172681,181.920281 188.178473,181.920281 C188.896741,181.903923 189.002586,181.509291 189,181.274659 L188.984155,179.837216 C188.984155,179.83466 188.983102,179.833638 188.983102,179.833126 L188.948347,176.664312 Z" id="Fill-27" fill="#FFFFFF"></path>
                <path d="M203.659485,169.060345 L201.186832,169.082305 C201.081139,169.08326 200.998869,169.154839 201,169.243119 L201.147982,180.90143 C201.149125,180.990188 201.233108,181.06129 201.339373,181.060345 L203.811454,181.038862 C203.916577,181.037907 204.001131,180.964897 204,180.876616 L203.852018,169.217828 C203.850875,169.130025 203.764607,169.0594 203.659485,169.060345" id="Fill-29" fill="#FFFFFF"></path>
                <path d="M170.911083,172.647398 C170.911083,172.643285 170.908017,172.640715 170.908017,172.636602 C170.887066,172.399622 170.743981,172.068056 170.107256,172.062915 C170.106234,172.062915 170.106234,172.062401 170.104701,172.062401 L170.097036,172.062401 C170.090393,172.062401 170.084261,172.060345 170.075062,172.060345 L169.9933,172.061373 C169.989723,172.061373 169.986146,172.063429 169.98308,172.063429 L169.272769,172.07114 C169.26868,172.07114 169.266125,172.069598 169.26357,172.069598 L169.180275,172.070112 C169.172099,172.070626 169.165455,172.072682 169.157279,172.072682 L169.131728,172.072682 C169.12764,172.072682 169.126107,172.074738 169.12253,172.075767 C168.457699,172.105068 168.353963,172.490096 168.356007,172.722964 L168.371338,174.167978 C168.371849,174.175174 168.374404,174.180315 168.375937,174.187512 L168.409664,177.396254 C168.424994,178.85926 167.773961,179.606698 166.477004,179.620578 L166.441744,179.622634 C165.200488,179.636514 164.615887,178.91889 164.599534,177.367981 L164.550988,172.761518 C164.550988,172.755864 164.549455,172.751751 164.547922,172.747639 C164.540257,172.510145 164.420168,172.136425 163.745628,172.130771 C163.745117,172.130771 163.745117,172.130257 163.743073,172.130257 L163.734897,172.130257 C163.725698,172.130257 163.719566,172.128714 163.711901,172.128714 L163.629628,172.129228 C163.626561,172.129742 163.624006,172.131285 163.621962,172.131799 L162.91625,172.13951 C162.914717,172.13951 162.912162,172.137453 162.909096,172.137453 L162.82529,172.138481 C162.108335,172.145678 162.002044,172.544586 162.002555,172.785679 C162.002044,172.79082 162,172.792876 162,172.798016 L162.054168,177.955548 C162.091983,181.542122 164.465648,182.06646 165.876561,182.060345 L165.930729,182.059777 C167.305871,182.04487 168.11072,181.493801 168.580854,180.900065 L168.582898,181.118539 C168.582898,181.123166 168.588008,181.12625 168.588008,181.130877 C168.598228,181.374026 168.732114,181.738492 169.420963,181.731295 L169.503236,181.730267 C169.50528,181.730267 169.50528,181.732323 169.508858,181.732323 L170.176754,181.725126 C170.182376,181.724612 170.184931,181.722042 170.189019,181.7205 C170.867136,181.706106 170.988247,181.343182 170.99489,181.102604 C170.99489,181.096435 171,181.09078 171,181.084098 L170.926925,174.142275 L170.926925,174.140219 L170.911594,172.696233 L170.911594,172.690578 L170.911083,172.647398 Z" id="Fill-31" fill="#FFFFFF"></path>
                <path d="M198.911093,172.647398 C198.911093,172.643285 198.908028,172.640715 198.907006,172.636602 C198.887078,172.399622 198.744521,172.068056 198.108891,172.062915 C198.107358,172.062915 198.106336,172.061887 198.105314,172.061887 L198.098161,172.062401 C198.088963,172.062401 198.084365,172.060345 198.075167,172.060345 L197.991371,172.061373 C197.988305,172.061373 197.98575,172.063429 197.983195,172.063429 L197.271943,172.07114 C197.268877,172.07114 197.266833,172.069084 197.263767,172.069084 L197.180481,172.070112 C197.171284,172.070112 197.165664,172.072168 197.156977,172.072682 L197.131941,172.072682 C197.127853,172.072682 197.126831,172.074738 197.123254,172.075767 C196.456455,172.105068 196.354775,172.490096 196.357329,172.722964 L196.372658,174.167978 C196.372658,174.175174 196.375213,174.180315 196.375213,174.187512 L196.409447,177.39574 C196.424776,178.85926 195.774327,179.606698 194.479562,179.620064 C194.477518,179.620064 194.441751,179.622634 194.441751,179.622634 C193.200636,179.636514 192.616101,178.91889 192.599239,177.367981 L192.551209,172.761004 C192.550698,172.754321 192.548654,172.750209 192.548654,172.743526 C192.54099,172.50706 192.418871,172.136425 191.744919,172.130771 C191.744919,172.130771 191.744408,172.130257 191.742364,172.130257 L191.7347,172.130257 C191.726524,172.130257 191.719882,172.1282 191.712729,172.1282 L191.629953,172.129228 C191.627399,172.129228 191.624844,172.131285 191.6228,172.131285 L190.918701,172.138996 C190.914102,172.138996 190.913081,172.136939 190.911037,172.137453 L190.826218,172.137967 C190.109345,172.145678 190.002044,172.544586 190.002555,172.785679 C190.003066,172.79082 190,172.792876 190,172.798016 L190.054672,177.955548 C190.091972,181.542122 192.465368,182.06646 193.876632,182.060345 L193.929772,182.059777 C195.305269,182.04487 196.113092,181.493287 196.580618,180.900065 L196.583172,181.118539 C196.583172,181.121624 196.58726,181.125736 196.58726,181.129849 C196.599012,181.371455 196.729306,181.738492 197.422164,181.730781 L197.502384,181.730267 C197.504428,181.730267 197.50545,181.732323 197.506472,181.732323 L198.176848,181.724612 C198.179914,181.724612 198.186556,181.722042 198.190133,181.7205 C198.865107,181.706106 198.988248,181.343182 198.993869,181.102604 C198.994379,181.096435 199,181.09078 199,181.084098 L198.926933,174.142275 L198.926933,174.140219 L198.911604,172.695719 L198.911604,172.690578 L198.911093,172.647398 Z" id="Fill-33" fill="#FFFFFF"></path>
                <path d="M212.95065,177.112186 C212.959823,177.934107 212.671368,178.63396 212.073051,179.256504 C211.475244,179.875996 210.80201,180.181673 210.019714,180.189811 C209.151288,180.198966 208.435754,179.910582 207.830303,179.304314 C207.223832,178.700589 206.926202,177.965641 206.916519,177.056238 C206.907346,176.19668 207.189686,175.486655 207.780358,174.885473 C208.373069,174.283782 209.072294,173.987768 209.915238,173.979122 C210.736267,173.970475 211.430396,174.26598 212.035847,174.88293 C212.632125,175.49581 212.941476,176.244999 212.95065,177.112186 L212.95065,177.112186 Z M214.908175,172.804223 L214.908175,172.80168 C214.888809,172.579415 214.751206,172.27679 214.181939,172.253902 C214.172765,172.252885 214.168179,172.248816 214.159515,172.248816 L214.115176,172.249325 C214.10906,172.249325 214.104474,172.248816 214.096319,172.248816 L214.015796,172.249833 C214.013248,172.249833 214.012229,172.250342 214.008661,172.250342 L213.780343,172.252885 C213.777285,172.252885 213.775756,172.252376 213.773718,172.252376 L213.691156,172.253394 C213.684531,172.253394 213.679944,172.253902 213.674848,172.253902 L213.665164,172.254411 L213.659049,172.254411 C212.987854,172.275773 212.884906,172.656216 212.887455,172.886618 L212.890513,173.152115 C212.515928,172.825585 212.106687,172.567209 211.668907,172.389702 C211.116967,172.16286 210.50591,172.054017 209.853062,172.060629 C209.128864,172.068767 208.473468,172.196429 207.905729,172.441581 C207.33901,172.688259 206.811024,173.068194 206.33604,173.573756 C205.904885,174.033035 205.568523,174.57064 205.336637,175.173857 C205.10679,175.775039 204.99365,176.417928 205.000275,177.082178 C205.015564,178.513927 205.509405,179.717817 206.466508,180.659262 C207.421062,181.603759 208.630437,182.075244 210.061504,182.059986 C210.6746,182.053374 211.260686,181.928764 211.799375,181.688189 C212.223904,181.500002 212.617855,181.239591 212.975622,180.916112 L212.97868,181.196359 L212.97919,181.210092 C212.97919,181.213143 212.979699,181.214669 212.979699,181.217212 C212.988873,181.452192 213.111696,181.820429 213.796651,181.813308 L213.856789,181.812799 L213.877174,181.812291 L213.884819,181.812291 L214.116195,181.809748 L214.169707,181.809239 L214.196718,181.808731 C214.90053,181.80161 215.002458,181.407434 214.999956,181.174997 L214.985131,179.78292 C214.985131,179.780885 214.982582,179.780885 214.982582,179.780377 L214.923974,174.271575 C214.923974,174.266998 214.927032,174.261911 214.927032,174.256825 L214.912252,172.865257 C214.912252,172.848472 214.911233,172.833214 214.908685,172.817447 L214.908175,172.804223 Z" id="Fill-35" fill="#FFFFFF"></path>
                <path d="M147.949836,177.111935 C147.958501,177.933897 147.672041,178.633786 147.072107,179.25687 C146.475231,179.875885 145.801897,180.181578 145.018975,180.190225 C144.15042,180.198872 143.43529,179.910982 142.828729,179.304174 C142.222678,178.700927 141.924495,177.965433 141.91481,177.055985 C141.905635,176.196891 142.188527,175.48683 142.780306,174.885617 C143.373614,174.283896 144.072944,173.987359 144.915502,173.978712 C145.735634,173.970065 146.429356,174.265585 147.035917,174.883074 C147.632284,175.495477 147.940661,176.244704 147.949836,177.111935 L147.949836,177.111935 Z M149.91071,172.803753 C149.91071,172.803753 149.909181,172.801719 149.909181,172.80121 C149.887773,172.578934 149.750659,172.276293 149.181308,172.253405 C149.174681,172.252387 149.168055,172.248318 149.160409,172.248318 L149.114025,172.248827 C149.107909,172.248827 149.103831,172.248318 149.096185,172.248318 L149.01616,172.249335 C149.012082,172.249335 149.011573,172.250353 149.009024,172.250353 L148.780672,172.252387 C148.778123,172.252387 148.776084,172.251879 148.772516,172.251879 L148.693001,172.252896 C148.684336,172.252896 148.680768,172.253913 148.674141,172.253913 L148.664966,172.253913 L148.659869,172.253913 C147.988065,172.275276 147.886122,172.655739 147.88867,172.886153 L147.891219,173.151663 C147.51454,172.825116 147.107277,172.566727 146.669942,172.389212 C146.11792,172.162358 145.506772,172.054018 144.851788,172.06063 C144.129522,172.06826 143.472499,172.196437 142.905696,172.441093 C142.338383,172.687783 141.809809,173.068246 141.336283,173.573326 C140.904045,174.033136 140.566614,174.57026 140.334184,175.174016 C140.105322,175.775229 139.993184,176.417641 140.00032,177.081925 C140.015612,178.513747 140.507996,179.717698 141.464732,180.659191 C142.421467,181.603736 143.631021,182.075245 145.060262,182.059986 C145.673958,182.053374 146.258602,181.928757 146.800429,181.688679 C147.222473,181.499973 147.618012,181.23955 147.976341,180.916054 L147.9794,181.196315 L147.979909,181.210048 C147.979909,181.2131 147.981438,181.214626 147.981438,181.217678 C147.989594,181.45267 148.110906,181.820925 148.795963,181.813296 L148.856619,181.812787 L148.877518,181.812278 L148.884144,181.812278 L149.115554,181.809735 L149.170604,181.809226 L149.197109,181.809226 C149.900516,181.802105 150.002459,181.407401 149.999956,181.174952 L149.985638,179.782804 C149.985128,179.781278 149.984619,179.781278 149.984619,179.780261 L149.926001,174.271689 C149.926001,174.266602 149.92855,174.261516 149.92855,174.256429 L149.913768,172.86479 C149.913768,172.848514 149.911729,172.832746 149.91071,172.817486 L149.91071,172.803753 Z" id="Fill-37" fill="#FFFFFF"></path>
                <path d="M252.951486,176.111689 C252.960151,176.933612 252.672684,177.633466 252.073285,178.25652 C251.475416,178.876014 250.802621,179.181183 250.018714,179.18983 C249.151727,179.198985 248.435609,178.9106 247.828564,178.30433 C247.223559,177.700604 246.925389,176.965654 246.915705,176.05625 C246.90653,175.19669 247.18941,174.486663 247.779634,173.885479 C248.372916,173.283787 249.072724,172.987773 249.915756,172.979126 C250.736871,172.969971 251.430563,173.265985 252.034549,173.882936 C252.632928,174.495309 252.942311,175.245008 252.951486,176.111689 L252.951486,176.111689 Z M254.910235,171.804225 C254.910235,171.804225 254.908196,171.80219 254.908196,171.801173 C254.887809,171.578908 254.749172,171.27679 254.181884,171.253903 C254.173729,171.252377 254.167103,171.248816 254.159967,171.248816 L254.114095,171.249325 C254.108998,171.249325 254.102882,171.248816 254.096256,171.248816 L254.016744,171.249325 C254.015724,171.249325 254.012156,171.250342 254.011137,171.250342 L253.780246,171.252885 C253.777698,171.252885 253.776678,171.251868 253.77362,171.252377 L253.69156,171.252885 C253.684424,171.252885 253.680347,171.253903 253.675759,171.253903 L253.665565,171.253903 L253.659959,171.253903 C252.987674,171.275773 252.886755,171.655709 252.888794,171.886112 L252.891852,172.151609 C252.51417,171.825586 252.107944,171.56721 251.668589,171.389194 C251.117612,171.16286 250.505471,171.054017 249.853064,171.060629 C249.128791,171.068258 248.473326,171.196429 247.905528,171.441073 C247.33824,171.687752 246.810708,172.068196 246.336694,172.573251 C245.903965,173.03304 245.566548,173.570646 245.336167,174.173864 C245.104767,174.775048 244.993654,175.417429 245.00028,176.081681 C245.01557,177.513942 245.507934,178.717326 246.464627,179.659282 C247.42132,180.603781 248.63184,181.074759 250.059999,181.060009 C250.674179,181.053397 251.259306,180.928786 251.799071,180.688211 C252.222625,180.499515 252.617637,180.239612 252.975441,179.916133 L252.9785,180.19638 L252.9785,180.209604 C252.979009,180.212655 252.980029,180.21469 252.980029,180.217233 C252.989203,180.452213 253.11051,180.820451 253.797576,180.812822 L253.85772,180.812313 L253.878107,180.812313 L253.884224,180.812313 L254.117153,180.80977 L254.170671,180.808753 L254.196156,180.808753 C254.90157,180.801632 255.00198,180.407455 254.999971,180.175018 L254.98465,178.782937 C254.98465,178.780903 254.98414,178.780903 254.98414,178.780394 L254.925526,173.27158 C254.925526,173.267003 254.927565,173.261408 254.927565,173.25683 L254.912784,171.86475 C254.912784,171.848474 254.911254,171.833216 254.910235,171.817449 L254.910235,171.804225 Z" id="Fill-39" fill="#FFFFFF"></path>
                <path d="M276.951089,176.112186 C276.959753,176.934107 276.671283,177.63396 276.073446,178.256504 C275.473571,178.875996 274.802852,179.181673 274.018478,179.189811 C273.151029,179.198966 272.435459,178.910582 271.828958,178.304314 C271.223986,177.700589 270.925323,176.965641 270.915639,176.056238 C270.906465,175.19668 271.18831,174.486655 271.779011,173.885473 C272.37328,173.283782 273.072031,172.987768 273.915016,172.979122 C274.736596,172.969967 275.42923,173.26598 276.034712,173.88293 C276.632549,174.49581 276.941915,175.244999 276.951089,176.112186 L276.951089,176.112186 Z M278.908712,171.804223 C278.908712,171.804223 278.908202,171.802188 278.908202,171.80168 C278.887306,171.579415 278.750206,171.27679 278.182439,171.253902 C278.173775,171.252885 278.168678,171.248816 278.161543,171.248816 L278.114654,171.249325 C278.108538,171.249325 278.103951,171.248816 278.097325,171.248816 L278.016289,171.249833 C278.01476,171.249833 278.011702,171.250342 278.011192,171.250342 L277.780823,171.252885 C277.776746,171.252885 277.774707,171.252376 277.774707,171.252376 L277.692142,171.253394 C277.685006,171.253394 277.67991,171.253902 277.674813,171.253902 L277.66462,171.254411 L277.659523,171.254411 C276.986256,171.275773 276.885342,171.656216 276.887381,171.886618 L276.890439,172.152115 C276.514306,171.825585 276.108104,171.567209 275.668773,171.389194 C275.117825,171.16286 274.506737,171.054017 273.852327,171.060629 C273.129113,171.068767 272.472155,171.196429 271.905408,171.441581 C271.338661,171.688259 270.811158,172.068194 270.33666,172.573756 C269.904974,173.033035 269.567066,173.57064 269.336698,174.173857 C269.105819,174.775039 268.993184,175.417928 269.000319,176.082178 C269.015609,177.513927 269.507945,178.717817 270.464076,179.659262 C271.421736,180.603759 272.630661,181.075244 274.059761,181.059986 C274.673397,181.053374 275.259512,180.928764 275.799247,180.688189 C276.222778,180.500002 276.616749,180.239591 276.975043,179.916112 L276.978101,180.196359 L276.978101,180.210092 C276.978101,180.213143 276.98065,180.214669 276.98065,180.217212 C276.989824,180.452192 277.110105,180.820429 277.797642,180.813308 L277.857273,180.812291 L277.876131,180.812291 L277.885305,180.812291 L278.116692,180.809748 L278.170207,180.809239 L278.1962,180.808731 C278.900557,180.80161 279.00198,180.407434 278.999971,180.174997 L278.984652,178.78292 C278.984652,178.780885 278.982613,178.780885 278.982613,178.780377 L278.924511,173.271575 C278.924511,173.266998 278.927569,173.261911 278.927569,173.256825 L278.912789,171.865257 C278.912789,171.848472 278.91126,171.833214 278.908712,171.817447 L278.908712,171.804223 Z" id="Fill-41" fill="#FFFFFF"></path>
                <path d="M240.772955,177.313828 C240.781341,178.14339 240.501667,178.850188 239.923083,179.479422 C239.34302,180.106088 238.691928,180.413771 237.932814,180.422504 C237.095767,180.431749 236.401269,180.13999 235.814793,179.528734 C235.230783,178.918505 234.940258,178.175751 234.930887,177.258866 C234.922008,176.389238 235.196256,175.672168 235.766948,175.065534 C236.341092,174.45736 237.019313,174.157896 237.834164,174.149163 C238.627805,174.140431 239.29912,174.439382 239.886089,175.065021 C240.463194,175.6809 240.764077,176.43855 240.772955,177.313828 M242.10868,172.258892 L242.028773,172.259405 C242.0268,172.259405 242.024334,172.260433 242.020388,172.260433 L241.811743,172.262487 C241.810756,172.262487 241.80829,172.261973 241.807303,172.261973 L241.72493,172.263001 C241.049669,172.270706 240.933262,172.646192 240.92685,172.890181 L240.92685,172.893263 L240.92685,172.901995 C240.92685,172.908673 240.925863,172.913809 240.925863,172.919973 L240.928823,173.212246 C240.541127,172.866039 240.117918,172.594826 239.673498,172.405285 C239.11859,172.169515 238.505479,172.053941 237.85784,172.060618 C237.13424,172.068837 236.477723,172.202902 235.909004,172.460247 C235.341272,172.71605 234.813,173.113623 234.337505,173.641667 C233.903937,174.122453 233.56606,174.685939 233.335219,175.31466 C233.105363,175.943381 232.993395,176.615249 233.000301,177.310232 C233.015098,178.805499 233.507857,180.062941 234.466244,181.048656 C235.425124,182.035399 236.63655,182.525431 238.065992,182.509508 C238.679597,182.503344 239.267059,182.372874 239.808649,182.121694 C240.233832,181.924962 240.62646,181.653235 240.986533,181.31576 C240.942141,182.102688 240.679731,182.751956 240.205716,183.251234 C239.672018,183.807015 238.952858,184.095179 238.065992,184.104938 C237.557943,184.110075 237.100206,184.002206 236.705605,183.785955 C236.311497,183.568676 235.988911,183.248152 235.743765,182.829518 C235.71269,182.777639 235.657939,182.745278 235.601215,182.745792 L233.825017,182.765311 C233.772239,182.765824 233.720941,182.794589 233.690853,182.840305 C233.661751,182.886021 233.653366,182.943551 233.672109,182.996458 C234.012946,183.976523 234.583144,184.74496 235.367907,185.27814 C236.148724,185.808751 237.097246,186.072259 238.185359,186.059932 C239.693228,186.043494 240.889363,185.532402 241.744167,184.541036 C242.594039,183.552753 243.016756,182.182819 242.999492,180.46976 L242.922051,172.897886 L242.922051,172.895831 C242.920078,172.654924 242.809097,172.251187 242.10868,172.258892" id="Fill-43" fill="#FFFFFF"></path>
                <path d="M261.662406,171.060688 C261.054945,171.067157 260.508386,171.179126 260.036784,171.395101 C259.796298,171.504581 259.564141,171.64591 259.346559,171.815107 L259.343436,171.566786 C259.341874,171.383157 259.184673,171.235856 258.993638,171.237349 L258.094679,171.246804 C258.092597,171.246804 258.090515,171.245809 258.087912,171.245809 L258.005668,171.246307 C257.090052,171.255762 257.004164,171.825558 257.002603,172.025111 C257.003123,172.028594 257,172.032575 257,172.036557 L257.091093,180.254558 L257.091614,180.284416 C257.093696,180.468542 257.174899,181.06969 258.114459,181.060235 L258.194101,181.059737 L258.198265,181.059239 L258.205032,181.059239 L259.168537,181.049286 C259.362695,181.047296 259.516252,180.897507 259.51417,180.713381 L259.467843,176.555114 C259.454829,175.358791 259.6214,174.500365 259.960787,174.003721 C260.273106,173.542908 260.787392,173.315487 261.52967,173.308023 C262.211047,173.301056 262.695142,173.483192 263.007461,173.865875 C263.340081,174.267967 263.511336,174.925845 263.521226,175.816121 L263.575361,180.672077 C263.577444,180.856203 263.736206,181.003006 263.928282,181.001513 L264.910006,180.991063 L264.993811,180.990565 L265.035975,180.990068 C265.0417,180.990068 265.047426,180.987082 265.055234,180.987082 C265.915674,180.95374 265.997918,180.398375 266,180.206785 L266,180.204296 L265.947426,175.431944 C265.93181,174.041044 265.54974,172.950221 264.813707,172.192317 C264.070908,171.42894 263.010064,171.047251 261.662406,171.060688" id="Fill-45" fill="#FFFFFF"></path>
                <path d="M228.294528,172.062429 C228.294044,172.062429 228.292593,172.060345 228.290657,172.060345 L228.151312,172.061908 L228.067608,172.06295 L227.211215,172.072849 C227.144445,172.07337 227.085901,172.118177 227.063644,172.186429 L224.499786,179.432084 L222.000279,172.24895 C221.977538,172.180177 221.915123,172.133286 221.848838,172.133807 L220.920352,172.144227 L220.836648,172.145269 L220.820682,172.14579 C220.544894,172.148916 220.238624,172.157252 220.082829,172.377118 C219.99477,172.503722 219.975417,172.672008 220.032026,172.897604 L220.035896,172.908024 L220.035896,172.91063 L223.369057,182.268971 L222.841189,183.760095 C222.840222,183.764264 222.834416,183.766869 222.833448,183.771037 L222.310903,185.343438 C222.263487,185.552362 222.286711,185.719606 222.376705,185.844648 C222.50976,186.024916 222.743938,186.055135 222.976664,186.05774 C222.978599,186.05774 222.981019,186.060345 222.983922,186.060345 L223.134879,186.058782 L223.217615,186.05774 L224.064816,186.048362 C224.130134,186.04732 224.189162,186.004076 224.213354,185.937387 L228.452259,174.35851 C228.457098,174.346006 228.459517,174.334544 228.46242,174.32204 L228.463388,174.314224 L228.97674,172.777773 C229.023188,172.568848 229,172.400042 228.908035,172.276042 C228.773528,172.092647 228.532093,172.065034 228.294528,172.062429" id="Fill-47" fill="#FFFFFF"></path>
            </g>
        </g>
    </g>
</svg>