<?xml version="1.0" encoding="UTF-8"?>
<svg width="14px" height="14px" viewBox="0 0 14 14" version="1.1" xmlns="http://www.w3.org/2000/svg" xmlns:xlink="http://www.w3.org/1999/xlink">
    <!-- Generator: Sketch 64 (93537) - https://sketch.com -->
    <title>search icon</title>
    <desc>Created with Sketch.</desc>
    <defs>
        <polygon id="path-1" points="0 0.0812580645 10.9047968 0.0812580645 10.9047968 10.985629 0 10.985629"></polygon>
    </defs>
    <g id="Page-1" stroke="none" stroke-width="1" fill="none" fill-rule="evenodd">
        <g id="iPhone-11---Mapa" transform="translate(-343.000000, -419.000000)">
            <g id="search-icon" transform="translate(343.000000, 419.000000)">
                <g id="Group-3">
                    <mask id="mask-2" fill="white">
                        <use xlink:href="#path-1"></use>
                    </mask>
                    <g id="Clip-2"></g>
                    <path d="M5.45234516,1.14559677 C3.03305484,1.14559677 1.06440968,3.1138871 1.06440968,5.53317742 C1.06440968,7.95282258 3.03305484,9.9211129 5.45234516,9.9211129 C7.87163548,9.9211129 9.84028065,7.95282258 9.84028065,5.53317742 C9.84028065,3.1138871 7.87163548,1.14559677 5.45234516,1.14559677 M5.45234516,10.985629 C2.44579677,10.985629 -0.000106451613,8.53972581 -0.000106451613,5.53317742 C-0.000106451613,2.52698387 2.44579677,0.0810806452 5.45234516,0.0810806452 C8.45889355,0.0810806452 10.9047968,2.52698387 10.9047968,5.53317742 C10.9047968,8.53972581 8.45889355,10.985629 5.45234516,10.985629" id="Fill-1" fill="#003DA6" mask="url(#mask-2)"></path>
                </g>
                <path d="M13.4701562,14 C13.3376821,14 13.2052079,13.9491578 13.1020546,13.8471104 L9.16174212,9.93662169 C8.95119646,9.7274425 8.94554423,9.38244211 9.14867133,9.16599976 C9.3521517,8.94992056 9.68739973,8.94411003 9.89794538,9.1525629 L13.8382579,13.0634147 C14.0488035,13.2722307 14.0544558,13.6172311 13.8513287,13.8336735 C13.7474689,13.9444368 13.6089892,14 13.4701562,14" id="Fill-4" fill="#003DA6"></path>
            </g>
        </g>
    </g>
</svg>