<?xml version="1.0" encoding="UTF-8"?>
<svg width="66px" height="66px" viewBox="0 0 66 66" version="1.1" xmlns="http://www.w3.org/2000/svg" xmlns:xlink="http://www.w3.org/1999/xlink">
    <!-- Generator: Sketch 64 (93537) - https://sketch.com -->
    <title>Search Icon big</title>
    <desc>Created with Sketch.</desc>
    <defs>
        <polygon id="path-1" points="0 0.236387097 31.7230452 0.236387097 31.7230452 31.9581935 0 31.9581935"></polygon>
    </defs>
    <g id="Page-1" stroke="none" stroke-width="1" fill="none" fill-rule="evenodd">
        <g id="iPhone-11---Detalles-factura" transform="translate(-167.000000, -283.000000)">
            <g id="Search-Icon-big" transform="translate(167.000000, 283.000000)">
                <g id="Oval" stroke="#003DA6" stroke-width="3">
                    <circle cx="33" cy="33" r="31.5"></circle>
                </g>
                <g transform="translate(13.000000, 13.000000)">
                    <g id="Group-3">
                        <mask id="mask-2" fill="white">
                            <use xlink:href="#path-1"></use>
                        </mask>
                        <g id="Clip-2"></g>
                        <path d="M15.8613677,3.33264516 C8.82343226,3.33264516 3.09646452,9.05858065 3.09646452,16.0965161 C3.09646452,23.1354839 8.82343226,28.8614194 15.8613677,28.8614194 C22.8993032,28.8614194 28.626271,23.1354839 28.626271,16.0965161 C28.626271,9.05858065 22.8993032,3.33264516 15.8613677,3.33264516 M15.8613677,31.9581935 C7.11504516,31.9581935 -0.000309677419,24.8428387 -0.000309677419,16.0965161 C-0.000309677419,7.35122581 7.11504516,0.235870968 15.8613677,0.235870968 C24.6076903,0.235870968 31.7230452,7.35122581 31.7230452,16.0965161 C31.7230452,24.8428387 24.6076903,31.9581935 15.8613677,31.9581935" id="Fill-1" fill="#003DA6" mask="url(#mask-2)"></path>
                    </g>
                    <path d="M38.4104687,40 C38.0130462,40 37.6156236,39.8474735 37.3061638,39.5413311 L25.4852264,27.8098651 C24.8535894,27.1823275 24.8366327,26.1473263 25.446014,25.4979993 C26.0564551,24.8497617 27.0621992,24.8323301 27.6938362,25.4576887 L39.5147736,37.1902442 C40.1464106,37.8166922 40.1633673,38.8516934 39.553986,39.5010205 C39.2424067,39.8333103 38.8269676,40 38.4104687,40" id="Fill-4" fill="#003DA6"></path>
                </g>
            </g>
        </g>
    </g>
</svg>