<?xml version="1.0" encoding="UTF-8"?>
<svg width="23px" height="22px" viewBox="0 0 23 22" version="1.1" xmlns="http://www.w3.org/2000/svg" xmlns:xlink="http://www.w3.org/1999/xlink">
    <!-- Generator: Sketch 64 (93537) - https://sketch.com -->
    <title>download icon</title>
    <desc>Created with Sketch.</desc>
    <defs>
        <polygon id="path-1" points="0.000122222222 0.137047826 21.7813444 0.137047826 21.7813444 7 0.000122222222 7"></polygon>
    </defs>
    <g id="Page-1" stroke="none" stroke-width="1" fill="none" fill-rule="evenodd">
        <g id="iPhone-11---Detalles-factura" transform="translate(-251.000000, -700.000000)">
            <g id="download-icon" transform="translate(251.500000, 700.000000)">
                <path d="M8.26228584,8.52399091 C8.57660299,8.52399091 8.83227888,8.26449092 8.83227888,7.94363281 L8.83227888,1.87396703 C8.83227888,1.67851894 8.91027175,1.50073003 9.03723008,1.37142899 C9.16330879,1.24392381 9.33747333,1.16281136 9.52923025,1.16281136 L11.4620462,1.16281136 C11.6549759,1.16281136 11.8291404,1.24242727 11.9525803,1.37053107 L11.9552191,1.37142899 C12.0807114,1.49923349 12.1575315,1.6770224 12.1575315,1.87396703 L12.1575315,7.94363281 C12.1575315,8.26449092 12.4132074,8.52399091 12.7275245,8.52399091 L14.362736,8.52399091 L10.4991567,14.3817467 L6.63616372,8.52399091 L8.26228584,8.52399091 Z M5.09565784,8.26568815 L10.0224032,15.7349179 C10.0634521,15.8004663 10.1171089,15.8564369 10.1833735,15.9019317 C10.4446203,16.0797206 10.7973475,16.0093833 10.9709256,15.7426999 L15.8748009,8.30609473 C15.9527938,8.20672449 16,8.08041654 16,7.94363281 C16,7.62217608 15.7443241,7.36088024 15.430007,7.36088024 L13.2978108,7.36088024 L13.2978108,1.87396703 C13.2978108,1.36125252 13.0916867,0.892536286 12.759484,0.553420387 L12.7568452,0.549529383 C12.4234696,0.210413484 11.9643085,0 11.4620462,0 L9.52923025,0 C9.02256976,0 8.56399512,0.210413484 8.23179238,0.549529383 C7.89929644,0.888944591 7.69317242,1.35736152 7.69317242,1.87396703 L7.69317242,7.36088024 L5.56742677,7.36088024 L5.56742677,7.36387332 C5.45864723,7.36237678 5.34898808,7.39530066 5.25164359,7.46174702 C4.99098319,7.63923663 4.92207971,7.99960339 5.09565784,8.26568815 L5.09565784,8.26568815 Z" id="Fill-1" fill="#003DA6"></path>
                <g id="Group-5" transform="translate(0.000000, 15.000000)">
                    <mask id="mask-2" fill="white">
                        <use xlink:href="#path-1"></use>
                    </mask>
                    <g id="Clip-4"></g>
                    <path d="M20.5942611,5.09456957 C20.5942611,5.29483043 20.5129833,5.4753087 20.3825111,5.6070913 C20.2508167,5.73704783 20.0677889,5.81800435 19.8682611,5.81800435 L1.91320556,5.81800435 C1.71337222,5.81800435 1.53217778,5.73704783 1.40048333,5.60556957 C1.26848333,5.47378696 1.18720556,5.29361304 1.18720556,5.09456957 L1.18720556,2.04287391 C1.18720556,1.84352609 1.26848333,1.66304783 1.40048333,1.53217826 C1.53217778,1.40191739 1.71337222,1.31943913 1.91320556,1.31943913 L2.56159444,1.31943913 C2.76295556,1.31943913 2.94445556,1.40039565 3.07584444,1.53217826 C3.20662222,1.66183043 3.2879,1.84352609 3.2879,2.04287391 L3.2879,3.13365652 C3.2879,3.46113478 3.55434444,3.72500435 3.8819,3.72500435 L17.8995667,3.72500435 C18.2271222,3.72500435 18.4935667,3.46113478 18.4935667,3.13365652 L18.4935667,2.04287391 C18.4935667,1.84352609 18.5748444,1.66304783 18.7065389,1.53217826 C18.8385389,1.40191739 19.0200389,1.31943913 19.2195667,1.31943913 L19.8682611,1.31943913 C20.0677889,1.31943913 20.2508167,1.40039565 20.3825111,1.53217826 C20.5129833,1.66183043 20.5942611,1.84352609 20.5942611,2.04287391 L20.5942611,5.09456957 Z M21.2203444,0.698265217 L21.2179,0.695830435 C20.8717056,0.351004348 20.3932056,0.137047826 19.8682611,0.137047826 L19.2195667,0.137047826 C18.6918722,0.137047826 18.2139833,0.351004348 17.8674833,0.695830435 C17.5212889,1.04126522 17.3049556,1.51696087 17.3049556,2.04287391 L17.3049556,2.54322174 L4.47498333,2.54322174 L4.47498333,2.04287391 C4.47498333,1.5197 4.26017778,1.0430913 3.91398333,0.698265217 L3.91153889,0.695830435 C3.56534444,0.351004348 3.08806667,0.137047826 2.56159444,0.137047826 L1.91320556,0.137047826 C1.38551111,0.137047826 0.907622222,0.351004348 0.561122222,0.695830435 C0.214927778,1.04126522 0.000122222222,1.51696087 0.000122222222,2.04287391 L0.000122222222,5.09456957 C0.000122222222,5.62017826 0.214927778,6.09648261 0.561122222,6.44161304 C0.907622222,6.78643913 1.38551111,7.0000913 1.91320556,7.0000913 L19.8682611,7.0000913 C20.3932056,7.0000913 20.8717056,6.78643913 21.2179,6.44161304 L21.2203444,6.43856957 C21.5668444,6.09374348 21.7813444,5.61865652 21.7813444,5.09456957 L21.7813444,2.04287391 C21.7813444,1.5197 21.5668444,1.0430913 21.2203444,0.698265217 L21.2203444,0.698265217 Z" id="Fill-3" fill="#003DA6" mask="url(#mask-2)"></path>
                </g>
            </g>
        </g>
    </g>
</svg>