<?xml version="1.0" encoding="UTF-8"?>
<svg width="26px" height="29px" viewBox="0 0 26 29" version="1.1" xmlns="http://www.w3.org/2000/svg" xmlns:xlink="http://www.w3.org/1999/xlink">
    <!-- Generator: Sketch 64 (93537) - https://sketch.com -->
    <title>edit icon</title>
    <desc>Created with Sketch.</desc>
    <defs>
        <polygon id="path-1" points="0 0 13 0 13 32 0 32"></polygon>
    </defs>
    <g id="Page-1" stroke="none" stroke-width="1" fill="none" fill-rule="evenodd">
        <g id="iPhone-11---Editar-facturacion" transform="translate(-240.000000, -186.000000)">
            <g id="edit-icon" transform="translate(251.500000, 202.000000) rotate(40.000000) translate(-251.500000, -202.000000) translate(245.000000, 186.000000)">
                <mask id="mask-2" fill="white">
                    <use xlink:href="#path-1"></use>
                </mask>
                <g id="Clip-2"></g>
                <path d="M11.3907665,5.73121479 L6.51920023,5.73121479 L1.61383119,5.73121479 L1.61383119,2.52026156 C1.61383119,2.2367489 1.73701338,1.97989517 1.93546392,1.79521366 L1.93737238,1.79701059 C2.13645908,1.61055898 2.4134455,1.49515315 2.71717922,1.49515315 L10.2835726,1.49515315 C10.5892726,1.49515315 10.8662012,1.60935208 11.0634084,1.79338991 L11.0634084,1.79701059 C11.2656758,1.98343539 11.3907665,2.2397259 11.3907665,2.52026156 L11.3907665,5.73121479 Z M11.3856483,20.1416558 L9.10050314,19.6503697 C8.93264573,19.6148602 8.76230154,19.594799 8.58169216,19.6013162 C8.3736415,19.6113736 8.16943667,19.6551973 7.96650414,19.7474844 L7.3245399,20.0428514 L7.3245399,7.15231832 L11.388858,7.15231832 L11.3856483,20.1416558 Z M9.05198208,25.7254955 L7.1254532,25.2318224 C6.90465058,25.1768149 6.65895128,25.1969566 6.4432668,25.3076421 L4.3017185,26.4179841 L2.15435809,22.2458341 L3.91623923,22.7489477 C4.09939321,22.8010319 4.29081717,22.8346908 4.49374969,22.8346908 C4.72860549,22.8365146 4.96025161,22.7945147 5.18614345,22.6885763 L8.66271481,21.0910785 C8.68122106,21.0928487 8.70993465,21.0981858 8.74249407,21.104703 L11.1591203,21.6231844 L9.05198208,25.7254955 Z M6.61684958,30.4652607 C6.60982299,30.4764983 6.6027964,30.4871726 6.59516257,30.4901228 C6.57217435,30.5037204 6.53770647,30.5102376 6.50135905,30.5102376 C6.46304534,30.5102376 6.43051484,30.5037204 6.40758445,30.4901228 C6.39986387,30.4871726 6.39095774,30.4782952 6.38583961,30.4652607 L5.08661456,27.9414858 L7.00227102,26.9482662 L8.25751483,27.270319 L6.61684958,30.4652607 Z M1.61383119,7.15231832 L5.71261717,7.15231832 L5.71261717,20.7827039 L4.48802433,21.3450089 C4.46439995,21.3431583 4.42993207,21.3349246 4.38846652,21.3230703 L1.61383119,20.5311605 L1.61383119,7.15231832 Z M12.9918457,20.9738758 L12.9950264,6.49120896 C12.9969638,6.47637758 12.9988723,6.45982973 12.9988723,6.4426382 C12.9988723,6.42609035 12.9969638,6.40951568 12.9950264,6.39227052 L12.9969638,2.52026156 C12.9969638,1.82364271 12.6932301,1.19447578 12.2031038,0.739852457 L12.2031038,0.741676207 C11.7091895,0.283566303 11.0308489,0 10.2835726,0 L2.71717922,0 C1.96799443,0 1.28971169,0.283566303 0.797676933,0.738135987 L0.797676933,0.741676207 C0.305671096,1.198016 0,1.82718293 0,2.52026156 L0.00190845637,21.3615568 C0,21.4704722 0.025532833,21.5793608 0.0797503437,21.6835559 L4.93153802,31.1074621 C5.07574214,31.3927449 5.30360027,31.6158861 5.58240839,31.7703684 C5.85364053,31.9213106 6.17015512,32 6.50135905,32 C6.83062561,32 7.14904866,31.9213106 7.42025188,31.7685715 C7.69720938,31.6140891 7.92503859,31.390948 8.07118008,31.1074621 L12.9159123,21.6799889 L12.9140038,21.6799889 C12.9624959,21.5829278 12.9918457,21.4740124 12.9918457,21.3598135 L12.9918457,21.1869595 C13.0027181,21.1147605 13.0027181,21.0425614 12.9918457,20.9738758 L12.9918457,20.9738758 Z" id="Fill-1" fill="#003DA6" mask="url(#mask-2)"></path>
            </g>
        </g>
    </g>
</svg>