<?xml version="1.0" encoding="UTF-8"?>
<svg width="30px" height="30px" viewBox="0 0 30 30" version="1.1" xmlns="http://www.w3.org/2000/svg" xmlns:xlink="http://www.w3.org/1999/xlink">
    <!-- Generator: Sketch 64 (93537) - https://sketch.com -->
    <title>directions icon </title>
    <desc>Created with Sketch.</desc>
    <defs>
        <polygon id="path-1" points="2.91262136e-05 0.081961165 29.917966 0.081961165 29.917966 30 2.91262136e-05 30"></polygon>
    </defs>
    <g id="Page-1" stroke="none" stroke-width="1" fill="none" fill-rule="evenodd">
        <g id="iPhone-11---Mapa" transform="translate(-364.000000, -514.000000)">
            <g id="directions-icon-" transform="translate(364.000000, 514.000000)">
                <g id="Group-3">
                    <mask id="mask-2" fill="white">
                        <use xlink:href="#path-1"></use>
                    </mask>
                    <g id="Clip-2"></g>
                    <path d="M27.9967282,19.679534 L19.5976019,28.0786602 C17.0356602,30.6406019 12.8822621,30.6406019 10.3206117,28.0786602 L1.92148544,19.679534 C-0.640456311,17.1175922 -0.640456311,12.9641942 1.92148544,10.4022524 L10.3206117,2.00341748 C12.8822621,-0.558524272 17.0356602,-0.558524272 19.5976019,2.00341748 L27.9967282,10.4022524 C30.5583786,12.9641942 30.5583786,17.1175922 27.9967282,19.679534" id="Fill-1" fill="#003DA6" mask="url(#mask-2)"></path>
                </g>
                <path d="M18.0256821,20 C17.7631262,20 17.5005704,19.9020883 17.3004301,19.7065511 C16.8998566,19.3151905 16.8998566,18.6807684 17.3004301,18.2894078 L21.7714985,13.921457 C22.0094398,13.6887019 22.0094398,13.3105108 21.7714985,13.0777557 L17.3013092,8.71037752 C16.9007357,8.31930321 16.9007357,7.68459476 17.3013092,7.29352045 C17.7018827,6.90215985 18.3512396,6.90215985 18.7518131,7.29352045 L23.2220024,11.6608986 C24.2593325,12.6746571 24.2593325,14.3245556 23.2220024,15.3383141 L18.750934,19.7065511 C18.5507938,19.9020883 18.2882379,20 18.0256821,20" id="Fill-4" fill="#FFFFFF"></path>
                <path d="M11.0032412,22 C10.4491654,22 10,21.5426301 10,20.9784336 L10,13 L21.9967588,13 C22.5508346,13 23,13.4573699 23,14.0215664 C23,14.5857629 22.5508346,15.0431328 21.9967588,15.0431328 L12.0064825,15.0431328 L12.0064825,20.9784336 C12.0064825,21.5426301 11.557317,22 11.0032412,22" id="Fill-6" fill="#FFFFFF"></path>
            </g>
        </g>
    </g>
</svg>